<?xml version="1.0" standalone="no"?>
 <!DOCTYPE svg PUBLIC "-//W3C//DTD SVG 1.1//EN" 
 "http://www.w3.org/Graphics/SVG/1.1/DTD/svg11.dtd"> 
<svg
  xmlns:svg="http://www.w3.org/2000/svg"
  xmlns="http://www.w3.org/2000/svg"
  xmlns:xlink="http://www.w3.org/1999/xlink"
  xmlns:inkscape="http://www.inkscape.org/namespaces/inkscape"
  version="1.1"
  width="297.0022mm" height="210.0072mm" viewBox="0.0000 0.0000 297.0022 210.0072">
<title>SVG Image created as električnipotencialnapetost.svg date 2026-07-20T16:20:45 </title>
  <desc>Image generated by Eeschema-SVG </desc>
<g style="fill:#000000; fill-opacity:1.0000;stroke:#000000; stroke-opacity:1.0000;
stroke-linecap:round; stroke-linejoin:round;"
 transform="translate(0 0) scale(1 1)">
</g>
<g style="fill:none; 
stroke:#000000; stroke-width:0.2540; stroke-opacity:1; 
stroke-linecap:round; stroke-linejoin:round;">
<circle cx="217.1700" cy="92.7100" r="2.5400" /> 
<path style="fill:none; 
stroke:#000000; stroke-width:0.1524; stroke-opacity:1; 
stroke-linecap:round; stroke-linejoin:round;fill:none"
d="M 217.4240,88.9000
217.9320,88.9000
" /> 
<path style="fill:none; 
stroke:#000000; stroke-width:0.1524; stroke-opacity:1; 
stroke-linecap:round; stroke-linejoin:round;fill:none"
d="M 217.6780,88.6460
217.6780,89.1540
" /> 
</g>
<g style="fill:none; 
stroke:#000000; stroke-width:0.1524; stroke-opacity:1; 
stroke-linecap:round; stroke-linejoin:round;">
<text x="217.1700" y="93.9800"
textLength="2.1263" font-size="3.3866" lengthAdjust="spacingAndGlyphs"
text-anchor="middle" opacity="0" stroke-opacity="0">V</text>
<g class="stroked-text"><desc>V</desc>
<path d="M216.3234 91.3370
L217.1700 93.8770
" />
<path d="M217.1700 93.8770
L218.0167 91.3370
" />
</g><path d="M217.1700 95.2500
L217.1700 97.7900
" />
<path d="M217.1700 90.1700
L217.1700 87.6300
" />
<text x="222.2402" y="92.6464"
textLength="2.5013" font-size="1.6933" lengthAdjust="spacingAndGlyphs"
text-anchor="middle" opacity="0" stroke-opacity="0">0V</text>
<g class="stroked-text"><desc>0V</desc>
<path d="M221.6354 91.3209
L221.7564 91.3209
" />
<path d="M221.7564 91.3209
L221.8773 91.3814
" />
<path d="M221.8773 91.3814
L221.9378 91.4419
" />
<path d="M221.9378 91.4419
L221.9983 91.5628
" />
<path d="M221.9983 91.5628
L222.0588 91.8047
" />
<path d="M222.0588 91.8047
L222.0588 92.1071
" />
<path d="M222.0588 92.1071
L221.9983 92.3490
" />
<path d="M221.9983 92.3490
L221.9378 92.4700
" />
<path d="M221.9378 92.4700
L221.8773 92.5305
" />
<path d="M221.8773 92.5305
L221.7564 92.5909
" />
<path d="M221.7564 92.5909
L221.6354 92.5909
" />
<path d="M221.6354 92.5909
L221.5145 92.5305
" />
<path d="M221.5145 92.5305
L221.4540 92.4700
" />
<path d="M221.4540 92.4700
L221.3935 92.3490
" />
<path d="M221.3935 92.3490
L221.3331 92.1071
" />
<path d="M221.3331 92.1071
L221.3331 91.8047
" />
<path d="M221.3331 91.8047
L221.3935 91.5628
" />
<path d="M221.3935 91.5628
L221.4540 91.4419
" />
<path d="M221.4540 91.4419
L221.5145 91.3814
" />
<path d="M221.5145 91.3814
L221.6354 91.3209
" />
<path d="M222.4216 91.3209
L222.8449 92.5909
" />
<path d="M222.8449 92.5909
L223.2683 91.3209
" />
</g></g>
<g style="fill:none; 
stroke:#000000; stroke-width:0.2540; stroke-opacity:1; 
stroke-linecap:round; stroke-linejoin:round;">
<rect x="123.444000" y="90.170000" width="2.032000" height="5.080000" rx="0.000000" />
</g>
<g style="fill:none; 
stroke:#000000; stroke-width:0.1524; stroke-opacity:1; 
stroke-linecap:round; stroke-linejoin:round;">
<path d="M124.4600 90.1700
L124.4600 88.9000
" />
<path d="M124.4600 95.2500
L124.4600 96.5200
" />
<text x="128.3509" y="92.0750"
textLength="2.6827" font-size="1.6933" lengthAdjust="spacingAndGlyphs"
text-anchor="middle" opacity="0" stroke-opacity="0">R2</text>
<g class="stroked-text"><desc>R2</desc>
<path d="M128.1392 92.0195
L127.7159 91.4148
" />
<path d="M127.4135 92.0195
L127.4135 90.7495
" />
<path d="M127.4135 90.7495
L127.8973 90.7495
" />
<path d="M127.8973 90.7495
L128.0183 90.8100
" />
<path d="M128.0183 90.8100
L128.0788 90.8705
" />
<path d="M128.0788 90.8705
L128.1392 90.9914
" />
<path d="M128.1392 90.9914
L128.1392 91.1729
" />
<path d="M128.1392 91.1729
L128.0788 91.2938
" />
<path d="M128.0788 91.2938
L128.0183 91.3543
" />
<path d="M128.0183 91.3543
L127.8973 91.4148
" />
<path d="M127.8973 91.4148
L127.4135 91.4148
" />
<path d="M128.6231 90.8705
L128.6835 90.8100
" />
<path d="M128.6835 90.8100
L128.8045 90.7495
" />
<path d="M128.8045 90.7495
L129.1069 90.7495
" />
<path d="M129.1069 90.7495
L129.2278 90.8100
" />
<path d="M129.2278 90.8100
L129.2883 90.8705
" />
<path d="M129.2883 90.8705
L129.3488 90.9914
" />
<path d="M129.3488 90.9914
L129.3488 91.1124
" />
<path d="M129.3488 91.1124
L129.2883 91.2938
" />
<path d="M129.2883 91.2938
L128.5626 92.0195
" />
<path d="M128.5626 92.0195
L129.3488 92.0195
" />
</g><text x="128.2300" y="94.6149"
textLength="2.4408" font-size="1.6933" lengthAdjust="spacingAndGlyphs"
text-anchor="middle" opacity="0" stroke-opacity="0">1k</text>
<g class="stroked-text"><desc>1k</desc>
<path d="M128.0788 94.5594
L127.3531 94.5594
" />
<path d="M127.7159 94.5594
L127.7159 93.2894
" />
<path d="M127.7159 93.2894
L127.5950 93.4709
" />
<path d="M127.5950 93.4709
L127.4740 93.5918
" />
<path d="M127.4740 93.5918
L127.3531 93.6523
" />
<path d="M128.6230 94.5594
L128.6230 93.2894
" />
<path d="M128.7440 94.0756
L129.1068 94.5594
" />
<path d="M129.1068 93.7128
L128.6230 94.1966
" />
</g></g>
<g style="fill:none; 
stroke:#000000; stroke-width:0.2540; stroke-opacity:1; 
stroke-linecap:round; stroke-linejoin:round;">
<rect x="123.444000" y="72.390000" width="2.032000" height="5.080000" rx="0.000000" />
</g>
<g style="fill:none; 
stroke:#000000; stroke-width:0.1524; stroke-opacity:1; 
stroke-linecap:round; stroke-linejoin:round;">
<path d="M124.4600 72.3900
L124.4600 71.1200
" />
<path d="M124.4600 77.4700
L124.4600 78.7400
" />
<text x="128.3509" y="74.2950"
textLength="2.6827" font-size="1.6933" lengthAdjust="spacingAndGlyphs"
text-anchor="middle" opacity="0" stroke-opacity="0">R1</text>
<g class="stroked-text"><desc>R1</desc>
<path d="M128.1392 74.2395
L127.7159 73.6348
" />
<path d="M127.4135 74.2395
L127.4135 72.9695
" />
<path d="M127.4135 72.9695
L127.8973 72.9695
" />
<path d="M127.8973 72.9695
L128.0183 73.0300
" />
<path d="M128.0183 73.0300
L128.0788 73.0905
" />
<path d="M128.0788 73.0905
L128.1392 73.2114
" />
<path d="M128.1392 73.2114
L128.1392 73.3929
" />
<path d="M128.1392 73.3929
L128.0788 73.5138
" />
<path d="M128.0788 73.5138
L128.0183 73.5743
" />
<path d="M128.0183 73.5743
L127.8973 73.6348
" />
<path d="M127.8973 73.6348
L127.4135 73.6348
" />
<path d="M129.3488 74.2395
L128.6231 74.2395
" />
<path d="M128.9859 74.2395
L128.9859 72.9695
" />
<path d="M128.9859 72.9695
L128.8650 73.1510
" />
<path d="M128.8650 73.1510
L128.7440 73.2719
" />
<path d="M128.7440 73.2719
L128.6231 73.3324
" />
</g><text x="128.2300" y="76.8349"
textLength="2.4408" font-size="1.6933" lengthAdjust="spacingAndGlyphs"
text-anchor="middle" opacity="0" stroke-opacity="0">1k</text>
<g class="stroked-text"><desc>1k</desc>
<path d="M128.0788 76.7794
L127.3531 76.7794
" />
<path d="M127.7159 76.7794
L127.7159 75.5094
" />
<path d="M127.7159 75.5094
L127.5950 75.6909
" />
<path d="M127.5950 75.6909
L127.4740 75.8118
" />
<path d="M127.4740 75.8118
L127.3531 75.8723
" />
<path d="M128.6230 76.7794
L128.6230 75.5094
" />
<path d="M128.7440 76.2956
L129.1068 76.7794
" />
<path d="M129.1068 75.9328
L128.6230 76.4166
" />
</g></g>
<g style="fill:#000000; fill-opacity:1.0000; 
stroke:#000000; stroke-width:0.1524; stroke-opacity:1; 
stroke-linecap:round; stroke-linejoin:round;">
<rect x="104.394000" y="82.042000" width="4.572000" height="0.254000" rx="0.000000" />
<rect x="104.394000" y="85.090000" width="4.572000" height="0.254000" rx="0.000000" />
<rect x="105.156000" y="82.804000" width="3.048000" height="0.508000" rx="0.000000" />
<rect x="105.156000" y="85.852000" width="3.048000" height="0.508000" rx="0.000000" />
<path style="fill:none; 
stroke:#000000; stroke-width:0.1524; stroke-opacity:1; 
stroke-linecap:round; stroke-linejoin:round;fill:none"
d="M 106.6800,82.0420
106.6800,81.2800
" /> 
<path style="fill:none; 
stroke:#000000; stroke-width:0.1524; stroke-opacity:1; 
stroke-linecap:round; stroke-linejoin:round;fill:none"
d="M 106.6800,83.8200
106.6800,83.5660
" /> 
<path style="fill:none; 
stroke:#000000; stroke-width:0.1524; stroke-opacity:1; 
stroke-linecap:round; stroke-linejoin:round;fill:none"
d="M 106.6800,84.3280
106.6800,84.0740
" /> 
<path style="fill:none; 
stroke:#000000; stroke-width:0.1524; stroke-opacity:1; 
stroke-linecap:round; stroke-linejoin:round;fill:none"
d="M 106.6800,84.8360
106.6800,84.5820
" /> 
<path style="fill:none; 
stroke:#000000; stroke-width:0.2540; stroke-opacity:1; 
stroke-linecap:round; stroke-linejoin:round;fill:none"
d="M 107.4420,80.7720
108.4580,80.7720
" /> 
<path style="fill:none; 
stroke:#000000; stroke-width:0.2540; stroke-opacity:1; 
stroke-linecap:round; stroke-linejoin:round;fill:none"
d="M 107.9500,80.2640
107.9500,81.2800
" /> 
</g>
<g style="fill:none; 
stroke:#000000; stroke-width:0.1524; stroke-opacity:1; 
stroke-linecap:round; stroke-linejoin:round;">
<path d="M106.6800 81.2800
L106.6800 78.7400
" />
<path d="M106.6800 86.3600
L106.6800 88.9000
" />
<text x="112.3247" y="83.8834"
textLength="3.6503" font-size="1.6933" lengthAdjust="spacingAndGlyphs"
text-anchor="middle" opacity="0" stroke-opacity="0">BT1</text>
<g class="stroked-text"><desc>BT1</desc>
<path d="M111.3269 83.1627
L111.5083 83.2232
" />
<path d="M111.5083 83.2232
L111.5688 83.2836
" />
<path d="M111.5688 83.2836
L111.6292 83.4046
" />
<path d="M111.6292 83.4046
L111.6292 83.5860
" />
<path d="M111.6292 83.5860
L111.5688 83.7070
" />
<path d="M111.5688 83.7070
L111.5083 83.7675
" />
<path d="M111.5083 83.7675
L111.3873 83.8279
" />
<path d="M111.3873 83.8279
L110.9035 83.8279
" />
<path d="M110.9035 83.8279
L110.9035 82.5579
" />
<path d="M110.9035 82.5579
L111.3269 82.5579
" />
<path d="M111.3269 82.5579
L111.4478 82.6184
" />
<path d="M111.4478 82.6184
L111.5083 82.6789
" />
<path d="M111.5083 82.6789
L111.5688 82.7998
" />
<path d="M111.5688 82.7998
L111.5688 82.9208
" />
<path d="M111.5688 82.9208
L111.5083 83.0417
" />
<path d="M111.5083 83.0417
L111.4478 83.1022
" />
<path d="M111.4478 83.1022
L111.3269 83.1627
" />
<path d="M111.3269 83.1627
L110.9035 83.1627
" />
<path d="M111.9921 82.5579
L112.7178 82.5579
" />
<path d="M112.3550 83.8279
L112.3550 82.5579
" />
<path d="M113.8064 83.8279
L113.0807 83.8279
" />
<path d="M113.4435 83.8279
L113.4435 82.5579
" />
<path d="M113.4435 82.5579
L113.3226 82.7394
" />
<path d="M113.3226 82.7394
L113.2016 82.8603
" />
<path d="M113.2016 82.8603
L113.0807 82.9208
" />
</g></g>
<g style="fill:none; 
stroke:#000000; stroke-width:0.2540; stroke-opacity:1; 
stroke-linecap:round; stroke-linejoin:round;">
<rect x="139.954000" y="90.170000" width="2.032000" height="5.080000" rx="0.000000" />
</g>
<g style="fill:none; 
stroke:#000000; stroke-width:0.1524; stroke-opacity:1; 
stroke-linecap:round; stroke-linejoin:round;">
<path d="M140.9700 90.1700
L140.9700 88.9000
" />
<path d="M140.9700 95.2500
L140.9700 96.5200
" />
<text x="144.8609" y="92.0750"
textLength="2.6827" font-size="1.6933" lengthAdjust="spacingAndGlyphs"
text-anchor="middle" opacity="0" stroke-opacity="0">R3</text>
<g class="stroked-text"><desc>R3</desc>
<path d="M144.6492 92.0195
L144.2259 91.4148
" />
<path d="M143.9235 92.0195
L143.9235 90.7495
" />
<path d="M143.9235 90.7495
L144.4073 90.7495
" />
<path d="M144.4073 90.7495
L144.5283 90.8100
" />
<path d="M144.5283 90.8100
L144.5888 90.8705
" />
<path d="M144.5888 90.8705
L144.6492 90.9914
" />
<path d="M144.6492 90.9914
L144.6492 91.1729
" />
<path d="M144.6492 91.1729
L144.5888 91.2938
" />
<path d="M144.5888 91.2938
L144.5283 91.3543
" />
<path d="M144.5283 91.3543
L144.4073 91.4148
" />
<path d="M144.4073 91.4148
L143.9235 91.4148
" />
<path d="M145.0726 90.7495
L145.8588 90.7495
" />
<path d="M145.8588 90.7495
L145.4354 91.2333
" />
<path d="M145.4354 91.2333
L145.6169 91.2333
" />
<path d="M145.6169 91.2333
L145.7378 91.2938
" />
<path d="M145.7378 91.2938
L145.7983 91.3543
" />
<path d="M145.7983 91.3543
L145.8588 91.4752
" />
<path d="M145.8588 91.4752
L145.8588 91.7776
" />
<path d="M145.8588 91.7776
L145.7983 91.8986
" />
<path d="M145.7983 91.8986
L145.7378 91.9591
" />
<path d="M145.7378 91.9591
L145.6169 92.0195
" />
<path d="M145.6169 92.0195
L145.2540 92.0195
" />
<path d="M145.2540 92.0195
L145.1331 91.9591
" />
<path d="M145.1331 91.9591
L145.0726 91.8986
" />
</g><text x="144.7400" y="94.6149"
textLength="2.4408" font-size="1.6933" lengthAdjust="spacingAndGlyphs"
text-anchor="middle" opacity="0" stroke-opacity="0">1k</text>
<g class="stroked-text"><desc>1k</desc>
<path d="M144.5888 94.5594
L143.8631 94.5594
" />
<path d="M144.2259 94.5594
L144.2259 93.2894
" />
<path d="M144.2259 93.2894
L144.1050 93.4709
" />
<path d="M144.1050 93.4709
L143.9840 93.5918
" />
<path d="M143.9840 93.5918
L143.8631 93.6523
" />
<path d="M145.1330 94.5594
L145.1330 93.2894
" />
<path d="M145.2540 94.0756
L145.6168 94.5594
" />
<path d="M145.6168 93.7128
L145.1330 94.1966
" />
</g><circle cx="132.5880" cy="83.8200" r="0.5080" /> 
<path style="fill:none; 
stroke:#000000; stroke-width:0.1524; stroke-opacity:1; 
stroke-linecap:round; stroke-linejoin:round;fill:none"
d="M 133.0960,83.5660
136.1440,82.0420
" /> 
<circle cx="136.6520" cy="83.8200" r="0.5080" /> 
<path d="M132.0800 83.8200
L129.5400 83.8200
" />
<path d="M137.1600 83.8200
L139.7000 83.8200
" />
<text x="134.6200" y="80.6450"
textLength="1.4127" font-size="1.6933" lengthAdjust="spacingAndGlyphs"
text-anchor="middle" opacity="0" stroke-opacity="0">S</text>
<g class="stroked-text"><desc>S</desc>
<path d="M134.2572 80.5291
L134.4386 80.5895
" />
<path d="M134.4386 80.5895
L134.7410 80.5895
" />
<path d="M134.7410 80.5895
L134.8619 80.5291
" />
<path d="M134.8619 80.5291
L134.9224 80.4686
" />
<path d="M134.9224 80.4686
L134.9829 80.3476
" />
<path d="M134.9829 80.3476
L134.9829 80.2267
" />
<path d="M134.9829 80.2267
L134.9224 80.1057
" />
<path d="M134.9224 80.1057
L134.8619 80.0452
" />
<path d="M134.8619 80.0452
L134.7410 79.9848
" />
<path d="M134.7410 79.9848
L134.4991 79.9243
" />
<path d="M134.4991 79.9243
L134.3781 79.8638
" />
<path d="M134.3781 79.8638
L134.3176 79.8033
" />
<path d="M134.3176 79.8033
L134.2572 79.6824
" />
<path d="M134.2572 79.6824
L134.2572 79.5614
" />
<path d="M134.2572 79.5614
L134.3176 79.4405
" />
<path d="M134.3176 79.4405
L134.3781 79.3800
" />
<path d="M134.3781 79.3800
L134.4991 79.3195
" />
<path d="M134.4991 79.3195
L134.8014 79.3195
" />
<path d="M134.8014 79.3195
L134.9829 79.3800
" />
</g><circle cx="199.8980" cy="83.8200" r="0.5080" /> 
<path style="fill:none; 
stroke:#000000; stroke-width:0.1524; stroke-opacity:1; 
stroke-linecap:round; stroke-linejoin:round;fill:none"
d="M 200.4060,83.5660
203.4540,82.0420
" /> 
<circle cx="203.9620" cy="83.8200" r="0.5080" /> 
<path d="M199.3900 83.8200
L196.8500 83.8200
" />
<path d="M204.4700 83.8200
L207.0100 83.8200
" />
<text x="201.9300" y="80.6450"
textLength="1.4127" font-size="1.6933" lengthAdjust="spacingAndGlyphs"
text-anchor="middle" opacity="0" stroke-opacity="0">S</text>
<g class="stroked-text"><desc>S</desc>
<path d="M201.5672 80.5291
L201.7486 80.5895
" />
<path d="M201.7486 80.5895
L202.0510 80.5895
" />
<path d="M202.0510 80.5895
L202.1719 80.5291
" />
<path d="M202.1719 80.5291
L202.2324 80.4686
" />
<path d="M202.2324 80.4686
L202.2929 80.3476
" />
<path d="M202.2929 80.3476
L202.2929 80.2267
" />
<path d="M202.2929 80.2267
L202.2324 80.1057
" />
<path d="M202.2324 80.1057
L202.1719 80.0452
" />
<path d="M202.1719 80.0452
L202.0510 79.9848
" />
<path d="M202.0510 79.9848
L201.8091 79.9243
" />
<path d="M201.8091 79.9243
L201.6881 79.8638
" />
<path d="M201.6881 79.8638
L201.6276 79.8033
" />
<path d="M201.6276 79.8033
L201.5672 79.6824
" />
<path d="M201.5672 79.6824
L201.5672 79.5614
" />
<path d="M201.5672 79.5614
L201.6276 79.4405
" />
<path d="M201.6276 79.4405
L201.6881 79.3800
" />
<path d="M201.6881 79.3800
L201.8091 79.3195
" />
<path d="M201.8091 79.3195
L202.1114 79.3195
" />
<path d="M202.1114 79.3195
L202.2929 79.3800
" />
</g><path style="fill:none; 
stroke:#000000; stroke-width:0.1524; stroke-opacity:1; 
stroke-linecap:round; stroke-linejoin:round;fill:none"
d="M 106.6800,100.3300
106.6800,101.6000
107.9500,101.6000
106.6800,102.8700
105.4100,101.6000
106.6800,101.6000
" /> 
<path d="M106.6800 100.3300
L106.6800 100.3300
" />
<text x="106.6800" y="106.0450"
textLength="4.0737" font-size="1.6933" lengthAdjust="spacingAndGlyphs"
text-anchor="middle" opacity="0" stroke-opacity="0">GND</text>
<g class="stroked-text"><desc>GND</desc>
<path d="M105.7124 104.7800
L105.5914 104.7195
" />
<path d="M105.5914 104.7195
L105.4100 104.7195
" />
<path d="M105.4100 104.7195
L105.2286 104.7800
" />
<path d="M105.2286 104.7800
L105.1076 104.9010
" />
<path d="M105.1076 104.9010
L105.0471 105.0219
" />
<path d="M105.0471 105.0219
L104.9867 105.2638
" />
<path d="M104.9867 105.2638
L104.9867 105.4452
" />
<path d="M104.9867 105.4452
L105.0471 105.6871
" />
<path d="M105.0471 105.6871
L105.1076 105.8081
" />
<path d="M105.1076 105.8081
L105.2286 105.9291
" />
<path d="M105.2286 105.9291
L105.4100 105.9895
" />
<path d="M105.4100 105.9895
L105.5309 105.9895
" />
<path d="M105.5309 105.9895
L105.7124 105.9291
" />
<path d="M105.7124 105.9291
L105.7728 105.8686
" />
<path d="M105.7728 105.8686
L105.7728 105.4452
" />
<path d="M105.7728 105.4452
L105.5309 105.4452
" />
<path d="M106.3171 105.9895
L106.3171 104.7195
" />
<path d="M106.3171 104.7195
L107.0428 105.9895
" />
<path d="M107.0428 105.9895
L107.0428 104.7195
" />
<path d="M107.6476 105.9895
L107.6476 104.7195
" />
<path d="M107.6476 104.7195
L107.9500 104.7195
" />
<path d="M107.9500 104.7195
L108.1314 104.7800
" />
<path d="M108.1314 104.7800
L108.2524 104.9010
" />
<path d="M108.2524 104.9010
L108.3129 105.0219
" />
<path d="M108.3129 105.0219
L108.3733 105.2638
" />
<path d="M108.3733 105.2638
L108.3733 105.4452
" />
<path d="M108.3733 105.4452
L108.3129 105.6871
" />
<path d="M108.3129 105.6871
L108.2524 105.8081
" />
<path d="M108.2524 105.8081
L108.1314 105.9291
" />
<path d="M108.1314 105.9291
L107.9500 105.9895
" />
<path d="M107.9500 105.9895
L107.6476 105.9895
" />
</g></g>
<g style="fill:none; 
stroke:#000000; stroke-width:0.2540; stroke-opacity:1; 
stroke-linecap:round; stroke-linejoin:round;">
<rect x="190.754000" y="72.390000" width="2.032000" height="5.080000" rx="0.000000" />
</g>
<g style="fill:none; 
stroke:#000000; stroke-width:0.1524; stroke-opacity:1; 
stroke-linecap:round; stroke-linejoin:round;">
<path d="M191.7700 72.3900
L191.7700 71.1200
" />
<path d="M191.7700 77.4700
L191.7700 78.7400
" />
<text x="195.6609" y="74.2950"
textLength="2.6827" font-size="1.6933" lengthAdjust="spacingAndGlyphs"
text-anchor="middle" opacity="0" stroke-opacity="0">R4</text>
<g class="stroked-text"><desc>R4</desc>
<path d="M195.4492 74.2395
L195.0259 73.6348
" />
<path d="M194.7235 74.2395
L194.7235 72.9695
" />
<path d="M194.7235 72.9695
L195.2073 72.9695
" />
<path d="M195.2073 72.9695
L195.3283 73.0300
" />
<path d="M195.3283 73.0300
L195.3888 73.0905
" />
<path d="M195.3888 73.0905
L195.4492 73.2114
" />
<path d="M195.4492 73.2114
L195.4492 73.3929
" />
<path d="M195.4492 73.3929
L195.3888 73.5138
" />
<path d="M195.3888 73.5138
L195.3283 73.5743
" />
<path d="M195.3283 73.5743
L195.2073 73.6348
" />
<path d="M195.2073 73.6348
L194.7235 73.6348
" />
<path d="M196.5378 73.3929
L196.5378 74.2395
" />
<path d="M196.2354 72.9091
L195.9331 73.8162
" />
<path d="M195.9331 73.8162
L196.7192 73.8162
" />
</g><text x="195.5400" y="76.8349"
textLength="2.4408" font-size="1.6933" lengthAdjust="spacingAndGlyphs"
text-anchor="middle" opacity="0" stroke-opacity="0">1k</text>
<g class="stroked-text"><desc>1k</desc>
<path d="M195.3888 76.7794
L194.6631 76.7794
" />
<path d="M195.0259 76.7794
L195.0259 75.5094
" />
<path d="M195.0259 75.5094
L194.9050 75.6909
" />
<path d="M194.9050 75.6909
L194.7840 75.8118
" />
<path d="M194.7840 75.8118
L194.6631 75.8723
" />
<path d="M195.9330 76.7794
L195.9330 75.5094
" />
<path d="M196.0540 76.2956
L196.4168 76.7794
" />
<path d="M196.4168 75.9328
L195.9330 76.4166
" />
</g></g>
<g style="fill:none; 
stroke:#000000; stroke-width:0.2540; stroke-opacity:1; 
stroke-linecap:round; stroke-linejoin:round;">
<circle cx="181.6100" cy="74.9300" r="2.5400" /> 
<path style="fill:none; 
stroke:#000000; stroke-width:0.1524; stroke-opacity:1; 
stroke-linecap:round; stroke-linejoin:round;fill:none"
d="M 181.8640,71.1200
182.3720,71.1200
" /> 
<path style="fill:none; 
stroke:#000000; stroke-width:0.1524; stroke-opacity:1; 
stroke-linecap:round; stroke-linejoin:round;fill:none"
d="M 182.1180,70.8660
182.1180,71.3740
" /> 
</g>
<g style="fill:none; 
stroke:#000000; stroke-width:0.1524; stroke-opacity:1; 
stroke-linecap:round; stroke-linejoin:round;">
<text x="181.6100" y="76.2000"
textLength="2.1263" font-size="3.3866" lengthAdjust="spacingAndGlyphs"
text-anchor="middle" opacity="0" stroke-opacity="0">V</text>
<g class="stroked-text"><desc>V</desc>
<path d="M180.7634 73.5570
L181.6100 76.0970
" />
<path d="M181.6100 76.0970
L182.4567 73.5570
" />
</g><path d="M181.6100 77.4700
L181.6100 80.0100
" />
<path d="M181.6100 72.3900
L181.6100 69.8500
" />
<text x="187.5874" y="76.3904"
textLength="4.3156" font-size="1.6933" lengthAdjust="spacingAndGlyphs"
text-anchor="middle" opacity="0" stroke-opacity="0">4,5V</text>
<g class="stroked-text"><desc>4,5V</desc>
<path d="M186.3778 75.4883
L186.3778 76.3349
" />
<path d="M186.0754 75.0045
L185.7731 75.9116
" />
<path d="M185.7731 75.9116
L186.5592 75.9116
" />
<path d="M187.1035 76.2745
L187.1035 76.3349
" />
<path d="M187.1035 76.3349
L187.0430 76.4559
" />
<path d="M187.0430 76.4559
L186.9826 76.5164
" />
<path d="M188.2526 75.0649
L187.6478 75.0649
" />
<path d="M187.6478 75.0649
L187.5874 75.6697
" />
<path d="M187.5874 75.6697
L187.6478 75.6092
" />
<path d="M187.6478 75.6092
L187.7688 75.5487
" />
<path d="M187.7688 75.5487
L188.0712 75.5487
" />
<path d="M188.0712 75.5487
L188.1921 75.6092
" />
<path d="M188.1921 75.6092
L188.2526 75.6697
" />
<path d="M188.2526 75.6697
L188.3131 75.7906
" />
<path d="M188.3131 75.7906
L188.3131 76.0930
" />
<path d="M188.3131 76.0930
L188.2526 76.2140
" />
<path d="M188.2526 76.2140
L188.1921 76.2745
" />
<path d="M188.1921 76.2745
L188.0712 76.3349
" />
<path d="M188.0712 76.3349
L187.7688 76.3349
" />
<path d="M187.7688 76.3349
L187.6478 76.2745
" />
<path d="M187.6478 76.2745
L187.5874 76.2140
" />
<path d="M188.6759 75.0649
L189.0992 76.3349
" />
<path d="M189.0992 76.3349
L189.5226 75.0649
" />
</g></g>
<g style="fill:none; 
stroke:#000000; stroke-width:0.2540; stroke-opacity:1; 
stroke-linecap:round; stroke-linejoin:round;">
<circle cx="156.2100" cy="83.8200" r="2.5400" /> 
<path style="fill:none; 
stroke:#000000; stroke-width:0.1524; stroke-opacity:1; 
stroke-linecap:round; stroke-linejoin:round;fill:none"
d="M 156.4640,80.0100
156.9720,80.0100
" /> 
<path style="fill:none; 
stroke:#000000; stroke-width:0.1524; stroke-opacity:1; 
stroke-linecap:round; stroke-linejoin:round;fill:none"
d="M 156.7180,79.7560
156.7180,80.2640
" /> 
</g>
<g style="fill:none; 
stroke:#000000; stroke-width:0.1524; stroke-opacity:1; 
stroke-linecap:round; stroke-linejoin:round;">
<text x="156.2100" y="85.0900"
textLength="2.1263" font-size="3.3866" lengthAdjust="spacingAndGlyphs"
text-anchor="middle" opacity="0" stroke-opacity="0">V</text>
<g class="stroked-text"><desc>V</desc>
<path d="M155.3634 82.4470
L156.2100 84.9870
" />
<path d="M156.2100 84.9870
L157.0567 82.4470
" />
</g><path d="M156.2100 86.3600
L156.2100 88.9000
" />
<path d="M156.2100 81.2800
L156.2100 78.7400
" />
<text x="161.2802" y="85.2804"
textLength="2.5013" font-size="1.6933" lengthAdjust="spacingAndGlyphs"
text-anchor="middle" opacity="0" stroke-opacity="0">9V</text>
<g class="stroked-text"><desc>9V</desc>
<path d="M160.4940 85.2249
L160.7359 85.2249
" />
<path d="M160.7359 85.2249
L160.8569 85.1645
" />
<path d="M160.8569 85.1645
L160.9173 85.1040
" />
<path d="M160.9173 85.1040
L161.0383 84.9225
" />
<path d="M161.0383 84.9225
L161.0988 84.6806
" />
<path d="M161.0988 84.6806
L161.0988 84.1968
" />
<path d="M161.0988 84.1968
L161.0383 84.0759
" />
<path d="M161.0383 84.0759
L160.9778 84.0154
" />
<path d="M160.9778 84.0154
L160.8569 83.9549
" />
<path d="M160.8569 83.9549
L160.6150 83.9549
" />
<path d="M160.6150 83.9549
L160.4940 84.0154
" />
<path d="M160.4940 84.0154
L160.4335 84.0759
" />
<path d="M160.4335 84.0759
L160.3731 84.1968
" />
<path d="M160.3731 84.1968
L160.3731 84.4992
" />
<path d="M160.3731 84.4992
L160.4335 84.6202
" />
<path d="M160.4335 84.6202
L160.4940 84.6806
" />
<path d="M160.4940 84.6806
L160.6150 84.7411
" />
<path d="M160.6150 84.7411
L160.8569 84.7411
" />
<path d="M160.8569 84.7411
L160.9778 84.6806
" />
<path d="M160.9778 84.6806
L161.0383 84.6202
" />
<path d="M161.0383 84.6202
L161.0988 84.4992
" />
<path d="M161.4616 83.9549
L161.8849 85.2249
" />
<path d="M161.8849 85.2249
L162.3083 83.9549
" />
</g></g>
<g style="fill:#000000; fill-opacity:1.0000; 
stroke:#000000; stroke-width:0.1524; stroke-opacity:1; 
stroke-linecap:round; stroke-linejoin:round;">
<rect x="164.084000" y="82.042000" width="4.572000" height="0.254000" rx="0.000000" />
<rect x="164.084000" y="85.090000" width="4.572000" height="0.254000" rx="0.000000" />
<rect x="164.846000" y="82.804000" width="3.048000" height="0.508000" rx="0.000000" />
<rect x="164.846000" y="85.852000" width="3.048000" height="0.508000" rx="0.000000" />
<path style="fill:none; 
stroke:#000000; stroke-width:0.1524; stroke-opacity:1; 
stroke-linecap:round; stroke-linejoin:round;fill:none"
d="M 166.3700,82.0420
166.3700,81.2800
" /> 
<path style="fill:none; 
stroke:#000000; stroke-width:0.1524; stroke-opacity:1; 
stroke-linecap:round; stroke-linejoin:round;fill:none"
d="M 166.3700,83.8200
166.3700,83.5660
" /> 
<path style="fill:none; 
stroke:#000000; stroke-width:0.1524; stroke-opacity:1; 
stroke-linecap:round; stroke-linejoin:round;fill:none"
d="M 166.3700,84.3280
166.3700,84.0740
" /> 
<path style="fill:none; 
stroke:#000000; stroke-width:0.1524; stroke-opacity:1; 
stroke-linecap:round; stroke-linejoin:round;fill:none"
d="M 166.3700,84.8360
166.3700,84.5820
" /> 
<path style="fill:none; 
stroke:#000000; stroke-width:0.2540; stroke-opacity:1; 
stroke-linecap:round; stroke-linejoin:round;fill:none"
d="M 167.1320,80.7720
168.1480,80.7720
" /> 
<path style="fill:none; 
stroke:#000000; stroke-width:0.2540; stroke-opacity:1; 
stroke-linecap:round; stroke-linejoin:round;fill:none"
d="M 167.6400,80.2640
167.6400,81.2800
" /> 
</g>
<g style="fill:none; 
stroke:#000000; stroke-width:0.1524; stroke-opacity:1; 
stroke-linecap:round; stroke-linejoin:round;">
<path d="M166.3700 81.2800
L166.3700 78.7400
" />
<path d="M166.3700 86.3600
L166.3700 88.9000
" />
<text x="172.0147" y="83.8834"
textLength="3.6503" font-size="1.6933" lengthAdjust="spacingAndGlyphs"
text-anchor="middle" opacity="0" stroke-opacity="0">BT2</text>
<g class="stroked-text"><desc>BT2</desc>
<path d="M171.0169 83.1627
L171.1983 83.2232
" />
<path d="M171.1983 83.2232
L171.2588 83.2836
" />
<path d="M171.2588 83.2836
L171.3192 83.4046
" />
<path d="M171.3192 83.4046
L171.3192 83.5860
" />
<path d="M171.3192 83.5860
L171.2588 83.7070
" />
<path d="M171.2588 83.7070
L171.1983 83.7675
" />
<path d="M171.1983 83.7675
L171.0773 83.8279
" />
<path d="M171.0773 83.8279
L170.5935 83.8279
" />
<path d="M170.5935 83.8279
L170.5935 82.5579
" />
<path d="M170.5935 82.5579
L171.0169 82.5579
" />
<path d="M171.0169 82.5579
L171.1378 82.6184
" />
<path d="M171.1378 82.6184
L171.1983 82.6789
" />
<path d="M171.1983 82.6789
L171.2588 82.7998
" />
<path d="M171.2588 82.7998
L171.2588 82.9208
" />
<path d="M171.2588 82.9208
L171.1983 83.0417
" />
<path d="M171.1983 83.0417
L171.1378 83.1022
" />
<path d="M171.1378 83.1022
L171.0169 83.1627
" />
<path d="M171.0169 83.1627
L170.5935 83.1627
" />
<path d="M171.6821 82.5579
L172.4078 82.5579
" />
<path d="M172.0450 83.8279
L172.0450 82.5579
" />
<path d="M172.7707 82.6789
L172.8311 82.6184
" />
<path d="M172.8311 82.6184
L172.9521 82.5579
" />
<path d="M172.9521 82.5579
L173.2545 82.5579
" />
<path d="M173.2545 82.5579
L173.3754 82.6184
" />
<path d="M173.3754 82.6184
L173.4359 82.6789
" />
<path d="M173.4359 82.6789
L173.4964 82.7998
" />
<path d="M173.4964 82.7998
L173.4964 82.9208
" />
<path d="M173.4964 82.9208
L173.4359 83.1022
" />
<path d="M173.4359 83.1022
L172.7102 83.8279
" />
<path d="M172.7102 83.8279
L173.4964 83.8279
" />
</g></g>
<g style="fill:none; 
stroke:#000000; stroke-width:0.2540; stroke-opacity:1; 
stroke-linecap:round; stroke-linejoin:round;">
<rect x="190.754000" y="90.170000" width="2.032000" height="5.080000" rx="0.000000" />
</g>
<g style="fill:none; 
stroke:#000000; stroke-width:0.1524; stroke-opacity:1; 
stroke-linecap:round; stroke-linejoin:round;">
<path d="M191.7700 90.1700
L191.7700 88.9000
" />
<path d="M191.7700 95.2500
L191.7700 96.5200
" />
<text x="195.6609" y="92.0750"
textLength="2.6827" font-size="1.6933" lengthAdjust="spacingAndGlyphs"
text-anchor="middle" opacity="0" stroke-opacity="0">R5</text>
<g class="stroked-text"><desc>R5</desc>
<path d="M195.4492 92.0195
L195.0259 91.4148
" />
<path d="M194.7235 92.0195
L194.7235 90.7495
" />
<path d="M194.7235 90.7495
L195.2073 90.7495
" />
<path d="M195.2073 90.7495
L195.3283 90.8100
" />
<path d="M195.3283 90.8100
L195.3888 90.8705
" />
<path d="M195.3888 90.8705
L195.4492 90.9914
" />
<path d="M195.4492 90.9914
L195.4492 91.1729
" />
<path d="M195.4492 91.1729
L195.3888 91.2938
" />
<path d="M195.3888 91.2938
L195.3283 91.3543
" />
<path d="M195.3283 91.3543
L195.2073 91.4148
" />
<path d="M195.2073 91.4148
L194.7235 91.4148
" />
<path d="M196.5983 90.7495
L195.9935 90.7495
" />
<path d="M195.9935 90.7495
L195.9331 91.3543
" />
<path d="M195.9331 91.3543
L195.9935 91.2938
" />
<path d="M195.9935 91.2938
L196.1145 91.2333
" />
<path d="M196.1145 91.2333
L196.4169 91.2333
" />
<path d="M196.4169 91.2333
L196.5378 91.2938
" />
<path d="M196.5378 91.2938
L196.5983 91.3543
" />
<path d="M196.5983 91.3543
L196.6588 91.4752
" />
<path d="M196.6588 91.4752
L196.6588 91.7776
" />
<path d="M196.6588 91.7776
L196.5983 91.8986
" />
<path d="M196.5983 91.8986
L196.5378 91.9591
" />
<path d="M196.5378 91.9591
L196.4169 92.0195
" />
<path d="M196.4169 92.0195
L196.1145 92.0195
" />
<path d="M196.1145 92.0195
L195.9935 91.9591
" />
<path d="M195.9935 91.9591
L195.9331 91.8986
" />
</g><text x="195.5400" y="94.6149"
textLength="2.4408" font-size="1.6933" lengthAdjust="spacingAndGlyphs"
text-anchor="middle" opacity="0" stroke-opacity="0">1k</text>
<g class="stroked-text"><desc>1k</desc>
<path d="M195.3888 94.5594
L194.6631 94.5594
" />
<path d="M195.0259 94.5594
L195.0259 93.2894
" />
<path d="M195.0259 93.2894
L194.9050 93.4709
" />
<path d="M194.9050 93.4709
L194.7840 93.5918
" />
<path d="M194.7840 93.5918
L194.6631 93.6523
" />
<path d="M195.9330 94.5594
L195.9330 93.2894
" />
<path d="M196.0540 94.0756
L196.4168 94.5594
" />
<path d="M196.4168 93.7128
L195.9330 94.1966
" />
</g></g>
<g style="fill:none; 
stroke:#000000; stroke-width:0.2540; stroke-opacity:1; 
stroke-linecap:round; stroke-linejoin:round;">
<circle cx="181.6100" cy="92.7100" r="2.5400" /> 
<path style="fill:none; 
stroke:#000000; stroke-width:0.1524; stroke-opacity:1; 
stroke-linecap:round; stroke-linejoin:round;fill:none"
d="M 181.8640,88.9000
182.3720,88.9000
" /> 
<path style="fill:none; 
stroke:#000000; stroke-width:0.1524; stroke-opacity:1; 
stroke-linecap:round; stroke-linejoin:round;fill:none"
d="M 182.1180,88.6460
182.1180,89.1540
" /> 
</g>
<g style="fill:none; 
stroke:#000000; stroke-width:0.1524; stroke-opacity:1; 
stroke-linecap:round; stroke-linejoin:round;">
<text x="181.6100" y="93.9800"
textLength="2.1263" font-size="3.3866" lengthAdjust="spacingAndGlyphs"
text-anchor="middle" opacity="0" stroke-opacity="0">V</text>
<g class="stroked-text"><desc>V</desc>
<path d="M180.7634 91.3370
L181.6100 93.8770
" />
<path d="M181.6100 93.8770
L182.4567 91.3370
" />
</g><path d="M181.6100 95.2500
L181.6100 97.7900
" />
<path d="M181.6100 90.1700
L181.6100 87.6300
" />
<text x="187.5874" y="92.6464"
textLength="4.3156" font-size="1.6933" lengthAdjust="spacingAndGlyphs"
text-anchor="middle" opacity="0" stroke-opacity="0">4,5V</text>
<g class="stroked-text"><desc>4,5V</desc>
<path d="M186.3778 91.7443
L186.3778 92.5909
" />
<path d="M186.0754 91.2605
L185.7731 92.1676
" />
<path d="M185.7731 92.1676
L186.5592 92.1676
" />
<path d="M187.1035 92.5305
L187.1035 92.5909
" />
<path d="M187.1035 92.5909
L187.0430 92.7119
" />
<path d="M187.0430 92.7119
L186.9826 92.7724
" />
<path d="M188.2526 91.3209
L187.6478 91.3209
" />
<path d="M187.6478 91.3209
L187.5874 91.9257
" />
<path d="M187.5874 91.9257
L187.6478 91.8652
" />
<path d="M187.6478 91.8652
L187.7688 91.8047
" />
<path d="M187.7688 91.8047
L188.0712 91.8047
" />
<path d="M188.0712 91.8047
L188.1921 91.8652
" />
<path d="M188.1921 91.8652
L188.2526 91.9257
" />
<path d="M188.2526 91.9257
L188.3131 92.0466
" />
<path d="M188.3131 92.0466
L188.3131 92.3490
" />
<path d="M188.3131 92.3490
L188.2526 92.4700
" />
<path d="M188.2526 92.4700
L188.1921 92.5305
" />
<path d="M188.1921 92.5305
L188.0712 92.5909
" />
<path d="M188.0712 92.5909
L187.7688 92.5909
" />
<path d="M187.7688 92.5909
L187.6478 92.5305
" />
<path d="M187.6478 92.5305
L187.5874 92.4700
" />
<path d="M188.6759 91.3209
L189.0992 92.5909
" />
<path d="M189.0992 92.5909
L189.5226 91.3209
" />
</g><path style="fill:none; 
stroke:#000000; stroke-width:0.1524; stroke-opacity:1; 
stroke-linecap:round; stroke-linejoin:round;fill:none"
d="M 166.3700,100.3300
166.3700,101.6000
167.6400,101.6000
166.3700,102.8700
165.1000,101.6000
166.3700,101.6000
" /> 
<path d="M166.3700 100.3300
L166.3700 100.3300
" />
<text x="166.3700" y="106.0450"
textLength="4.0737" font-size="1.6933" lengthAdjust="spacingAndGlyphs"
text-anchor="middle" opacity="0" stroke-opacity="0">GND</text>
<g class="stroked-text"><desc>GND</desc>
<path d="M165.4024 104.7800
L165.2814 104.7195
" />
<path d="M165.2814 104.7195
L165.1000 104.7195
" />
<path d="M165.1000 104.7195
L164.9186 104.7800
" />
<path d="M164.9186 104.7800
L164.7976 104.9010
" />
<path d="M164.7976 104.9010
L164.7371 105.0219
" />
<path d="M164.7371 105.0219
L164.6767 105.2638
" />
<path d="M164.6767 105.2638
L164.6767 105.4452
" />
<path d="M164.6767 105.4452
L164.7371 105.6871
" />
<path d="M164.7371 105.6871
L164.7976 105.8081
" />
<path d="M164.7976 105.8081
L164.9186 105.9291
" />
<path d="M164.9186 105.9291
L165.1000 105.9895
" />
<path d="M165.1000 105.9895
L165.2209 105.9895
" />
<path d="M165.2209 105.9895
L165.4024 105.9291
" />
<path d="M165.4024 105.9291
L165.4628 105.8686
" />
<path d="M165.4628 105.8686
L165.4628 105.4452
" />
<path d="M165.4628 105.4452
L165.2209 105.4452
" />
<path d="M166.0071 105.9895
L166.0071 104.7195
" />
<path d="M166.0071 104.7195
L166.7328 105.9895
" />
<path d="M166.7328 105.9895
L166.7328 104.7195
" />
<path d="M167.3376 105.9895
L167.3376 104.7195
" />
<path d="M167.3376 104.7195
L167.6400 104.7195
" />
<path d="M167.6400 104.7195
L167.8214 104.7800
" />
<path d="M167.8214 104.7800
L167.9424 104.9010
" />
<path d="M167.9424 104.9010
L168.0029 105.0219
" />
<path d="M168.0029 105.0219
L168.0633 105.2638
" />
<path d="M168.0633 105.2638
L168.0633 105.4452
" />
<path d="M168.0633 105.4452
L168.0029 105.6871
" />
<path d="M168.0029 105.6871
L167.9424 105.8081
" />
<path d="M167.9424 105.8081
L167.8214 105.9291
" />
<path d="M167.8214 105.9291
L167.6400 105.9895
" />
<path d="M167.6400 105.9895
L167.3376 105.9895
" />
</g></g>
<g style="fill:none; 
stroke:#000000; stroke-width:0.2540; stroke-opacity:1; 
stroke-linecap:round; stroke-linejoin:round;">
<rect x="207.264000" y="90.170000" width="2.032000" height="5.080000" rx="0.000000" />
</g>
<g style="fill:none; 
stroke:#000000; stroke-width:0.1524; stroke-opacity:1; 
stroke-linecap:round; stroke-linejoin:round;">
<path d="M208.2800 90.1700
L208.2800 88.9000
" />
<path d="M208.2800 95.2500
L208.2800 96.5200
" />
<text x="212.1709" y="92.0750"
textLength="2.6827" font-size="1.6933" lengthAdjust="spacingAndGlyphs"
text-anchor="middle" opacity="0" stroke-opacity="0">R6</text>
<g class="stroked-text"><desc>R6</desc>
<path d="M211.9592 92.0195
L211.5359 91.4148
" />
<path d="M211.2335 92.0195
L211.2335 90.7495
" />
<path d="M211.2335 90.7495
L211.7173 90.7495
" />
<path d="M211.7173 90.7495
L211.8383 90.8100
" />
<path d="M211.8383 90.8100
L211.8988 90.8705
" />
<path d="M211.8988 90.8705
L211.9592 90.9914
" />
<path d="M211.9592 90.9914
L211.9592 91.1729
" />
<path d="M211.9592 91.1729
L211.8988 91.2938
" />
<path d="M211.8988 91.2938
L211.8383 91.3543
" />
<path d="M211.8383 91.3543
L211.7173 91.4148
" />
<path d="M211.7173 91.4148
L211.2335 91.4148
" />
<path d="M213.0478 90.7495
L212.8059 90.7495
" />
<path d="M212.8059 90.7495
L212.6850 90.8100
" />
<path d="M212.6850 90.8100
L212.6245 90.8705
" />
<path d="M212.6245 90.8705
L212.5035 91.0519
" />
<path d="M212.5035 91.0519
L212.4431 91.2938
" />
<path d="M212.4431 91.2938
L212.4431 91.7776
" />
<path d="M212.4431 91.7776
L212.5035 91.8986
" />
<path d="M212.5035 91.8986
L212.5640 91.9591
" />
<path d="M212.5640 91.9591
L212.6850 92.0195
" />
<path d="M212.6850 92.0195
L212.9269 92.0195
" />
<path d="M212.9269 92.0195
L213.0478 91.9591
" />
<path d="M213.0478 91.9591
L213.1083 91.8986
" />
<path d="M213.1083 91.8986
L213.1688 91.7776
" />
<path d="M213.1688 91.7776
L213.1688 91.4752
" />
<path d="M213.1688 91.4752
L213.1083 91.3543
" />
<path d="M213.1083 91.3543
L213.0478 91.2938
" />
<path d="M213.0478 91.2938
L212.9269 91.2333
" />
<path d="M212.9269 91.2333
L212.6850 91.2333
" />
<path d="M212.6850 91.2333
L212.5640 91.2938
" />
<path d="M212.5640 91.2938
L212.5035 91.3543
" />
<path d="M212.5035 91.3543
L212.4431 91.4752
" />
</g><text x="212.0500" y="94.6149"
textLength="2.4408" font-size="1.6933" lengthAdjust="spacingAndGlyphs"
text-anchor="middle" opacity="0" stroke-opacity="0">1k</text>
<g class="stroked-text"><desc>1k</desc>
<path d="M211.8988 94.5594
L211.1731 94.5594
" />
<path d="M211.5359 94.5594
L211.5359 93.2894
" />
<path d="M211.5359 93.2894
L211.4150 93.4709
" />
<path d="M211.4150 93.4709
L211.2940 93.5918
" />
<path d="M211.2940 93.5918
L211.1731 93.6523
" />
<path d="M212.4430 94.5594
L212.4430 93.2894
" />
<path d="M212.5640 94.0756
L212.9268 94.5594
" />
<path d="M212.9268 93.7128
L212.4430 94.1966
" />
</g></g>
<g style="fill:none; 
stroke:#000000; stroke-width:0.1524; stroke-opacity:1; 
stroke-linecap:round; stroke-linejoin:round;">
<text x="193.0400" y="99.9807"
textLength="2.5013" font-size="1.6933" lengthAdjust="spacingAndGlyphs"
text-anchor="start" opacity="0" stroke-opacity="0">0V</text>
<g class="stroked-text"><desc>0V</desc>
<path d="M193.6844 98.5472
L193.8054 98.5472
" />
<path d="M193.8054 98.5472
L193.9263 98.6077
" />
<path d="M193.9263 98.6077
L193.9868 98.6682
" />
<path d="M193.9868 98.6682
L194.0473 98.7891
" />
<path d="M194.0473 98.7891
L194.1078 99.0310
" />
<path d="M194.1078 99.0310
L194.1078 99.3334
" />
<path d="M194.1078 99.3334
L194.0473 99.5753
" />
<path d="M194.0473 99.5753
L193.9868 99.6963
" />
<path d="M193.9868 99.6963
L193.9263 99.7568
" />
<path d="M193.9263 99.7568
L193.8054 99.8172
" />
<path d="M193.8054 99.8172
L193.6844 99.8172
" />
<path d="M193.6844 99.8172
L193.5635 99.7568
" />
<path d="M193.5635 99.7568
L193.5030 99.6963
" />
<path d="M193.5030 99.6963
L193.4425 99.5753
" />
<path d="M193.4425 99.5753
L193.3821 99.3334
" />
<path d="M193.3821 99.3334
L193.3821 99.0310
" />
<path d="M193.3821 99.0310
L193.4425 98.7891
" />
<path d="M193.4425 98.7891
L193.5030 98.6682
" />
<path d="M193.5030 98.6682
L193.5635 98.6077
" />
<path d="M193.5635 98.6077
L193.6844 98.5472
" />
<path d="M194.4706 98.5472
L194.8939 99.8172
" />
<path d="M194.8939 99.8172
L195.3173 98.5472
" />
</g></g>
<g style="fill:none; 
stroke:#000000; stroke-width:0.1524; stroke-opacity:1; 
stroke-linecap:round; stroke-linejoin:round;">
<text x="137.1600" y="99.9807"
textLength="2.5013" font-size="1.6933" lengthAdjust="spacingAndGlyphs"
text-anchor="start" opacity="0" stroke-opacity="0">0V</text>
<g class="stroked-text"><desc>0V</desc>
<path d="M137.8044 98.5472
L137.9254 98.5472
" />
<path d="M137.9254 98.5472
L138.0463 98.6077
" />
<path d="M138.0463 98.6077
L138.1068 98.6682
" />
<path d="M138.1068 98.6682
L138.1673 98.7891
" />
<path d="M138.1673 98.7891
L138.2278 99.0310
" />
<path d="M138.2278 99.0310
L138.2278 99.3334
" />
<path d="M138.2278 99.3334
L138.1673 99.5753
" />
<path d="M138.1673 99.5753
L138.1068 99.6963
" />
<path d="M138.1068 99.6963
L138.0463 99.7568
" />
<path d="M138.0463 99.7568
L137.9254 99.8172
" />
<path d="M137.9254 99.8172
L137.8044 99.8172
" />
<path d="M137.8044 99.8172
L137.6835 99.7568
" />
<path d="M137.6835 99.7568
L137.6230 99.6963
" />
<path d="M137.6230 99.6963
L137.5625 99.5753
" />
<path d="M137.5625 99.5753
L137.5021 99.3334
" />
<path d="M137.5021 99.3334
L137.5021 99.0310
" />
<path d="M137.5021 99.0310
L137.5625 98.7891
" />
<path d="M137.5625 98.7891
L137.6230 98.6682
" />
<path d="M137.6230 98.6682
L137.6835 98.6077
" />
<path d="M137.6835 98.6077
L137.8044 98.5472
" />
<path d="M138.5906 98.5472
L139.0139 99.8172
" />
<path d="M139.0139 99.8172
L139.4373 98.5472
" />
</g></g>
<g style="fill:none; 
stroke:#000000; stroke-width:0.1524; stroke-opacity:1; 
stroke-linecap:round; stroke-linejoin:round;">
<text x="106.6800" y="68.2307"
textLength="2.5013" font-size="1.6933" lengthAdjust="spacingAndGlyphs"
text-anchor="start" opacity="0" stroke-opacity="0">9V</text>
<g class="stroked-text"><desc>9V</desc>
<path d="M107.1430 68.0672
L107.3849 68.0672
" />
<path d="M107.3849 68.0672
L107.5059 68.0068
" />
<path d="M107.5059 68.0068
L107.5663 67.9463
" />
<path d="M107.5663 67.9463
L107.6873 67.7648
" />
<path d="M107.6873 67.7648
L107.7478 67.5229
" />
<path d="M107.7478 67.5229
L107.7478 67.0391
" />
<path d="M107.7478 67.0391
L107.6873 66.9182
" />
<path d="M107.6873 66.9182
L107.6268 66.8577
" />
<path d="M107.6268 66.8577
L107.5059 66.7972
" />
<path d="M107.5059 66.7972
L107.2640 66.7972
" />
<path d="M107.2640 66.7972
L107.1430 66.8577
" />
<path d="M107.1430 66.8577
L107.0825 66.9182
" />
<path d="M107.0825 66.9182
L107.0221 67.0391
" />
<path d="M107.0221 67.0391
L107.0221 67.3415
" />
<path d="M107.0221 67.3415
L107.0825 67.4625
" />
<path d="M107.0825 67.4625
L107.1430 67.5229
" />
<path d="M107.1430 67.5229
L107.2640 67.5834
" />
<path d="M107.2640 67.5834
L107.5059 67.5834
" />
<path d="M107.5059 67.5834
L107.6268 67.5229
" />
<path d="M107.6268 67.5229
L107.6873 67.4625
" />
<path d="M107.6873 67.4625
L107.7478 67.3415
" />
<path d="M108.1106 66.7972
L108.5339 68.0672
" />
<path d="M108.5339 68.0672
L108.9573 66.7972
" />
</g></g>
<g style="fill:none; 
stroke:#000000; stroke-width:0.1524; stroke-opacity:1; 
stroke-linecap:round; stroke-linejoin:round;">
<text x="191.7700" y="83.4707"
textLength="4.3156" font-size="1.6933" lengthAdjust="spacingAndGlyphs"
text-anchor="start" opacity="0" stroke-opacity="0">4,5V</text>
<g class="stroked-text"><desc>4,5V</desc>
<path d="M192.7168 82.4606
L192.7168 83.3072
" />
<path d="M192.4144 81.9768
L192.1121 82.8839
" />
<path d="M192.1121 82.8839
L192.8982 82.8839
" />
<path d="M193.4425 83.2468
L193.4425 83.3072
" />
<path d="M193.4425 83.3072
L193.3820 83.4282
" />
<path d="M193.3820 83.4282
L193.3216 83.4887
" />
<path d="M194.5916 82.0372
L193.9868 82.0372
" />
<path d="M193.9868 82.0372
L193.9264 82.6420
" />
<path d="M193.9264 82.6420
L193.9868 82.5815
" />
<path d="M193.9868 82.5815
L194.1078 82.5210
" />
<path d="M194.1078 82.5210
L194.4102 82.5210
" />
<path d="M194.4102 82.5210
L194.5311 82.5815
" />
<path d="M194.5311 82.5815
L194.5916 82.6420
" />
<path d="M194.5916 82.6420
L194.6521 82.7629
" />
<path d="M194.6521 82.7629
L194.6521 83.0653
" />
<path d="M194.6521 83.0653
L194.5916 83.1863
" />
<path d="M194.5916 83.1863
L194.5311 83.2468
" />
<path d="M194.5311 83.2468
L194.4102 83.3072
" />
<path d="M194.4102 83.3072
L194.1078 83.3072
" />
<path d="M194.1078 83.3072
L193.9868 83.2468
" />
<path d="M193.9868 83.2468
L193.9264 83.1863
" />
<path d="M195.0149 82.0372
L195.4382 83.3072
" />
<path d="M195.4382 83.3072
L195.8616 82.0372
" />
</g></g>
<g style="fill:none; 
stroke:#000000; stroke-width:0.1524; stroke-opacity:1; 
stroke-linecap:round; stroke-linejoin:round;">
<text x="140.9700" y="83.4707"
textLength="2.5013" font-size="1.6933" lengthAdjust="spacingAndGlyphs"
text-anchor="start" opacity="0" stroke-opacity="0">0V</text>
<g class="stroked-text"><desc>0V</desc>
<path d="M141.6144 82.0372
L141.7354 82.0372
" />
<path d="M141.7354 82.0372
L141.8563 82.0977
" />
<path d="M141.8563 82.0977
L141.9168 82.1582
" />
<path d="M141.9168 82.1582
L141.9773 82.2791
" />
<path d="M141.9773 82.2791
L142.0378 82.5210
" />
<path d="M142.0378 82.5210
L142.0378 82.8234
" />
<path d="M142.0378 82.8234
L141.9773 83.0653
" />
<path d="M141.9773 83.0653
L141.9168 83.1863
" />
<path d="M141.9168 83.1863
L141.8563 83.2468
" />
<path d="M141.8563 83.2468
L141.7354 83.3072
" />
<path d="M141.7354 83.3072
L141.6144 83.3072
" />
<path d="M141.6144 83.3072
L141.4935 83.2468
" />
<path d="M141.4935 83.2468
L141.4330 83.1863
" />
<path d="M141.4330 83.1863
L141.3725 83.0653
" />
<path d="M141.3725 83.0653
L141.3121 82.8234
" />
<path d="M141.3121 82.8234
L141.3121 82.5210
" />
<path d="M141.3121 82.5210
L141.3725 82.2791
" />
<path d="M141.3725 82.2791
L141.4330 82.1582
" />
<path d="M141.4330 82.1582
L141.4935 82.0977
" />
<path d="M141.4935 82.0977
L141.6144 82.0372
" />
<path d="M142.4006 82.0372
L142.8239 83.3072
" />
<path d="M142.8239 83.3072
L143.2473 82.0372
" />
</g></g>
<g style="fill:none; 
stroke:#000000; stroke-width:0.1524; stroke-opacity:1; 
stroke-linecap:round; stroke-linejoin:round;">
<text x="121.9200" y="68.2307"
textLength="2.5013" font-size="1.6933" lengthAdjust="spacingAndGlyphs"
text-anchor="start" opacity="0" stroke-opacity="0">9V</text>
<g class="stroked-text"><desc>9V</desc>
<path d="M122.3830 68.0672
L122.6249 68.0672
" />
<path d="M122.6249 68.0672
L122.7459 68.0068
" />
<path d="M122.7459 68.0068
L122.8063 67.9463
" />
<path d="M122.8063 67.9463
L122.9273 67.7648
" />
<path d="M122.9273 67.7648
L122.9878 67.5229
" />
<path d="M122.9878 67.5229
L122.9878 67.0391
" />
<path d="M122.9878 67.0391
L122.9273 66.9182
" />
<path d="M122.9273 66.9182
L122.8668 66.8577
" />
<path d="M122.8668 66.8577
L122.7459 66.7972
" />
<path d="M122.7459 66.7972
L122.5040 66.7972
" />
<path d="M122.5040 66.7972
L122.3830 66.8577
" />
<path d="M122.3830 66.8577
L122.3225 66.9182
" />
<path d="M122.3225 66.9182
L122.2621 67.0391
" />
<path d="M122.2621 67.0391
L122.2621 67.3415
" />
<path d="M122.2621 67.3415
L122.3225 67.4625
" />
<path d="M122.3225 67.4625
L122.3830 67.5229
" />
<path d="M122.3830 67.5229
L122.5040 67.5834
" />
<path d="M122.5040 67.5834
L122.7459 67.5834
" />
<path d="M122.7459 67.5834
L122.8668 67.5229
" />
<path d="M122.8668 67.5229
L122.9273 67.4625
" />
<path d="M122.9273 67.4625
L122.9878 67.3415
" />
<path d="M123.3506 66.7972
L123.7739 68.0672
" />
<path d="M123.7739 68.0672
L124.1973 66.7972
" />
</g></g>
<g style="fill:none; 
stroke:#000000; stroke-width:0.1524; stroke-opacity:1; 
stroke-linecap:round; stroke-linejoin:round;">
<text x="166.3700" y="99.9807"
textLength="2.5013" font-size="1.6933" lengthAdjust="spacingAndGlyphs"
text-anchor="start" opacity="0" stroke-opacity="0">0V</text>
<g class="stroked-text"><desc>0V</desc>
<path d="M167.0144 98.5472
L167.1354 98.5472
" />
<path d="M167.1354 98.5472
L167.2563 98.6077
" />
<path d="M167.2563 98.6077
L167.3168 98.6682
" />
<path d="M167.3168 98.6682
L167.3773 98.7891
" />
<path d="M167.3773 98.7891
L167.4378 99.0310
" />
<path d="M167.4378 99.0310
L167.4378 99.3334
" />
<path d="M167.4378 99.3334
L167.3773 99.5753
" />
<path d="M167.3773 99.5753
L167.3168 99.6963
" />
<path d="M167.3168 99.6963
L167.2563 99.7568
" />
<path d="M167.2563 99.7568
L167.1354 99.8172
" />
<path d="M167.1354 99.8172
L167.0144 99.8172
" />
<path d="M167.0144 99.8172
L166.8935 99.7568
" />
<path d="M166.8935 99.7568
L166.8330 99.6963
" />
<path d="M166.8330 99.6963
L166.7725 99.5753
" />
<path d="M166.7725 99.5753
L166.7121 99.3334
" />
<path d="M166.7121 99.3334
L166.7121 99.0310
" />
<path d="M166.7121 99.0310
L166.7725 98.7891
" />
<path d="M166.7725 98.7891
L166.8330 98.6682
" />
<path d="M166.8330 98.6682
L166.8935 98.6077
" />
<path d="M166.8935 98.6077
L167.0144 98.5472
" />
<path d="M167.8006 98.5472
L168.2239 99.8172
" />
<path d="M168.2239 99.8172
L168.6473 98.5472
" />
</g></g>
<g style="fill:none; 
stroke:#000000; stroke-width:0.1524; stroke-opacity:1; 
stroke-linecap:round; stroke-linejoin:round;">
<text x="106.6800" y="99.9807"
textLength="2.5013" font-size="1.6933" lengthAdjust="spacingAndGlyphs"
text-anchor="start" opacity="0" stroke-opacity="0">0V</text>
<g class="stroked-text"><desc>0V</desc>
<path d="M107.3244 98.5472
L107.4454 98.5472
" />
<path d="M107.4454 98.5472
L107.5663 98.6077
" />
<path d="M107.5663 98.6077
L107.6268 98.6682
" />
<path d="M107.6268 98.6682
L107.6873 98.7891
" />
<path d="M107.6873 98.7891
L107.7478 99.0310
" />
<path d="M107.7478 99.0310
L107.7478 99.3334
" />
<path d="M107.7478 99.3334
L107.6873 99.5753
" />
<path d="M107.6873 99.5753
L107.6268 99.6963
" />
<path d="M107.6268 99.6963
L107.5663 99.7568
" />
<path d="M107.5663 99.7568
L107.4454 99.8172
" />
<path d="M107.4454 99.8172
L107.3244 99.8172
" />
<path d="M107.3244 99.8172
L107.2035 99.7568
" />
<path d="M107.2035 99.7568
L107.1430 99.6963
" />
<path d="M107.1430 99.6963
L107.0825 99.5753
" />
<path d="M107.0825 99.5753
L107.0221 99.3334
" />
<path d="M107.0221 99.3334
L107.0221 99.0310
" />
<path d="M107.0221 99.0310
L107.0825 98.7891
" />
<path d="M107.0825 98.7891
L107.1430 98.6682
" />
<path d="M107.1430 98.6682
L107.2035 98.6077
" />
<path d="M107.2035 98.6077
L107.3244 98.5472
" />
<path d="M108.1106 98.5472
L108.5339 99.8172
" />
<path d="M108.5339 99.8172
L108.9573 98.5472
" />
</g></g>
<g style="fill:none; 
stroke:#000000; stroke-width:0.1524; stroke-opacity:1; 
stroke-linecap:round; stroke-linejoin:round;">
<text x="208.2800" y="83.4707"
textLength="2.5013" font-size="1.6933" lengthAdjust="spacingAndGlyphs"
text-anchor="start" opacity="0" stroke-opacity="0">0V</text>
<g class="stroked-text"><desc>0V</desc>
<path d="M208.9244 82.0372
L209.0454 82.0372
" />
<path d="M209.0454 82.0372
L209.1663 82.0977
" />
<path d="M209.1663 82.0977
L209.2268 82.1582
" />
<path d="M209.2268 82.1582
L209.2873 82.2791
" />
<path d="M209.2873 82.2791
L209.3478 82.5210
" />
<path d="M209.3478 82.5210
L209.3478 82.8234
" />
<path d="M209.3478 82.8234
L209.2873 83.0653
" />
<path d="M209.2873 83.0653
L209.2268 83.1863
" />
<path d="M209.2268 83.1863
L209.1663 83.2468
" />
<path d="M209.1663 83.2468
L209.0454 83.3072
" />
<path d="M209.0454 83.3072
L208.9244 83.3072
" />
<path d="M208.9244 83.3072
L208.8035 83.2468
" />
<path d="M208.8035 83.2468
L208.7430 83.1863
" />
<path d="M208.7430 83.1863
L208.6825 83.0653
" />
<path d="M208.6825 83.0653
L208.6221 82.8234
" />
<path d="M208.6221 82.8234
L208.6221 82.5210
" />
<path d="M208.6221 82.5210
L208.6825 82.2791
" />
<path d="M208.6825 82.2791
L208.7430 82.1582
" />
<path d="M208.7430 82.1582
L208.8035 82.0977
" />
<path d="M208.8035 82.0977
L208.9244 82.0372
" />
<path d="M209.7106 82.0372
L210.1339 83.3072
" />
<path d="M210.1339 83.3072
L210.5573 82.0372
" />
</g></g>
<g style="fill:none; 
stroke:#000000; stroke-width:0.1524; stroke-opacity:1; 
stroke-linecap:round; stroke-linejoin:round;">
<text x="124.4600" y="83.4707"
textLength="4.3156" font-size="1.6933" lengthAdjust="spacingAndGlyphs"
text-anchor="start" opacity="0" stroke-opacity="0">4,5V</text>
<g class="stroked-text"><desc>4,5V</desc>
<path d="M125.4068 82.4606
L125.4068 83.3072
" />
<path d="M125.1044 81.9768
L124.8021 82.8839
" />
<path d="M124.8021 82.8839
L125.5882 82.8839
" />
<path d="M126.1325 83.2468
L126.1325 83.3072
" />
<path d="M126.1325 83.3072
L126.0720 83.4282
" />
<path d="M126.0720 83.4282
L126.0116 83.4887
" />
<path d="M127.2816 82.0372
L126.6768 82.0372
" />
<path d="M126.6768 82.0372
L126.6164 82.6420
" />
<path d="M126.6164 82.6420
L126.6768 82.5815
" />
<path d="M126.6768 82.5815
L126.7978 82.5210
" />
<path d="M126.7978 82.5210
L127.1002 82.5210
" />
<path d="M127.1002 82.5210
L127.2211 82.5815
" />
<path d="M127.2211 82.5815
L127.2816 82.6420
" />
<path d="M127.2816 82.6420
L127.3421 82.7629
" />
<path d="M127.3421 82.7629
L127.3421 83.0653
" />
<path d="M127.3421 83.0653
L127.2816 83.1863
" />
<path d="M127.2816 83.1863
L127.2211 83.2468
" />
<path d="M127.2211 83.2468
L127.1002 83.3072
" />
<path d="M127.1002 83.3072
L126.7978 83.3072
" />
<path d="M126.7978 83.3072
L126.6768 83.2468
" />
<path d="M126.6768 83.2468
L126.6164 83.1863
" />
<path d="M127.7049 82.0372
L128.1282 83.3072
" />
<path d="M128.1282 83.3072
L128.5516 82.0372
" />
</g></g>
<g style="fill:none; 
stroke:#000000; stroke-width:0.1524; stroke-opacity:1; 
stroke-linecap:round; stroke-linejoin:round;">
<text x="189.2300" y="68.2307"
textLength="2.5013" font-size="1.6933" lengthAdjust="spacingAndGlyphs"
text-anchor="start" opacity="0" stroke-opacity="0">9V</text>
<g class="stroked-text"><desc>9V</desc>
<path d="M189.6930 68.0672
L189.9349 68.0672
" />
<path d="M189.9349 68.0672
L190.0559 68.0068
" />
<path d="M190.0559 68.0068
L190.1163 67.9463
" />
<path d="M190.1163 67.9463
L190.2373 67.7648
" />
<path d="M190.2373 67.7648
L190.2978 67.5229
" />
<path d="M190.2978 67.5229
L190.2978 67.0391
" />
<path d="M190.2978 67.0391
L190.2373 66.9182
" />
<path d="M190.2373 66.9182
L190.1768 66.8577
" />
<path d="M190.1768 66.8577
L190.0559 66.7972
" />
<path d="M190.0559 66.7972
L189.8140 66.7972
" />
<path d="M189.8140 66.7972
L189.6930 66.8577
" />
<path d="M189.6930 66.8577
L189.6325 66.9182
" />
<path d="M189.6325 66.9182
L189.5721 67.0391
" />
<path d="M189.5721 67.0391
L189.5721 67.3415
" />
<path d="M189.5721 67.3415
L189.6325 67.4625
" />
<path d="M189.6325 67.4625
L189.6930 67.5229
" />
<path d="M189.6930 67.5229
L189.8140 67.5834
" />
<path d="M189.8140 67.5834
L190.0559 67.5834
" />
<path d="M190.0559 67.5834
L190.1768 67.5229
" />
<path d="M190.1768 67.5229
L190.2373 67.4625
" />
<path d="M190.2373 67.4625
L190.2978 67.3415
" />
<path d="M190.6606 66.7972
L191.0839 68.0672
" />
<path d="M191.0839 68.0672
L191.5073 66.7972
" />
</g></g>
<g style="fill:none; 
stroke:#000000; stroke-width:0.1524; stroke-opacity:1; 
stroke-linecap:round; stroke-linejoin:round;">
<text x="204.4700" y="99.9807"
textLength="2.5013" font-size="1.6933" lengthAdjust="spacingAndGlyphs"
text-anchor="start" opacity="0" stroke-opacity="0">0V</text>
<g class="stroked-text"><desc>0V</desc>
<path d="M205.1144 98.5472
L205.2354 98.5472
" />
<path d="M205.2354 98.5472
L205.3563 98.6077
" />
<path d="M205.3563 98.6077
L205.4168 98.6682
" />
<path d="M205.4168 98.6682
L205.4773 98.7891
" />
<path d="M205.4773 98.7891
L205.5378 99.0310
" />
<path d="M205.5378 99.0310
L205.5378 99.3334
" />
<path d="M205.5378 99.3334
L205.4773 99.5753
" />
<path d="M205.4773 99.5753
L205.4168 99.6963
" />
<path d="M205.4168 99.6963
L205.3563 99.7568
" />
<path d="M205.3563 99.7568
L205.2354 99.8172
" />
<path d="M205.2354 99.8172
L205.1144 99.8172
" />
<path d="M205.1144 99.8172
L204.9935 99.7568
" />
<path d="M204.9935 99.7568
L204.9330 99.6963
" />
<path d="M204.9330 99.6963
L204.8725 99.5753
" />
<path d="M204.8725 99.5753
L204.8121 99.3334
" />
<path d="M204.8121 99.3334
L204.8121 99.0310
" />
<path d="M204.8121 99.0310
L204.8725 98.7891
" />
<path d="M204.8725 98.7891
L204.9330 98.6682
" />
<path d="M204.9330 98.6682
L204.9935 98.6077
" />
<path d="M204.9935 98.6077
L205.1144 98.5472
" />
<path d="M205.9006 98.5472
L206.3239 99.8172
" />
<path d="M206.3239 99.8172
L206.7473 98.5472
" />
</g></g>
<g style="fill:none; 
stroke:#000000; stroke-width:0.1524; stroke-opacity:1; 
stroke-linecap:round; stroke-linejoin:round;">
<text x="125.7300" y="99.9807"
textLength="2.5013" font-size="1.6933" lengthAdjust="spacingAndGlyphs"
text-anchor="start" opacity="0" stroke-opacity="0">0V</text>
<g class="stroked-text"><desc>0V</desc>
<path d="M126.3744 98.5472
L126.4954 98.5472
" />
<path d="M126.4954 98.5472
L126.6163 98.6077
" />
<path d="M126.6163 98.6077
L126.6768 98.6682
" />
<path d="M126.6768 98.6682
L126.7373 98.7891
" />
<path d="M126.7373 98.7891
L126.7978 99.0310
" />
<path d="M126.7978 99.0310
L126.7978 99.3334
" />
<path d="M126.7978 99.3334
L126.7373 99.5753
" />
<path d="M126.7373 99.5753
L126.6768 99.6963
" />
<path d="M126.6768 99.6963
L126.6163 99.7568
" />
<path d="M126.6163 99.7568
L126.4954 99.8172
" />
<path d="M126.4954 99.8172
L126.3744 99.8172
" />
<path d="M126.3744 99.8172
L126.2535 99.7568
" />
<path d="M126.2535 99.7568
L126.1930 99.6963
" />
<path d="M126.1930 99.6963
L126.1325 99.5753
" />
<path d="M126.1325 99.5753
L126.0721 99.3334
" />
<path d="M126.0721 99.3334
L126.0721 99.0310
" />
<path d="M126.0721 99.0310
L126.1325 98.7891
" />
<path d="M126.1325 98.7891
L126.1930 98.6682
" />
<path d="M126.1930 98.6682
L126.2535 98.6077
" />
<path d="M126.2535 98.6077
L126.3744 98.5472
" />
<path d="M127.1606 98.5472
L127.5839 99.8172
" />
<path d="M127.5839 99.8172
L128.0073 98.5472
" />
</g></g>
<g style="fill:none; 
stroke:#000000; stroke-width:0.1524; stroke-opacity:1; 
stroke-linecap:round; stroke-linejoin:round;">
<text x="166.3700" y="68.2307"
textLength="2.5013" font-size="1.6933" lengthAdjust="spacingAndGlyphs"
text-anchor="start" opacity="0" stroke-opacity="0">9V</text>
<g class="stroked-text"><desc>9V</desc>
<path d="M166.8330 68.0672
L167.0749 68.0672
" />
<path d="M167.0749 68.0672
L167.1959 68.0068
" />
<path d="M167.1959 68.0068
L167.2563 67.9463
" />
<path d="M167.2563 67.9463
L167.3773 67.7648
" />
<path d="M167.3773 67.7648
L167.4378 67.5229
" />
<path d="M167.4378 67.5229
L167.4378 67.0391
" />
<path d="M167.4378 67.0391
L167.3773 66.9182
" />
<path d="M167.3773 66.9182
L167.3168 66.8577
" />
<path d="M167.3168 66.8577
L167.1959 66.7972
" />
<path d="M167.1959 66.7972
L166.9540 66.7972
" />
<path d="M166.9540 66.7972
L166.8330 66.8577
" />
<path d="M166.8330 66.8577
L166.7725 66.9182
" />
<path d="M166.7725 66.9182
L166.7121 67.0391
" />
<path d="M166.7121 67.0391
L166.7121 67.3415
" />
<path d="M166.7121 67.3415
L166.7725 67.4625
" />
<path d="M166.7725 67.4625
L166.8330 67.5229
" />
<path d="M166.8330 67.5229
L166.9540 67.5834
" />
<path d="M166.9540 67.5834
L167.1959 67.5834
" />
<path d="M167.1959 67.5834
L167.3168 67.5229
" />
<path d="M167.3168 67.5229
L167.3773 67.4625
" />
<path d="M167.3773 67.4625
L167.4378 67.3415
" />
<path d="M167.8006 66.7972
L168.2239 68.0672
" />
<path d="M168.2239 68.0672
L168.6473 66.7972
" />
</g><path d="M217.1700 97.7900
L217.1700 100.3300
" />
<path d="M140.9700 100.3300
L140.9700 96.5200
" />
<path d="M124.4600 100.3300
L140.9700 100.3300
" />
<path d="M217.1700 100.3300
L208.2800 100.3300
" />
<path d="M124.4600 68.5800
L124.4600 71.1200
" />
<path d="M191.7700 78.7400
L191.7700 83.8200
" />
<path d="M208.2800 100.3300
L208.2800 96.5200
" />
<path d="M217.1700 83.8200
L208.2800 83.8200
" />
<path d="M191.7700 83.8200
L196.8500 83.8200
" />
<path d="M217.1700 87.6300
L217.1700 83.8200
" />
<path d="M208.2800 83.8200
L208.2800 88.9000
" />
<path d="M191.7700 83.8200
L191.7700 88.9000
" />
<path d="M207.0100 83.8200
L208.2800 83.8200
" />
<path d="M191.7700 100.3300
L208.2800 100.3300
" />
<path d="M191.7700 96.5200
L191.7700 100.3300
" />
<path d="M191.7700 68.5800
L191.7700 71.1200
" />
<path d="M181.6100 100.3300
L191.7700 100.3300
" />
<path d="M181.6100 83.8200
L191.7700 83.8200
" />
<path d="M181.6100 83.8200
L181.6100 87.6300
" />
<path d="M181.6100 80.0100
L181.6100 83.8200
" />
<path d="M166.3700 100.3300
L181.6100 100.3300
" />
<path d="M166.3700 88.9000
L166.3700 100.3300
" />
<path d="M156.2100 100.3300
L166.3700 100.3300
" />
<path d="M156.2100 88.9000
L156.2100 100.3300
" />
<path d="M181.6100 68.5800
L166.3700 68.5800
" />
<path d="M156.2100 68.5800
L166.3700 68.5800
" />
<path d="M156.2100 78.7400
L156.2100 68.5800
" />
<path d="M166.3700 68.5800
L166.3700 78.7400
" />
<path d="M124.4600 96.5200
L124.4600 100.3300
" />
<path d="M181.6100 68.5800
L191.7700 68.5800
" />
<path d="M181.6100 68.5800
L181.6100 69.8500
" />
<path d="M106.6800 100.3300
L124.4600 100.3300
" />
<path d="M106.6800 88.9000
L106.6800 100.3300
" />
<path d="M124.4600 83.8200
L129.5400 83.8200
" />
<path d="M139.7000 83.8200
L140.9700 83.8200
" />
<path d="M140.9700 83.8200
L140.9700 88.9000
" />
<path d="M106.6800 68.5800
L106.6800 78.7400
" />
<path d="M124.4600 68.5800
L106.6800 68.5800
" />
<path d="M181.6100 97.7900
L181.6100 100.3300
" />
<path d="M124.4600 78.7400
L124.4600 83.8200
" />
<path d="M124.4600 83.8200
L124.4600 88.9000
" />
<text x="134.6200" y="80.6450"
textLength="1.4127" font-size="1.6933" lengthAdjust="spacingAndGlyphs"
text-anchor="middle" opacity="0" stroke-opacity="0">S</text>
<g class="stroked-text"><desc>S</desc>
<path d="M134.2572 80.5291
L134.4386 80.5895
" />
<path d="M134.4386 80.5895
L134.7410 80.5895
" />
<path d="M134.7410 80.5895
L134.8619 80.5291
" />
<path d="M134.8619 80.5291
L134.9224 80.4686
" />
<path d="M134.9224 80.4686
L134.9829 80.3476
" />
<path d="M134.9829 80.3476
L134.9829 80.2267
" />
<path d="M134.9829 80.2267
L134.9224 80.1057
" />
<path d="M134.9224 80.1057
L134.8619 80.0452
" />
<path d="M134.8619 80.0452
L134.7410 79.9848
" />
<path d="M134.7410 79.9848
L134.4991 79.9243
" />
<path d="M134.4991 79.9243
L134.3781 79.8638
" />
<path d="M134.3781 79.8638
L134.3176 79.8033
" />
<path d="M134.3176 79.8033
L134.2572 79.6824
" />
<path d="M134.2572 79.6824
L134.2572 79.5614
" />
<path d="M134.2572 79.5614
L134.3176 79.4405
" />
<path d="M134.3176 79.4405
L134.3781 79.3800
" />
<path d="M134.3781 79.3800
L134.4991 79.3195
" />
<path d="M134.4991 79.3195
L134.8014 79.3195
" />
<path d="M134.8014 79.3195
L134.9829 79.3800
" />
</g><path d="M132.0800 83.8200
L129.5400 83.8200
" />
<path d="M137.1600 83.8200
L139.7000 83.8200
" />
<text x="128.3509" y="74.2950"
textLength="2.6827" font-size="1.6933" lengthAdjust="spacingAndGlyphs"
text-anchor="middle" opacity="0" stroke-opacity="0">R1</text>
<g class="stroked-text"><desc>R1</desc>
<path d="M128.1392 74.2395
L127.7159 73.6348
" />
<path d="M127.4135 74.2395
L127.4135 72.9695
" />
<path d="M127.4135 72.9695
L127.8973 72.9695
" />
<path d="M127.8973 72.9695
L128.0183 73.0300
" />
<path d="M128.0183 73.0300
L128.0788 73.0905
" />
<path d="M128.0788 73.0905
L128.1392 73.2114
" />
<path d="M128.1392 73.2114
L128.1392 73.3929
" />
<path d="M128.1392 73.3929
L128.0788 73.5138
" />
<path d="M128.0788 73.5138
L128.0183 73.5743
" />
<path d="M128.0183 73.5743
L127.8973 73.6348
" />
<path d="M127.8973 73.6348
L127.4135 73.6348
" />
<path d="M129.3488 74.2395
L128.6231 74.2395
" />
<path d="M128.9859 74.2395
L128.9859 72.9695
" />
<path d="M128.9859 72.9695
L128.8650 73.1510
" />
<path d="M128.8650 73.1510
L128.7440 73.2719
" />
<path d="M128.7440 73.2719
L128.6231 73.3324
" />
</g><text x="128.2300" y="76.8349"
textLength="2.4408" font-size="1.6933" lengthAdjust="spacingAndGlyphs"
text-anchor="middle" opacity="0" stroke-opacity="0">1k</text>
<g class="stroked-text"><desc>1k</desc>
<path d="M128.0788 76.7794
L127.3531 76.7794
" />
<path d="M127.7159 76.7794
L127.7159 75.5094
" />
<path d="M127.7159 75.5094
L127.5950 75.6909
" />
<path d="M127.5950 75.6909
L127.4740 75.8118
" />
<path d="M127.4740 75.8118
L127.3531 75.8723
" />
<path d="M128.6230 76.7794
L128.6230 75.5094
" />
<path d="M128.7440 76.2956
L129.1068 76.7794
" />
<path d="M129.1068 75.9328
L128.6230 76.4166
" />
</g><path d="M124.4600 72.3900
L124.4600 71.1200
" />
<path d="M124.4600 77.4700
L124.4600 78.7400
" />
<text x="201.9300" y="80.6450"
textLength="1.4127" font-size="1.6933" lengthAdjust="spacingAndGlyphs"
text-anchor="middle" opacity="0" stroke-opacity="0">S</text>
<g class="stroked-text"><desc>S</desc>
<path d="M201.5672 80.5291
L201.7486 80.5895
" />
<path d="M201.7486 80.5895
L202.0510 80.5895
" />
<path d="M202.0510 80.5895
L202.1719 80.5291
" />
<path d="M202.1719 80.5291
L202.2324 80.4686
" />
<path d="M202.2324 80.4686
L202.2929 80.3476
" />
<path d="M202.2929 80.3476
L202.2929 80.2267
" />
<path d="M202.2929 80.2267
L202.2324 80.1057
" />
<path d="M202.2324 80.1057
L202.1719 80.0452
" />
<path d="M202.1719 80.0452
L202.0510 79.9848
" />
<path d="M202.0510 79.9848
L201.8091 79.9243
" />
<path d="M201.8091 79.9243
L201.6881 79.8638
" />
<path d="M201.6881 79.8638
L201.6276 79.8033
" />
<path d="M201.6276 79.8033
L201.5672 79.6824
" />
<path d="M201.5672 79.6824
L201.5672 79.5614
" />
<path d="M201.5672 79.5614
L201.6276 79.4405
" />
<path d="M201.6276 79.4405
L201.6881 79.3800
" />
<path d="M201.6881 79.3800
L201.8091 79.3195
" />
<path d="M201.8091 79.3195
L202.1114 79.3195
" />
<path d="M202.1114 79.3195
L202.2929 79.3800
" />
</g><path d="M199.3900 83.8200
L196.8500 83.8200
" />
<path d="M204.4700 83.8200
L207.0100 83.8200
" />
<text x="195.6609" y="74.2950"
textLength="2.6827" font-size="1.6933" lengthAdjust="spacingAndGlyphs"
text-anchor="middle" opacity="0" stroke-opacity="0">R4</text>
<g class="stroked-text"><desc>R4</desc>
<path d="M195.4492 74.2395
L195.0259 73.6348
" />
<path d="M194.7235 74.2395
L194.7235 72.9695
" />
<path d="M194.7235 72.9695
L195.2073 72.9695
" />
<path d="M195.2073 72.9695
L195.3283 73.0300
" />
<path d="M195.3283 73.0300
L195.3888 73.0905
" />
<path d="M195.3888 73.0905
L195.4492 73.2114
" />
<path d="M195.4492 73.2114
L195.4492 73.3929
" />
<path d="M195.4492 73.3929
L195.3888 73.5138
" />
<path d="M195.3888 73.5138
L195.3283 73.5743
" />
<path d="M195.3283 73.5743
L195.2073 73.6348
" />
<path d="M195.2073 73.6348
L194.7235 73.6348
" />
<path d="M196.5378 73.3929
L196.5378 74.2395
" />
<path d="M196.2354 72.9091
L195.9331 73.8162
" />
<path d="M195.9331 73.8162
L196.7192 73.8162
" />
</g><text x="195.5400" y="76.8349"
textLength="2.4408" font-size="1.6933" lengthAdjust="spacingAndGlyphs"
text-anchor="middle" opacity="0" stroke-opacity="0">1k</text>
<g class="stroked-text"><desc>1k</desc>
<path d="M195.3888 76.7794
L194.6631 76.7794
" />
<path d="M195.0259 76.7794
L195.0259 75.5094
" />
<path d="M195.0259 75.5094
L194.9050 75.6909
" />
<path d="M194.9050 75.6909
L194.7840 75.8118
" />
<path d="M194.7840 75.8118
L194.6631 75.8723
" />
<path d="M195.9330 76.7794
L195.9330 75.5094
" />
<path d="M196.0540 76.2956
L196.4168 76.7794
" />
<path d="M196.4168 75.9328
L195.9330 76.4166
" />
</g><path d="M191.7700 72.3900
L191.7700 71.1200
" />
<path d="M191.7700 77.4700
L191.7700 78.7400
" />
</g>
<g style="fill:#000000; fill-opacity:1.0000; stroke:none;">
<circle cx="181.6100" cy="100.3300" r="0.4572" /> 
</g>
<g style="fill:#000000; fill-opacity:1.0000; stroke:none;">
<circle cx="181.6100" cy="83.8200" r="0.4572" /> 
</g>
<g style="fill:#000000; fill-opacity:1.0000; stroke:none;">
<circle cx="166.3700" cy="100.3300" r="0.4572" /> 
</g>
<g style="fill:#000000; fill-opacity:1.0000; stroke:none;">
<circle cx="166.3700" cy="68.5800" r="0.4572" /> 
</g>
<g style="fill:#000000; fill-opacity:1.0000; stroke:none;">
<circle cx="181.6100" cy="68.5800" r="0.4572" /> 
</g>
<g style="fill:#000000; fill-opacity:1.0000; stroke:none;">
<circle cx="106.6800" cy="100.3300" r="0.4572" /> 
</g>
<g style="fill:#000000; fill-opacity:1.0000; stroke:none;">
<circle cx="124.4600" cy="83.8200" r="0.4572" /> 
</g>
<g style="fill:#000000; fill-opacity:1.0000; stroke:none;">
<circle cx="124.4600" cy="100.3300" r="0.4572" /> 
</g>
<g style="fill:#000000; fill-opacity:1.0000; stroke:none;">
<circle cx="191.7700" cy="83.8200" r="0.4572" /> 
</g>
<g style="fill:#000000; fill-opacity:1.0000; stroke:none;">
<circle cx="191.7700" cy="100.3300" r="0.4572" /> 
</g>
<g style="fill:#000000; fill-opacity:1.0000; stroke:none;">
<circle cx="208.2800" cy="83.8200" r="0.4572" /> 
</g>
<g style="fill:#000000; fill-opacity:1.0000; stroke:none;">
<circle cx="208.2800" cy="100.3300" r="0.4572" /> 
</g> 
</svg>
