<?xml version="1.0" standalone="no"?>
 <!DOCTYPE svg PUBLIC "-//W3C//DTD SVG 1.1//EN" 
 "http://www.w3.org/Graphics/SVG/1.1/DTD/svg11.dtd"> 
<svg
  xmlns:svg="http://www.w3.org/2000/svg"
  xmlns="http://www.w3.org/2000/svg"
  xmlns:xlink="http://www.w3.org/1999/xlink"
  xmlns:inkscape="http://www.inkscape.org/namespaces/inkscape"
  version="1.1"
  width="297.0022mm" height="210.0072mm" viewBox="0.0000 0.0000 297.0022 210.0072">
<title>SVG Image created as Elektronika.svg date 2026-07-19T22:57:40 </title>
  <desc>Image generated by Eeschema-SVG </desc>
<g style="fill:#000000; fill-opacity:1.0000;stroke:#000000; stroke-opacity:1.0000;
stroke-linecap:round; stroke-linejoin:round;"
 transform="translate(0 0) scale(1 1)">
</g>
<g style="fill:none; 
stroke:#000000; stroke-width:0.2540; stroke-opacity:1; 
stroke-linecap:round; stroke-linejoin:round;">
<rect x="123.444000" y="88.900000" width="2.032000" height="5.080000" rx="0.000000" />
</g>
<g style="fill:none; 
stroke:#000000; stroke-width:0.1524; stroke-opacity:1; 
stroke-linecap:round; stroke-linejoin:round;">
<path d="M124.4600 88.9000
L124.4600 87.6300
" />
<path d="M124.4600 93.9800
L124.4600 95.2500
" />
<text x="128.3509" y="90.8049"
textLength="2.6827" font-size="1.6933" lengthAdjust="spacingAndGlyphs"
text-anchor="middle" opacity="0" stroke-opacity="0">R3</text>
<g class="stroked-text"><desc>R3</desc>
<path d="M128.1392 90.7494
L127.7159 90.1447
" />
<path d="M127.4135 90.7494
L127.4135 89.4794
" />
<path d="M127.4135 89.4794
L127.8973 89.4794
" />
<path d="M127.8973 89.4794
L128.0183 89.5399
" />
<path d="M128.0183 89.5399
L128.0788 89.6004
" />
<path d="M128.0788 89.6004
L128.1392 89.7213
" />
<path d="M128.1392 89.7213
L128.1392 89.9028
" />
<path d="M128.1392 89.9028
L128.0788 90.0237
" />
<path d="M128.0788 90.0237
L128.0183 90.0842
" />
<path d="M128.0183 90.0842
L127.8973 90.1447
" />
<path d="M127.8973 90.1447
L127.4135 90.1447
" />
<path d="M128.5626 89.4794
L129.3488 89.4794
" />
<path d="M129.3488 89.4794
L128.9254 89.9632
" />
<path d="M128.9254 89.9632
L129.1069 89.9632
" />
<path d="M129.1069 89.9632
L129.2278 90.0237
" />
<path d="M129.2278 90.0237
L129.2883 90.0842
" />
<path d="M129.2883 90.0842
L129.3488 90.2051
" />
<path d="M129.3488 90.2051
L129.3488 90.5075
" />
<path d="M129.3488 90.5075
L129.2883 90.6285
" />
<path d="M129.2883 90.6285
L129.2278 90.6890
" />
<path d="M129.2278 90.6890
L129.1069 90.7494
" />
<path d="M129.1069 90.7494
L128.7440 90.7494
" />
<path d="M128.7440 90.7494
L128.6231 90.6890
" />
<path d="M128.6231 90.6890
L128.5626 90.6285
" />
</g></g>
<g style="fill:#000000; fill-opacity:1.0000; 
stroke:#000000; stroke-width:0.1524; stroke-opacity:1; 
stroke-linecap:round; stroke-linejoin:round;">
<rect x="96.774000" y="82.042000" width="4.572000" height="0.254000" rx="0.000000" />
<rect x="96.774000" y="85.090000" width="4.572000" height="0.254000" rx="0.000000" />
<rect x="97.536000" y="82.804000" width="3.048000" height="0.508000" rx="0.000000" />
<rect x="97.536000" y="85.852000" width="3.048000" height="0.508000" rx="0.000000" />
<path style="fill:none; 
stroke:#000000; stroke-width:0.1524; stroke-opacity:1; 
stroke-linecap:round; stroke-linejoin:round;fill:none"
d="M 99.0600,82.0420
99.0600,81.2800
" /> 
<path style="fill:none; 
stroke:#000000; stroke-width:0.1524; stroke-opacity:1; 
stroke-linecap:round; stroke-linejoin:round;fill:none"
d="M 99.0600,83.8200
99.0600,83.5660
" /> 
<path style="fill:none; 
stroke:#000000; stroke-width:0.1524; stroke-opacity:1; 
stroke-linecap:round; stroke-linejoin:round;fill:none"
d="M 99.0600,84.3280
99.0600,84.0740
" /> 
<path style="fill:none; 
stroke:#000000; stroke-width:0.1524; stroke-opacity:1; 
stroke-linecap:round; stroke-linejoin:round;fill:none"
d="M 99.0600,84.8360
99.0600,84.5820
" /> 
<path style="fill:none; 
stroke:#000000; stroke-width:0.2540; stroke-opacity:1; 
stroke-linecap:round; stroke-linejoin:round;fill:none"
d="M 99.8220,80.7720
100.8380,80.7720
" /> 
<path style="fill:none; 
stroke:#000000; stroke-width:0.2540; stroke-opacity:1; 
stroke-linecap:round; stroke-linejoin:round;fill:none"
d="M 100.3300,80.2640
100.3300,81.2800
" /> 
</g>
<g style="fill:none; 
stroke:#000000; stroke-width:0.1524; stroke-opacity:1; 
stroke-linecap:round; stroke-linejoin:round;">
<path d="M99.0600 81.2800
L99.0600 78.7400
" />
<path d="M99.0600 86.3600
L99.0600 88.9000
" />
<text x="104.7047" y="82.6134"
textLength="3.6503" font-size="1.6933" lengthAdjust="spacingAndGlyphs"
text-anchor="middle" opacity="0" stroke-opacity="0">BT1</text>
<g class="stroked-text"><desc>BT1</desc>
<path d="M103.7069 81.8927
L103.8883 81.9532
" />
<path d="M103.8883 81.9532
L103.9488 82.0136
" />
<path d="M103.9488 82.0136
L104.0092 82.1346
" />
<path d="M104.0092 82.1346
L104.0092 82.3160
" />
<path d="M104.0092 82.3160
L103.9488 82.4370
" />
<path d="M103.9488 82.4370
L103.8883 82.4975
" />
<path d="M103.8883 82.4975
L103.7673 82.5579
" />
<path d="M103.7673 82.5579
L103.2835 82.5579
" />
<path d="M103.2835 82.5579
L103.2835 81.2879
" />
<path d="M103.2835 81.2879
L103.7069 81.2879
" />
<path d="M103.7069 81.2879
L103.8278 81.3484
" />
<path d="M103.8278 81.3484
L103.8883 81.4089
" />
<path d="M103.8883 81.4089
L103.9488 81.5298
" />
<path d="M103.9488 81.5298
L103.9488 81.6508
" />
<path d="M103.9488 81.6508
L103.8883 81.7717
" />
<path d="M103.8883 81.7717
L103.8278 81.8322
" />
<path d="M103.8278 81.8322
L103.7069 81.8927
" />
<path d="M103.7069 81.8927
L103.2835 81.8927
" />
<path d="M104.3721 81.2879
L105.0978 81.2879
" />
<path d="M104.7350 82.5579
L104.7350 81.2879
" />
<path d="M106.1864 82.5579
L105.4607 82.5579
" />
<path d="M105.8235 82.5579
L105.8235 81.2879
" />
<path d="M105.8235 81.2879
L105.7026 81.4694
" />
<path d="M105.7026 81.4694
L105.5816 81.5903
" />
<path d="M105.5816 81.5903
L105.4607 81.6508
" />
</g><circle cx="116.0780" cy="83.8200" r="0.5080" /> 
<path style="fill:none; 
stroke:#000000; stroke-width:0.1524; stroke-opacity:1; 
stroke-linecap:round; stroke-linejoin:round;fill:none"
d="M 116.5860,83.5660
119.6340,82.0420
" /> 
<circle cx="120.1420" cy="83.8200" r="0.5080" /> 
<path d="M115.5700 83.8200
L113.0300 83.8200
" />
<path d="M120.6500 83.8200
L123.1900 83.8200
" />
<text x="118.1100" y="80.6450"
textLength="1.4127" font-size="1.6933" lengthAdjust="spacingAndGlyphs"
text-anchor="middle" opacity="0" stroke-opacity="0">S</text>
<g class="stroked-text"><desc>S</desc>
<path d="M117.7472 80.5291
L117.9286 80.5895
" />
<path d="M117.9286 80.5895
L118.2310 80.5895
" />
<path d="M118.2310 80.5895
L118.3519 80.5291
" />
<path d="M118.3519 80.5291
L118.4124 80.4686
" />
<path d="M118.4124 80.4686
L118.4729 80.3476
" />
<path d="M118.4729 80.3476
L118.4729 80.2267
" />
<path d="M118.4729 80.2267
L118.4124 80.1057
" />
<path d="M118.4124 80.1057
L118.3519 80.0452
" />
<path d="M118.3519 80.0452
L118.2310 79.9848
" />
<path d="M118.2310 79.9848
L117.9891 79.9243
" />
<path d="M117.9891 79.9243
L117.8681 79.8638
" />
<path d="M117.8681 79.8638
L117.8076 79.8033
" />
<path d="M117.8076 79.8033
L117.7472 79.6824
" />
<path d="M117.7472 79.6824
L117.7472 79.5614
" />
<path d="M117.7472 79.5614
L117.8076 79.4405
" />
<path d="M117.8076 79.4405
L117.8681 79.3800
" />
<path d="M117.8681 79.3800
L117.9891 79.3195
" />
<path d="M117.9891 79.3195
L118.2914 79.3195
" />
<path d="M118.2914 79.3195
L118.4729 79.3800
" />
</g></g>
<g style="fill:none; 
stroke:#000000; stroke-width:0.2540; stroke-opacity:1; 
stroke-linecap:round; stroke-linejoin:round;">
<rect x="110.744000" y="88.900000" width="2.032000" height="5.080000" rx="0.000000" />
</g>
<g style="fill:none; 
stroke:#000000; stroke-width:0.1524; stroke-opacity:1; 
stroke-linecap:round; stroke-linejoin:round;">
<path d="M111.7600 88.9000
L111.7600 87.6300
" />
<path d="M111.7600 93.9800
L111.7600 95.2500
" />
<text x="115.6509" y="90.8049"
textLength="2.6827" font-size="1.6933" lengthAdjust="spacingAndGlyphs"
text-anchor="middle" opacity="0" stroke-opacity="0">R2</text>
<g class="stroked-text"><desc>R2</desc>
<path d="M115.4392 90.7494
L115.0159 90.1447
" />
<path d="M114.7135 90.7494
L114.7135 89.4794
" />
<path d="M114.7135 89.4794
L115.1973 89.4794
" />
<path d="M115.1973 89.4794
L115.3183 89.5399
" />
<path d="M115.3183 89.5399
L115.3788 89.6004
" />
<path d="M115.3788 89.6004
L115.4392 89.7213
" />
<path d="M115.4392 89.7213
L115.4392 89.9028
" />
<path d="M115.4392 89.9028
L115.3788 90.0237
" />
<path d="M115.3788 90.0237
L115.3183 90.0842
" />
<path d="M115.3183 90.0842
L115.1973 90.1447
" />
<path d="M115.1973 90.1447
L114.7135 90.1447
" />
<path d="M115.9231 89.6004
L115.9835 89.5399
" />
<path d="M115.9835 89.5399
L116.1045 89.4794
" />
<path d="M116.1045 89.4794
L116.4069 89.4794
" />
<path d="M116.4069 89.4794
L116.5278 89.5399
" />
<path d="M116.5278 89.5399
L116.5883 89.6004
" />
<path d="M116.5883 89.6004
L116.6488 89.7213
" />
<path d="M116.6488 89.7213
L116.6488 89.8423
" />
<path d="M116.6488 89.8423
L116.5883 90.0237
" />
<path d="M116.5883 90.0237
L115.8626 90.7494
" />
<path d="M115.8626 90.7494
L116.6488 90.7494
" />
</g></g>
<g style="fill:none; 
stroke:#000000; stroke-width:0.2540; stroke-opacity:1; 
stroke-linecap:round; stroke-linejoin:round;">
<rect x="110.744000" y="73.660000" width="2.032000" height="5.080000" rx="0.000000" />
</g>
<g style="fill:none; 
stroke:#000000; stroke-width:0.1524; stroke-opacity:1; 
stroke-linecap:round; stroke-linejoin:round;">
<path d="M111.7600 73.6600
L111.7600 72.3900
" />
<path d="M111.7600 78.7400
L111.7600 80.0100
" />
<text x="115.6509" y="75.5649"
textLength="2.6827" font-size="1.6933" lengthAdjust="spacingAndGlyphs"
text-anchor="middle" opacity="0" stroke-opacity="0">R1</text>
<g class="stroked-text"><desc>R1</desc>
<path d="M115.4392 75.5094
L115.0159 74.9047
" />
<path d="M114.7135 75.5094
L114.7135 74.2394
" />
<path d="M114.7135 74.2394
L115.1973 74.2394
" />
<path d="M115.1973 74.2394
L115.3183 74.2999
" />
<path d="M115.3183 74.2999
L115.3788 74.3604
" />
<path d="M115.3788 74.3604
L115.4392 74.4813
" />
<path d="M115.4392 74.4813
L115.4392 74.6628
" />
<path d="M115.4392 74.6628
L115.3788 74.7837
" />
<path d="M115.3788 74.7837
L115.3183 74.8442
" />
<path d="M115.3183 74.8442
L115.1973 74.9047
" />
<path d="M115.1973 74.9047
L114.7135 74.9047
" />
<path d="M116.6488 75.5094
L115.9231 75.5094
" />
<path d="M116.2859 75.5094
L116.2859 74.2394
" />
<path d="M116.2859 74.2394
L116.1650 74.4209
" />
<path d="M116.1650 74.4209
L116.0440 74.5418
" />
<path d="M116.0440 74.5418
L115.9231 74.6023
" />
</g><path d="M111.7600 95.2500
L111.7600 97.7900
" />
<path d="M124.4600 97.7900
L124.4600 95.2500
" />
<path d="M111.7600 97.7900
L124.4600 97.7900
" />
<path d="M111.7600 71.1200
L99.0600 71.1200
" />
<path d="M99.0600 71.1200
L99.0600 78.7400
" />
<path d="M111.7600 83.8200
L111.7600 87.6300
" />
<path d="M123.1900 83.8200
L124.4600 83.8200
" />
<path d="M124.4600 83.8200
L124.4600 87.6300
" />
<path d="M111.7600 83.8200
L113.0300 83.8200
" />
<path d="M111.7600 80.0100
L111.7600 83.8200
" />
<path d="M99.0600 88.9000
L99.0600 97.7900
" />
<path d="M99.0600 97.7900
L111.7600 97.7900
" />
<path d="M111.7600 72.3900
L111.7600 71.1200
" />
<text x="115.6509" y="75.5649"
textLength="2.6827" font-size="1.6933" lengthAdjust="spacingAndGlyphs"
text-anchor="middle" opacity="0" stroke-opacity="0">R1</text>
<g class="stroked-text"><desc>R1</desc>
<path d="M115.4392 75.5094
L115.0159 74.9047
" />
<path d="M114.7135 75.5094
L114.7135 74.2394
" />
<path d="M114.7135 74.2394
L115.1973 74.2394
" />
<path d="M115.1973 74.2394
L115.3183 74.2999
" />
<path d="M115.3183 74.2999
L115.3788 74.3604
" />
<path d="M115.3788 74.3604
L115.4392 74.4813
" />
<path d="M115.4392 74.4813
L115.4392 74.6628
" />
<path d="M115.4392 74.6628
L115.3788 74.7837
" />
<path d="M115.3788 74.7837
L115.3183 74.8442
" />
<path d="M115.3183 74.8442
L115.1973 74.9047
" />
<path d="M115.1973 74.9047
L114.7135 74.9047
" />
<path d="M116.6488 75.5094
L115.9231 75.5094
" />
<path d="M116.2859 75.5094
L116.2859 74.2394
" />
<path d="M116.2859 74.2394
L116.1650 74.4209
" />
<path d="M116.1650 74.4209
L116.0440 74.5418
" />
<path d="M116.0440 74.5418
L115.9231 74.6023
" />
</g><path d="M111.7600 73.6600
L111.7600 72.3900
" />
<path d="M111.7600 78.7400
L111.7600 80.0100
" />
<text x="118.1100" y="80.6450"
textLength="1.4127" font-size="1.6933" lengthAdjust="spacingAndGlyphs"
text-anchor="middle" opacity="0" stroke-opacity="0">S</text>
<g class="stroked-text"><desc>S</desc>
<path d="M117.7472 80.5291
L117.9286 80.5895
" />
<path d="M117.9286 80.5895
L118.2310 80.5895
" />
<path d="M118.2310 80.5895
L118.3519 80.5291
" />
<path d="M118.3519 80.5291
L118.4124 80.4686
" />
<path d="M118.4124 80.4686
L118.4729 80.3476
" />
<path d="M118.4729 80.3476
L118.4729 80.2267
" />
<path d="M118.4729 80.2267
L118.4124 80.1057
" />
<path d="M118.4124 80.1057
L118.3519 80.0452
" />
<path d="M118.3519 80.0452
L118.2310 79.9848
" />
<path d="M118.2310 79.9848
L117.9891 79.9243
" />
<path d="M117.9891 79.9243
L117.8681 79.8638
" />
<path d="M117.8681 79.8638
L117.8076 79.8033
" />
<path d="M117.8076 79.8033
L117.7472 79.6824
" />
<path d="M117.7472 79.6824
L117.7472 79.5614
" />
<path d="M117.7472 79.5614
L117.8076 79.4405
" />
<path d="M117.8076 79.4405
L117.8681 79.3800
" />
<path d="M117.8681 79.3800
L117.9891 79.3195
" />
<path d="M117.9891 79.3195
L118.2914 79.3195
" />
<path d="M118.2914 79.3195
L118.4729 79.3800
" />
</g><path d="M115.5700 83.8200
L113.0300 83.8200
" />
<path d="M120.6500 83.8200
L123.1900 83.8200
" />
</g>
<g style="fill:#000000; fill-opacity:1.0000; stroke:none;">
<circle cx="111.7600" cy="97.7900" r="0.4572" /> 
</g>
<g style="fill:#000000; fill-opacity:1.0000; stroke:none;">
<circle cx="111.7600" cy="83.8200" r="0.4572" /> 
</g> 
</svg>
