<?xml version="1.0" standalone="no"?>
 <!DOCTYPE svg PUBLIC "-//W3C//DTD SVG 1.1//EN" 
 "http://www.w3.org/Graphics/SVG/1.1/DTD/svg11.dtd"> 
<svg
  xmlns:svg="http://www.w3.org/2000/svg"
  xmlns="http://www.w3.org/2000/svg"
  xmlns:xlink="http://www.w3.org/1999/xlink"
  xmlns:inkscape="http://www.inkscape.org/namespaces/inkscape"
  version="1.1"
  width="297.0022mm" height="210.0072mm" viewBox="0.0000 0.0000 297.0022 210.0072">
<title>SVG Image created as Schematic.svg date 2026-07-22T10:46:29 </title>
  <desc>Image generated by Eeschema-SVG </desc>
<g style="fill:#000000; fill-opacity:1.0000;stroke:#000000; stroke-opacity:1.0000;
stroke-linecap:round; stroke-linejoin:round;"
 transform="translate(0 0) scale(1 1)">
<path style="fill:none; 
stroke:#000000; stroke-width:0.1524; stroke-opacity:1; 
stroke-linecap:round; stroke-linejoin:round;fill:none"
d="M 107.4420,92.2020
110.9980,95.7580
" /> 
</g>
<g style="fill:none; 
stroke:#000000; stroke-width:0.1524; stroke-opacity:1; 
stroke-linecap:round; stroke-linejoin:round;">
<circle cx="109.2200" cy="93.9800" r="2.5400" /> 
<path style="fill:none; 
stroke:#000000; stroke-width:0.1524; stroke-opacity:1; 
stroke-linecap:round; stroke-linejoin:round;fill:none"
d="M 110.9980,92.2020
107.4420,95.7580
" /> 
<path d="M109.2200 96.5200
L109.2200 99.0600
" />
<path d="M109.2200 91.4400
L109.2200 88.9000
" />
<text x="105.1160" y="92.8370"
textLength="2.4408" font-size="1.6933" lengthAdjust="spacingAndGlyphs"
text-anchor="middle" opacity="0" stroke-opacity="0">L1</text>
<g class="stroked-text"><desc>L1</desc>
<path d="M104.9043 92.7815
L104.2995 92.7815
" />
<path d="M104.2995 92.7815
L104.2995 91.5115
" />
<path d="M105.9929 92.7815
L105.2672 92.7815
" />
<path d="M105.6300 92.7815
L105.6300 91.5115
" />
<path d="M105.6300 91.5115
L105.5091 91.6930
" />
<path d="M105.5091 91.6930
L105.3881 91.8139
" />
<path d="M105.3881 91.8139
L105.2672 91.8744
" />
</g><text x="105.0736" y="94.6150"
textLength="2.8641" font-size="1.6933" lengthAdjust="spacingAndGlyphs"
text-anchor="middle" opacity="0" stroke-opacity="0">6W</text>
<g class="stroked-text"><desc>6W</desc>
<path d="M104.5898 93.2895
L104.3479 93.2895
" />
<path d="M104.3479 93.2895
L104.2270 93.3500
" />
<path d="M104.2270 93.3500
L104.1665 93.4105
" />
<path d="M104.1665 93.4105
L104.0455 93.5919
" />
<path d="M104.0455 93.5919
L103.9851 93.8338
" />
<path d="M103.9851 93.8338
L103.9851 94.3176
" />
<path d="M103.9851 94.3176
L104.0455 94.4386
" />
<path d="M104.0455 94.4386
L104.1060 94.4991
" />
<path d="M104.1060 94.4991
L104.2270 94.5595
" />
<path d="M104.2270 94.5595
L104.4689 94.5595
" />
<path d="M104.4689 94.5595
L104.5898 94.4991
" />
<path d="M104.5898 94.4991
L104.6503 94.4386
" />
<path d="M104.6503 94.4386
L104.7108 94.3176
" />
<path d="M104.7108 94.3176
L104.7108 94.0152
" />
<path d="M104.7108 94.0152
L104.6503 93.8943
" />
<path d="M104.6503 93.8943
L104.5898 93.8338
" />
<path d="M104.5898 93.8338
L104.4689 93.7733
" />
<path d="M104.4689 93.7733
L104.2270 93.7733
" />
<path d="M104.2270 93.7733
L104.1060 93.8338
" />
<path d="M104.1060 93.8338
L104.0455 93.8943
" />
<path d="M104.0455 93.8943
L103.9851 94.0152
" />
<path d="M105.1341 93.2895
L105.4365 94.5595
" />
<path d="M105.4365 94.5595
L105.6784 93.6524
" />
<path d="M105.6784 93.6524
L105.9203 94.5595
" />
<path d="M105.9203 94.5595
L106.2227 93.2895
" />
</g><text x="104.6480" y="96.3930"
textLength="4.0736" font-size="1.6933" lengthAdjust="spacingAndGlyphs"
text-anchor="middle" opacity="0" stroke-opacity="0">24Ω</text>
<g class="stroked-text"><desc>24Ω</desc>
<path d="M102.9547 95.1885
L103.0151 95.1280
" />
<path d="M103.0151 95.1280
L103.1361 95.0675
" />
<path d="M103.1361 95.0675
L103.4385 95.0675
" />
<path d="M103.4385 95.0675
L103.5594 95.1280
" />
<path d="M103.5594 95.1280
L103.6199 95.1885
" />
<path d="M103.6199 95.1885
L103.6804 95.3094
" />
<path d="M103.6804 95.3094
L103.6804 95.4304
" />
<path d="M103.6804 95.4304
L103.6199 95.6118
" />
<path d="M103.6199 95.6118
L102.8942 96.3375
" />
<path d="M102.8942 96.3375
L103.6804 96.3375
" />
<path d="M104.7689 95.4909
L104.7689 96.3375
" />
<path d="M104.4665 95.0071
L104.1642 95.9142
" />
<path d="M104.1642 95.9142
L104.9503 95.9142
" />
<path d="M105.3737 96.3375
L105.6760 96.3375
" />
<path d="M105.6760 96.3375
L105.6760 96.0956
" />
<path d="M105.6760 96.0956
L105.5551 96.0351
" />
<path d="M105.5551 96.0351
L105.4341 95.9142
" />
<path d="M105.4341 95.9142
L105.3737 95.7328
" />
<path d="M105.3737 95.7328
L105.3737 95.4304
" />
<path d="M105.3737 95.4304
L105.4341 95.2490
" />
<path d="M105.4341 95.2490
L105.5551 95.1280
" />
<path d="M105.5551 95.1280
L105.7365 95.0675
" />
<path d="M105.7365 95.0675
L105.9784 95.0675
" />
<path d="M105.9784 95.0675
L106.1598 95.1280
" />
<path d="M106.1598 95.1280
L106.2808 95.2490
" />
<path d="M106.2808 95.2490
L106.3413 95.4304
" />
<path d="M106.3413 95.4304
L106.3413 95.7328
" />
<path d="M106.3413 95.7328
L106.2808 95.9142
" />
<path d="M106.2808 95.9142
L106.1598 96.0351
" />
<path d="M106.1598 96.0351
L106.0389 96.0956
" />
<path d="M106.0389 96.0956
L106.0389 96.3375
" />
<path d="M106.0389 96.3375
L106.3413 96.3375
" />
</g></g>
<g style="fill:#000000; fill-opacity:1.0000; 
stroke:#000000; stroke-width:0.1524; stroke-opacity:1; 
stroke-linecap:round; stroke-linejoin:round;">
<rect x="124.714000" y="92.202000" width="4.572000" height="0.254000" rx="0.000000" />
<rect x="124.714000" y="95.250000" width="4.572000" height="0.254000" rx="0.000000" />
<rect x="125.476000" y="92.964000" width="3.048000" height="0.508000" rx="0.000000" />
<rect x="125.476000" y="96.012000" width="3.048000" height="0.508000" rx="0.000000" />
<path style="fill:none; 
stroke:#000000; stroke-width:0.1524; stroke-opacity:1; 
stroke-linecap:round; stroke-linejoin:round;fill:none"
d="M 127.0000,92.2020
127.0000,91.4400
" /> 
<path style="fill:none; 
stroke:#000000; stroke-width:0.1524; stroke-opacity:1; 
stroke-linecap:round; stroke-linejoin:round;fill:none"
d="M 127.0000,93.9800
127.0000,93.7260
" /> 
<path style="fill:none; 
stroke:#000000; stroke-width:0.1524; stroke-opacity:1; 
stroke-linecap:round; stroke-linejoin:round;fill:none"
d="M 127.0000,94.4880
127.0000,94.2340
" /> 
<path style="fill:none; 
stroke:#000000; stroke-width:0.1524; stroke-opacity:1; 
stroke-linecap:round; stroke-linejoin:round;fill:none"
d="M 127.0000,94.9960
127.0000,94.7420
" /> 
<path style="fill:none; 
stroke:#000000; stroke-width:0.2540; stroke-opacity:1; 
stroke-linecap:round; stroke-linejoin:round;fill:none"
d="M 127.7620,90.9320
128.7780,90.9320
" /> 
<path style="fill:none; 
stroke:#000000; stroke-width:0.2540; stroke-opacity:1; 
stroke-linecap:round; stroke-linejoin:round;fill:none"
d="M 128.2700,90.4240
128.2700,91.4400
" /> 
</g>
<g style="fill:none; 
stroke:#000000; stroke-width:0.1524; stroke-opacity:1; 
stroke-linecap:round; stroke-linejoin:round;">
<path d="M127.0000 91.4400
L127.0000 88.9000
" />
<path d="M127.0000 96.5200
L127.0000 99.0600
" />
<text x="132.6447" y="94.0434"
textLength="3.6503" font-size="1.6933" lengthAdjust="spacingAndGlyphs"
text-anchor="middle" opacity="0" stroke-opacity="0">BT2</text>
<g class="stroked-text"><desc>BT2</desc>
<path d="M131.6469 93.3227
L131.8283 93.3832
" />
<path d="M131.8283 93.3832
L131.8888 93.4436
" />
<path d="M131.8888 93.4436
L131.9492 93.5646
" />
<path d="M131.9492 93.5646
L131.9492 93.7460
" />
<path d="M131.9492 93.7460
L131.8888 93.8670
" />
<path d="M131.8888 93.8670
L131.8283 93.9275
" />
<path d="M131.8283 93.9275
L131.7073 93.9879
" />
<path d="M131.7073 93.9879
L131.2235 93.9879
" />
<path d="M131.2235 93.9879
L131.2235 92.7179
" />
<path d="M131.2235 92.7179
L131.6469 92.7179
" />
<path d="M131.6469 92.7179
L131.7678 92.7784
" />
<path d="M131.7678 92.7784
L131.8283 92.8389
" />
<path d="M131.8283 92.8389
L131.8888 92.9598
" />
<path d="M131.8888 92.9598
L131.8888 93.0808
" />
<path d="M131.8888 93.0808
L131.8283 93.2017
" />
<path d="M131.8283 93.2017
L131.7678 93.2622
" />
<path d="M131.7678 93.2622
L131.6469 93.3227
" />
<path d="M131.6469 93.3227
L131.2235 93.3227
" />
<path d="M132.3121 92.7179
L133.0378 92.7179
" />
<path d="M132.6750 93.9879
L132.6750 92.7179
" />
<path d="M133.4007 92.8389
L133.4611 92.7784
" />
<path d="M133.4611 92.7784
L133.5821 92.7179
" />
<path d="M133.5821 92.7179
L133.8845 92.7179
" />
<path d="M133.8845 92.7179
L134.0054 92.7784
" />
<path d="M134.0054 92.7784
L134.0659 92.8389
" />
<path d="M134.0659 92.8389
L134.1264 92.9598
" />
<path d="M134.1264 92.9598
L134.1264 93.0808
" />
<path d="M134.1264 93.0808
L134.0659 93.2622
" />
<path d="M134.0659 93.2622
L133.3402 93.9879
" />
<path d="M133.3402 93.9879
L134.1264 93.9879
" />
</g><text x="132.6750" y="95.8850"
textLength="3.7108" font-size="1.6933" lengthAdjust="spacingAndGlyphs"
text-anchor="middle" opacity="0" stroke-opacity="0">12V</text>
<g class="stroked-text"><desc>12V</desc>
<path d="M131.8888 95.8295
L131.1631 95.8295
" />
<path d="M131.5259 95.8295
L131.5259 94.5595
" />
<path d="M131.5259 94.5595
L131.4050 94.7410
" />
<path d="M131.4050 94.7410
L131.2840 94.8619
" />
<path d="M131.2840 94.8619
L131.1631 94.9224
" />
<path d="M132.3726 94.6805
L132.4330 94.6200
" />
<path d="M132.4330 94.6200
L132.5540 94.5595
" />
<path d="M132.5540 94.5595
L132.8564 94.5595
" />
<path d="M132.8564 94.5595
L132.9773 94.6200
" />
<path d="M132.9773 94.6200
L133.0378 94.6805
" />
<path d="M133.0378 94.6805
L133.0983 94.8014
" />
<path d="M133.0983 94.8014
L133.0983 94.9224
" />
<path d="M133.0983 94.9224
L133.0378 95.1038
" />
<path d="M133.0378 95.1038
L132.3121 95.8295
" />
<path d="M132.3121 95.8295
L133.0983 95.8295
" />
<path d="M133.4611 94.5595
L133.8844 95.8295
" />
<path d="M133.8844 95.8295
L134.3078 94.5595
" />
</g><path style="fill:none; 
stroke:#000000; stroke-width:0.1524; stroke-opacity:1; 
stroke-linecap:round; stroke-linejoin:round;fill:none"
d="M 127.0000,101.6000
127.0000,102.8700
128.2700,102.8700
127.0000,104.1400
125.7300,102.8700
127.0000,102.8700
" /> 
<path d="M127.0000 101.6000
L127.0000 101.6000
" />
<text x="127.0000" y="107.3150"
textLength="4.0737" font-size="1.6933" lengthAdjust="spacingAndGlyphs"
text-anchor="middle" opacity="0" stroke-opacity="0">GND</text>
<g class="stroked-text"><desc>GND</desc>
<path d="M126.0324 106.0500
L125.9114 105.9895
" />
<path d="M125.9114 105.9895
L125.7300 105.9895
" />
<path d="M125.7300 105.9895
L125.5486 106.0500
" />
<path d="M125.5486 106.0500
L125.4276 106.1710
" />
<path d="M125.4276 106.1710
L125.3671 106.2919
" />
<path d="M125.3671 106.2919
L125.3067 106.5338
" />
<path d="M125.3067 106.5338
L125.3067 106.7152
" />
<path d="M125.3067 106.7152
L125.3671 106.9571
" />
<path d="M125.3671 106.9571
L125.4276 107.0781
" />
<path d="M125.4276 107.0781
L125.5486 107.1991
" />
<path d="M125.5486 107.1991
L125.7300 107.2595
" />
<path d="M125.7300 107.2595
L125.8509 107.2595
" />
<path d="M125.8509 107.2595
L126.0324 107.1991
" />
<path d="M126.0324 107.1991
L126.0928 107.1386
" />
<path d="M126.0928 107.1386
L126.0928 106.7152
" />
<path d="M126.0928 106.7152
L125.8509 106.7152
" />
<path d="M126.6371 107.2595
L126.6371 105.9895
" />
<path d="M126.6371 105.9895
L127.3628 107.2595
" />
<path d="M127.3628 107.2595
L127.3628 105.9895
" />
<path d="M127.9676 107.2595
L127.9676 105.9895
" />
<path d="M127.9676 105.9895
L128.2700 105.9895
" />
<path d="M128.2700 105.9895
L128.4514 106.0500
" />
<path d="M128.4514 106.0500
L128.5724 106.1710
" />
<path d="M128.5724 106.1710
L128.6329 106.2919
" />
<path d="M128.6329 106.2919
L128.6933 106.5338
" />
<path d="M128.6933 106.5338
L128.6933 106.7152
" />
<path d="M128.6933 106.7152
L128.6329 106.9571
" />
<path d="M128.6329 106.9571
L128.5724 107.0781
" />
<path d="M128.5724 107.0781
L128.4514 107.1991
" />
<path d="M128.4514 107.1991
L128.2700 107.2595
" />
<path d="M128.2700 107.2595
L127.9676 107.2595
" />
</g></g>
<g style="fill:#000000; fill-opacity:1.0000; 
stroke:#000000; stroke-width:0.1524; stroke-opacity:1; 
stroke-linecap:round; stroke-linejoin:round;">
<rect x="81.534000" y="92.202000" width="4.572000" height="0.254000" rx="0.000000" />
<rect x="81.534000" y="95.250000" width="4.572000" height="0.254000" rx="0.000000" />
<rect x="82.296000" y="92.964000" width="3.048000" height="0.508000" rx="0.000000" />
<rect x="82.296000" y="96.012000" width="3.048000" height="0.508000" rx="0.000000" />
<path style="fill:none; 
stroke:#000000; stroke-width:0.1524; stroke-opacity:1; 
stroke-linecap:round; stroke-linejoin:round;fill:none"
d="M 83.8200,92.2020
83.8200,91.4400
" /> 
<path style="fill:none; 
stroke:#000000; stroke-width:0.1524; stroke-opacity:1; 
stroke-linecap:round; stroke-linejoin:round;fill:none"
d="M 83.8200,93.9800
83.8200,93.7260
" /> 
<path style="fill:none; 
stroke:#000000; stroke-width:0.1524; stroke-opacity:1; 
stroke-linecap:round; stroke-linejoin:round;fill:none"
d="M 83.8200,94.4880
83.8200,94.2340
" /> 
<path style="fill:none; 
stroke:#000000; stroke-width:0.1524; stroke-opacity:1; 
stroke-linecap:round; stroke-linejoin:round;fill:none"
d="M 83.8200,94.9960
83.8200,94.7420
" /> 
<path style="fill:none; 
stroke:#000000; stroke-width:0.2540; stroke-opacity:1; 
stroke-linecap:round; stroke-linejoin:round;fill:none"
d="M 84.5820,90.9320
85.5980,90.9320
" /> 
<path style="fill:none; 
stroke:#000000; stroke-width:0.2540; stroke-opacity:1; 
stroke-linecap:round; stroke-linejoin:round;fill:none"
d="M 85.0900,90.4240
85.0900,91.4400
" /> 
</g>
<g style="fill:none; 
stroke:#000000; stroke-width:0.1524; stroke-opacity:1; 
stroke-linecap:round; stroke-linejoin:round;">
<path d="M83.8200 91.4400
L83.8200 88.9000
" />
<path d="M83.8200 96.5200
L83.8200 99.0600
" />
<text x="89.4647" y="93.3450"
textLength="3.6503" font-size="1.6933" lengthAdjust="spacingAndGlyphs"
text-anchor="middle" opacity="0" stroke-opacity="0">BT1</text>
<g class="stroked-text"><desc>BT1</desc>
<path d="M88.4669 92.6243
L88.6483 92.6848
" />
<path d="M88.6483 92.6848
L88.7088 92.7452
" />
<path d="M88.7088 92.7452
L88.7692 92.8662
" />
<path d="M88.7692 92.8662
L88.7692 93.0476
" />
<path d="M88.7692 93.0476
L88.7088 93.1686
" />
<path d="M88.7088 93.1686
L88.6483 93.2291
" />
<path d="M88.6483 93.2291
L88.5273 93.2895
" />
<path d="M88.5273 93.2895
L88.0435 93.2895
" />
<path d="M88.0435 93.2895
L88.0435 92.0195
" />
<path d="M88.0435 92.0195
L88.4669 92.0195
" />
<path d="M88.4669 92.0195
L88.5878 92.0800
" />
<path d="M88.5878 92.0800
L88.6483 92.1405
" />
<path d="M88.6483 92.1405
L88.7088 92.2614
" />
<path d="M88.7088 92.2614
L88.7088 92.3824
" />
<path d="M88.7088 92.3824
L88.6483 92.5033
" />
<path d="M88.6483 92.5033
L88.5878 92.5638
" />
<path d="M88.5878 92.5638
L88.4669 92.6243
" />
<path d="M88.4669 92.6243
L88.0435 92.6243
" />
<path d="M89.1321 92.0195
L89.8578 92.0195
" />
<path d="M89.4950 93.2895
L89.4950 92.0195
" />
<path d="M90.9464 93.2895
L90.2207 93.2895
" />
<path d="M90.5835 93.2895
L90.5835 92.0195
" />
<path d="M90.5835 92.0195
L90.4626 92.2010
" />
<path d="M90.4626 92.2010
L90.3416 92.3219
" />
<path d="M90.3416 92.3219
L90.2207 92.3824
" />
</g><text x="89.4950" y="95.3134"
textLength="3.7108" font-size="1.6933" lengthAdjust="spacingAndGlyphs"
text-anchor="middle" opacity="0" stroke-opacity="0">12V</text>
<g class="stroked-text"><desc>12V</desc>
<path d="M88.7088 95.2579
L87.9831 95.2579
" />
<path d="M88.3459 95.2579
L88.3459 93.9879
" />
<path d="M88.3459 93.9879
L88.2250 94.1694
" />
<path d="M88.2250 94.1694
L88.1040 94.2903
" />
<path d="M88.1040 94.2903
L87.9831 94.3508
" />
<path d="M89.1926 94.1089
L89.2530 94.0484
" />
<path d="M89.2530 94.0484
L89.3740 93.9879
" />
<path d="M89.3740 93.9879
L89.6764 93.9879
" />
<path d="M89.6764 93.9879
L89.7973 94.0484
" />
<path d="M89.7973 94.0484
L89.8578 94.1089
" />
<path d="M89.8578 94.1089
L89.9183 94.2298
" />
<path d="M89.9183 94.2298
L89.9183 94.3508
" />
<path d="M89.9183 94.3508
L89.8578 94.5322
" />
<path d="M89.8578 94.5322
L89.1321 95.2579
" />
<path d="M89.1321 95.2579
L89.9183 95.2579
" />
<path d="M90.2811 93.9879
L90.7044 95.2579
" />
<path d="M90.7044 95.2579
L91.1278 93.9879
" />
</g><circle cx="94.4880" cy="85.0900" r="0.5080" /> 
<path style="fill:none; 
stroke:#000000; stroke-width:0.1524; stroke-opacity:1; 
stroke-linecap:round; stroke-linejoin:round;fill:none"
d="M 94.9960,84.8360
98.8611,84.4500
" /> 
<circle cx="98.5520" cy="85.0900" r="0.5080" /> 
<path d="M93.9800 85.0900
L91.4400 85.0900
" />
<path d="M99.0600 85.0900
L101.6000 85.0900
" />
<text x="96.5200" y="81.9150"
textLength="2.6222" font-size="1.6933" lengthAdjust="spacingAndGlyphs"
text-anchor="middle" opacity="0" stroke-opacity="0">S1</text>
<g class="stroked-text"><desc>S1</desc>
<path d="M95.5524 81.7991
L95.7338 81.8595
" />
<path d="M95.7338 81.8595
L96.0362 81.8595
" />
<path d="M96.0362 81.8595
L96.1571 81.7991
" />
<path d="M96.1571 81.7991
L96.2176 81.7386
" />
<path d="M96.2176 81.7386
L96.2781 81.6176
" />
<path d="M96.2781 81.6176
L96.2781 81.4967
" />
<path d="M96.2781 81.4967
L96.2176 81.3757
" />
<path d="M96.2176 81.3757
L96.1571 81.3152
" />
<path d="M96.1571 81.3152
L96.0362 81.2548
" />
<path d="M96.0362 81.2548
L95.7943 81.1943
" />
<path d="M95.7943 81.1943
L95.6733 81.1338
" />
<path d="M95.6733 81.1338
L95.6128 81.0733
" />
<path d="M95.6128 81.0733
L95.5524 80.9524
" />
<path d="M95.5524 80.9524
L95.5524 80.8314
" />
<path d="M95.5524 80.8314
L95.6128 80.7105
" />
<path d="M95.6128 80.7105
L95.6733 80.6500
" />
<path d="M95.6733 80.6500
L95.7943 80.5895
" />
<path d="M95.7943 80.5895
L96.0966 80.5895
" />
<path d="M96.0966 80.5895
L96.2781 80.6500
" />
<path d="M97.4876 81.8595
L96.7619 81.8595
" />
<path d="M97.1247 81.8595
L97.1247 80.5895
" />
<path d="M97.1247 80.5895
L97.0038 80.7710
" />
<path d="M97.0038 80.7710
L96.8828 80.8919
" />
<path d="M96.8828 80.8919
L96.7619 80.9524
" />
</g><path style="fill:none; 
stroke:#000000; stroke-width:0.1524; stroke-opacity:1; 
stroke-linecap:round; stroke-linejoin:round;fill:none"
d="M 83.8200,101.6000
83.8200,102.8700
85.0900,102.8700
83.8200,104.1400
82.5500,102.8700
83.8200,102.8700
" /> 
<path d="M83.8200 101.6000
L83.8200 101.6000
" />
<text x="83.8200" y="107.3150"
textLength="4.0737" font-size="1.6933" lengthAdjust="spacingAndGlyphs"
text-anchor="middle" opacity="0" stroke-opacity="0">GND</text>
<g class="stroked-text"><desc>GND</desc>
<path d="M82.8524 106.0500
L82.7314 105.9895
" />
<path d="M82.7314 105.9895
L82.5500 105.9895
" />
<path d="M82.5500 105.9895
L82.3686 106.0500
" />
<path d="M82.3686 106.0500
L82.2476 106.1710
" />
<path d="M82.2476 106.1710
L82.1871 106.2919
" />
<path d="M82.1871 106.2919
L82.1267 106.5338
" />
<path d="M82.1267 106.5338
L82.1267 106.7152
" />
<path d="M82.1267 106.7152
L82.1871 106.9571
" />
<path d="M82.1871 106.9571
L82.2476 107.0781
" />
<path d="M82.2476 107.0781
L82.3686 107.1991
" />
<path d="M82.3686 107.1991
L82.5500 107.2595
" />
<path d="M82.5500 107.2595
L82.6709 107.2595
" />
<path d="M82.6709 107.2595
L82.8524 107.1991
" />
<path d="M82.8524 107.1991
L82.9128 107.1386
" />
<path d="M82.9128 107.1386
L82.9128 106.7152
" />
<path d="M82.9128 106.7152
L82.6709 106.7152
" />
<path d="M83.4571 107.2595
L83.4571 105.9895
" />
<path d="M83.4571 105.9895
L84.1828 107.2595
" />
<path d="M84.1828 107.2595
L84.1828 105.9895
" />
<path d="M84.7876 107.2595
L84.7876 105.9895
" />
<path d="M84.7876 105.9895
L85.0900 105.9895
" />
<path d="M85.0900 105.9895
L85.2714 106.0500
" />
<path d="M85.2714 106.0500
L85.3924 106.1710
" />
<path d="M85.3924 106.1710
L85.4529 106.2919
" />
<path d="M85.4529 106.2919
L85.5133 106.5338
" />
<path d="M85.5133 106.5338
L85.5133 106.7152
" />
<path d="M85.5133 106.7152
L85.4529 106.9571
" />
<path d="M85.4529 106.9571
L85.3924 107.0781
" />
<path d="M85.3924 107.0781
L85.2714 107.1991
" />
<path d="M85.2714 107.1991
L85.0900 107.2595
" />
<path d="M85.0900 107.2595
L84.7876 107.2595
" />
</g><circle cx="137.6680" cy="85.0900" r="0.5080" /> 
<path style="fill:none; 
stroke:#000000; stroke-width:0.1524; stroke-opacity:1; 
stroke-linecap:round; stroke-linejoin:round;fill:none"
d="M 138.1760,84.8360
142.0411,84.4500
" /> 
<circle cx="141.7320" cy="85.0900" r="0.5080" /> 
<path d="M137.1600 85.0900
L134.6200 85.0900
" />
<path d="M142.2400 85.0900
L144.7800 85.0900
" />
<text x="139.7000" y="81.9150"
textLength="2.6222" font-size="1.6933" lengthAdjust="spacingAndGlyphs"
text-anchor="middle" opacity="0" stroke-opacity="0">S2</text>
<g class="stroked-text"><desc>S2</desc>
<path d="M138.7324 81.7991
L138.9138 81.8595
" />
<path d="M138.9138 81.8595
L139.2162 81.8595
" />
<path d="M139.2162 81.8595
L139.3371 81.7991
" />
<path d="M139.3371 81.7991
L139.3976 81.7386
" />
<path d="M139.3976 81.7386
L139.4581 81.6176
" />
<path d="M139.4581 81.6176
L139.4581 81.4967
" />
<path d="M139.4581 81.4967
L139.3976 81.3757
" />
<path d="M139.3976 81.3757
L139.3371 81.3152
" />
<path d="M139.3371 81.3152
L139.2162 81.2548
" />
<path d="M139.2162 81.2548
L138.9743 81.1943
" />
<path d="M138.9743 81.1943
L138.8533 81.1338
" />
<path d="M138.8533 81.1338
L138.7928 81.0733
" />
<path d="M138.7928 81.0733
L138.7324 80.9524
" />
<path d="M138.7324 80.9524
L138.7324 80.8314
" />
<path d="M138.7324 80.8314
L138.7928 80.7105
" />
<path d="M138.7928 80.7105
L138.8533 80.6500
" />
<path d="M138.8533 80.6500
L138.9743 80.5895
" />
<path d="M138.9743 80.5895
L139.2766 80.5895
" />
<path d="M139.2766 80.5895
L139.4581 80.6500
" />
<path d="M139.9419 80.7105
L140.0023 80.6500
" />
<path d="M140.0023 80.6500
L140.1233 80.5895
" />
<path d="M140.1233 80.5895
L140.4257 80.5895
" />
<path d="M140.4257 80.5895
L140.5466 80.6500
" />
<path d="M140.5466 80.6500
L140.6071 80.7105
" />
<path d="M140.6071 80.7105
L140.6676 80.8314
" />
<path d="M140.6676 80.8314
L140.6676 80.9524
" />
<path d="M140.6676 80.9524
L140.6071 81.1338
" />
<path d="M140.6071 81.1338
L139.8814 81.8595
" />
<path d="M139.8814 81.8595
L140.6676 81.8595
" />
</g><path style="fill:none; 
stroke:#000000; stroke-width:0.1524; stroke-opacity:1; 
stroke-linecap:round; stroke-linejoin:round;fill:none"
d="M 150.6220,92.2020
154.1780,95.7580
" /> 
<circle cx="152.4000" cy="93.9800" r="2.5400" /> 
<path style="fill:none; 
stroke:#000000; stroke-width:0.1524; stroke-opacity:1; 
stroke-linecap:round; stroke-linejoin:round;fill:none"
d="M 154.1780,92.2020
150.6220,95.7580
" /> 
<path d="M152.4000 96.5200
L152.4000 99.0600
" />
<path d="M152.4000 91.4400
L152.4000 88.9000
" />
<text x="148.2960" y="92.8370"
textLength="2.4408" font-size="1.6933" lengthAdjust="spacingAndGlyphs"
text-anchor="middle" opacity="0" stroke-opacity="0">L2</text>
<g class="stroked-text"><desc>L2</desc>
<path d="M148.0843 92.7815
L147.4795 92.7815
" />
<path d="M147.4795 92.7815
L147.4795 91.5115
" />
<path d="M148.4472 91.6325
L148.5076 91.5720
" />
<path d="M148.5076 91.5720
L148.6286 91.5115
" />
<path d="M148.6286 91.5115
L148.9310 91.5115
" />
<path d="M148.9310 91.5115
L149.0519 91.5720
" />
<path d="M149.0519 91.5720
L149.1124 91.6325
" />
<path d="M149.1124 91.6325
L149.1729 91.7534
" />
<path d="M149.1729 91.7534
L149.1729 91.8744
" />
<path d="M149.1729 91.8744
L149.1124 92.0558
" />
<path d="M149.1124 92.0558
L148.3867 92.7815
" />
<path d="M148.3867 92.7815
L149.1729 92.7815
" />
</g><text x="148.2536" y="94.6150"
textLength="2.8641" font-size="1.6933" lengthAdjust="spacingAndGlyphs"
text-anchor="middle" opacity="0" stroke-opacity="0">2W</text>
<g class="stroked-text"><desc>2W</desc>
<path d="M147.1651 93.4105
L147.2255 93.3500
" />
<path d="M147.2255 93.3500
L147.3465 93.2895
" />
<path d="M147.3465 93.2895
L147.6489 93.2895
" />
<path d="M147.6489 93.2895
L147.7698 93.3500
" />
<path d="M147.7698 93.3500
L147.8303 93.4105
" />
<path d="M147.8303 93.4105
L147.8908 93.5314
" />
<path d="M147.8908 93.5314
L147.8908 93.6524
" />
<path d="M147.8908 93.6524
L147.8303 93.8338
" />
<path d="M147.8303 93.8338
L147.1046 94.5595
" />
<path d="M147.1046 94.5595
L147.8908 94.5595
" />
<path d="M148.3141 93.2895
L148.6165 94.5595
" />
<path d="M148.6165 94.5595
L148.8584 93.6524
" />
<path d="M148.8584 93.6524
L149.1003 94.5595
" />
<path d="M149.1003 94.5595
L149.4027 93.2895
" />
</g><text x="147.8280" y="96.6470"
textLength="4.0736" font-size="1.6933" lengthAdjust="spacingAndGlyphs"
text-anchor="middle" opacity="0" stroke-opacity="0">72Ω</text>
<g class="stroked-text"><desc>72Ω</desc>
<path d="M146.0742 95.3215
L146.9208 95.3215
" />
<path d="M146.9208 95.3215
L146.3766 96.5915
" />
<path d="M147.3442 95.4425
L147.4046 95.3820
" />
<path d="M147.4046 95.3820
L147.5256 95.3215
" />
<path d="M147.5256 95.3215
L147.8280 95.3215
" />
<path d="M147.8280 95.3215
L147.9489 95.3820
" />
<path d="M147.9489 95.3820
L148.0094 95.4425
" />
<path d="M148.0094 95.4425
L148.0699 95.5634
" />
<path d="M148.0699 95.5634
L148.0699 95.6844
" />
<path d="M148.0699 95.6844
L148.0094 95.8658
" />
<path d="M148.0094 95.8658
L147.2837 96.5915
" />
<path d="M147.2837 96.5915
L148.0699 96.5915
" />
<path d="M148.5537 96.5915
L148.8560 96.5915
" />
<path d="M148.8560 96.5915
L148.8560 96.3496
" />
<path d="M148.8560 96.3496
L148.7351 96.2891
" />
<path d="M148.7351 96.2891
L148.6141 96.1682
" />
<path d="M148.6141 96.1682
L148.5537 95.9868
" />
<path d="M148.5537 95.9868
L148.5537 95.6844
" />
<path d="M148.5537 95.6844
L148.6141 95.5030
" />
<path d="M148.6141 95.5030
L148.7351 95.3820
" />
<path d="M148.7351 95.3820
L148.9165 95.3215
" />
<path d="M148.9165 95.3215
L149.1584 95.3215
" />
<path d="M149.1584 95.3215
L149.3398 95.3820
" />
<path d="M149.3398 95.3820
L149.4608 95.5030
" />
<path d="M149.4608 95.5030
L149.5213 95.6844
" />
<path d="M149.5213 95.6844
L149.5213 95.9868
" />
<path d="M149.5213 95.9868
L149.4608 96.1682
" />
<path d="M149.4608 96.1682
L149.3398 96.2891
" />
<path d="M149.3398 96.2891
L149.2189 96.3496
" />
<path d="M149.2189 96.3496
L149.2189 96.5915
" />
<path d="M149.2189 96.5915
L149.5213 96.5915
" />
</g><path d="M127.0000 85.0900
L134.6200 85.0900
" />
<path d="M83.8200 101.6000
L109.2200 101.6000
" />
<path d="M109.2200 99.0600
L109.2200 101.6000
" />
<path d="M83.8200 88.9000
L83.8200 85.0900
" />
<path d="M83.8200 99.0600
L83.8200 101.6000
" />
<path d="M83.8200 85.0900
L91.4400 85.0900
" />
<path d="M127.0000 101.6000
L152.4000 101.6000
" />
<path d="M127.0000 99.0600
L127.0000 101.6000
" />
<path d="M144.7800 85.0900
L152.4000 85.0900
" />
<path d="M152.4000 85.0900
L152.4000 88.9000
" />
<path d="M109.2200 85.0900
L109.2200 88.9000
" />
<path d="M127.0000 88.9000
L127.0000 85.0900
" />
<path d="M152.4000 99.0600
L152.4000 101.6000
" />
<path d="M101.6000 85.0900
L109.2200 85.0900
" />
</g>
<g style="fill:none; 
stroke:#000000; stroke-width:0.1524; stroke-opacity:1; 
stroke-linecap:round; stroke-linejoin:round;">
<text x="154.6860" y="87.7610"
textLength="3.7108" font-size="1.6933" lengthAdjust="spacingAndGlyphs"
text-anchor="middle" opacity="0" stroke-opacity="0">12V</text>
<g class="stroked-text"><desc>12V</desc>
<path d="M153.8998 87.7055
L153.1741 87.7055
" />
<path d="M153.5369 87.7055
L153.5369 86.4355
" />
<path d="M153.5369 86.4355
L153.4160 86.6170
" />
<path d="M153.4160 86.6170
L153.2950 86.7379
" />
<path d="M153.2950 86.7379
L153.1741 86.7984
" />
<path d="M154.3836 86.5565
L154.4440 86.4960
" />
<path d="M154.4440 86.4960
L154.5650 86.4355
" />
<path d="M154.5650 86.4355
L154.8674 86.4355
" />
<path d="M154.8674 86.4355
L154.9883 86.4960
" />
<path d="M154.9883 86.4960
L155.0488 86.5565
" />
<path d="M155.0488 86.5565
L155.1093 86.6774
" />
<path d="M155.1093 86.6774
L155.1093 86.7984
" />
<path d="M155.1093 86.7984
L155.0488 86.9798
" />
<path d="M155.0488 86.9798
L154.3231 87.7055
" />
<path d="M154.3231 87.7055
L155.1093 87.7055
" />
<path d="M155.4721 86.4355
L155.8954 87.7055
" />
<path d="M155.8954 87.7055
L156.3188 86.4355
" />
</g></g>
<g style="fill:none; 
stroke:#000000; stroke-width:0.1524; stroke-opacity:1; 
stroke-linecap:round; stroke-linejoin:round;">
<text x="124.9680" y="90.5550"
textLength="3.7108" font-size="1.6933" lengthAdjust="spacingAndGlyphs"
text-anchor="middle" opacity="0" stroke-opacity="0">12V</text>
<g class="stroked-text"><desc>12V</desc>
<path d="M124.1818 90.4995
L123.4561 90.4995
" />
<path d="M123.8189 90.4995
L123.8189 89.2295
" />
<path d="M123.8189 89.2295
L123.6980 89.4110
" />
<path d="M123.6980 89.4110
L123.5770 89.5319
" />
<path d="M123.5770 89.5319
L123.4561 89.5924
" />
<path d="M124.6656 89.3505
L124.7260 89.2900
" />
<path d="M124.7260 89.2900
L124.8470 89.2295
" />
<path d="M124.8470 89.2295
L125.1494 89.2295
" />
<path d="M125.1494 89.2295
L125.2703 89.2900
" />
<path d="M125.2703 89.2900
L125.3308 89.3505
" />
<path d="M125.3308 89.3505
L125.3913 89.4714
" />
<path d="M125.3913 89.4714
L125.3913 89.5924
" />
<path d="M125.3913 89.5924
L125.3308 89.7738
" />
<path d="M125.3308 89.7738
L124.6051 90.4995
" />
<path d="M124.6051 90.4995
L125.3913 90.4995
" />
<path d="M125.7541 89.2295
L126.1774 90.4995
" />
<path d="M126.1774 90.4995
L126.6008 89.2295
" />
</g></g>
<g style="fill:none; 
stroke:#000000; stroke-width:0.1524; stroke-opacity:1; 
stroke-linecap:round; stroke-linejoin:round;">
<text x="110.7440" y="100.9690"
textLength="2.5013" font-size="1.6933" lengthAdjust="spacingAndGlyphs"
text-anchor="middle" opacity="0" stroke-opacity="0">0V</text>
<g class="stroked-text"><desc>0V</desc>
<path d="M110.1392 99.6435
L110.2602 99.6435
" />
<path d="M110.2602 99.6435
L110.3811 99.7040
" />
<path d="M110.3811 99.7040
L110.4416 99.7645
" />
<path d="M110.4416 99.7645
L110.5021 99.8854
" />
<path d="M110.5021 99.8854
L110.5626 100.1273
" />
<path d="M110.5626 100.1273
L110.5626 100.4297
" />
<path d="M110.5626 100.4297
L110.5021 100.6716
" />
<path d="M110.5021 100.6716
L110.4416 100.7926
" />
<path d="M110.4416 100.7926
L110.3811 100.8531
" />
<path d="M110.3811 100.8531
L110.2602 100.9135
" />
<path d="M110.2602 100.9135
L110.1392 100.9135
" />
<path d="M110.1392 100.9135
L110.0183 100.8531
" />
<path d="M110.0183 100.8531
L109.9578 100.7926
" />
<path d="M109.9578 100.7926
L109.8973 100.6716
" />
<path d="M109.8973 100.6716
L109.8369 100.4297
" />
<path d="M109.8369 100.4297
L109.8369 100.1273
" />
<path d="M109.8369 100.1273
L109.8973 99.8854
" />
<path d="M109.8973 99.8854
L109.9578 99.7645
" />
<path d="M109.9578 99.7645
L110.0183 99.7040
" />
<path d="M110.0183 99.7040
L110.1392 99.6435
" />
<path d="M110.9254 99.6435
L111.3487 100.9135
" />
<path d="M111.3487 100.9135
L111.7721 99.6435
" />
</g></g>
<g style="fill:none; 
stroke:#000000; stroke-width:0.1524; stroke-opacity:1; 
stroke-linecap:round; stroke-linejoin:round;">
<text x="111.5060" y="87.2530"
textLength="3.7108" font-size="1.6933" lengthAdjust="spacingAndGlyphs"
text-anchor="middle" opacity="0" stroke-opacity="0">12V</text>
<g class="stroked-text"><desc>12V</desc>
<path d="M110.7198 87.1975
L109.9941 87.1975
" />
<path d="M110.3569 87.1975
L110.3569 85.9275
" />
<path d="M110.3569 85.9275
L110.2360 86.1090
" />
<path d="M110.2360 86.1090
L110.1150 86.2299
" />
<path d="M110.1150 86.2299
L109.9941 86.2904
" />
<path d="M111.2036 86.0485
L111.2640 85.9880
" />
<path d="M111.2640 85.9880
L111.3850 85.9275
" />
<path d="M111.3850 85.9275
L111.6874 85.9275
" />
<path d="M111.6874 85.9275
L111.8083 85.9880
" />
<path d="M111.8083 85.9880
L111.8688 86.0485
" />
<path d="M111.8688 86.0485
L111.9293 86.1694
" />
<path d="M111.9293 86.1694
L111.9293 86.2904
" />
<path d="M111.9293 86.2904
L111.8688 86.4718
" />
<path d="M111.8688 86.4718
L111.1431 87.1975
" />
<path d="M111.1431 87.1975
L111.9293 87.1975
" />
<path d="M112.2921 85.9275
L112.7154 87.1975
" />
<path d="M112.7154 87.1975
L113.1388 85.9275
" />
</g></g>
<g style="fill:none; 
stroke:#000000; stroke-width:0.1524; stroke-opacity:1; 
stroke-linecap:round; stroke-linejoin:round;">
<text x="104.6480" y="84.7130"
textLength="9.7584" font-size="1.6933" lengthAdjust="spacingAndGlyphs"
text-anchor="middle" opacity="0" stroke-opacity="0">I=500 mA</text>
<g class="stroked-text"><desc>I=500 mA</desc>
<path d="M100.1727 84.6575
L100.1727 83.3875
" />
<path d="M100.7775 83.9923
L101.7452 83.9923
" />
<path d="M101.7452 84.3551
L100.7775 84.3551
" />
<path d="M102.9547 83.3875
L102.3499 83.3875
" />
<path d="M102.3499 83.3875
L102.2895 83.9923
" />
<path d="M102.2895 83.9923
L102.3499 83.9318
" />
<path d="M102.3499 83.9318
L102.4709 83.8713
" />
<path d="M102.4709 83.8713
L102.7733 83.8713
" />
<path d="M102.7733 83.8713
L102.8942 83.9318
" />
<path d="M102.8942 83.9318
L102.9547 83.9923
" />
<path d="M102.9547 83.9923
L103.0152 84.1132
" />
<path d="M103.0152 84.1132
L103.0152 84.4156
" />
<path d="M103.0152 84.4156
L102.9547 84.5366
" />
<path d="M102.9547 84.5366
L102.8942 84.5971
" />
<path d="M102.8942 84.5971
L102.7733 84.6575
" />
<path d="M102.7733 84.6575
L102.4709 84.6575
" />
<path d="M102.4709 84.6575
L102.3499 84.5971
" />
<path d="M102.3499 84.5971
L102.2895 84.5366
" />
<path d="M103.8013 83.3875
L103.9223 83.3875
" />
<path d="M103.9223 83.3875
L104.0432 83.4480
" />
<path d="M104.0432 83.4480
L104.1037 83.5085
" />
<path d="M104.1037 83.5085
L104.1642 83.6294
" />
<path d="M104.1642 83.6294
L104.2247 83.8713
" />
<path d="M104.2247 83.8713
L104.2247 84.1737
" />
<path d="M104.2247 84.1737
L104.1642 84.4156
" />
<path d="M104.1642 84.4156
L104.1037 84.5366
" />
<path d="M104.1037 84.5366
L104.0432 84.5971
" />
<path d="M104.0432 84.5971
L103.9223 84.6575
" />
<path d="M103.9223 84.6575
L103.8013 84.6575
" />
<path d="M103.8013 84.6575
L103.6804 84.5971
" />
<path d="M103.6804 84.5971
L103.6199 84.5366
" />
<path d="M103.6199 84.5366
L103.5594 84.4156
" />
<path d="M103.5594 84.4156
L103.4990 84.1737
" />
<path d="M103.4990 84.1737
L103.4990 83.8713
" />
<path d="M103.4990 83.8713
L103.5594 83.6294
" />
<path d="M103.5594 83.6294
L103.6199 83.5085
" />
<path d="M103.6199 83.5085
L103.6804 83.4480
" />
<path d="M103.6804 83.4480
L103.8013 83.3875
" />
<path d="M105.0108 83.3875
L105.1318 83.3875
" />
<path d="M105.1318 83.3875
L105.2527 83.4480
" />
<path d="M105.2527 83.4480
L105.3132 83.5085
" />
<path d="M105.3132 83.5085
L105.3737 83.6294
" />
<path d="M105.3737 83.6294
L105.4342 83.8713
" />
<path d="M105.4342 83.8713
L105.4342 84.1737
" />
<path d="M105.4342 84.1737
L105.3737 84.4156
" />
<path d="M105.3737 84.4156
L105.3132 84.5366
" />
<path d="M105.3132 84.5366
L105.2527 84.5971
" />
<path d="M105.2527 84.5971
L105.1318 84.6575
" />
<path d="M105.1318 84.6575
L105.0108 84.6575
" />
<path d="M105.0108 84.6575
L104.8899 84.5971
" />
<path d="M104.8899 84.5971
L104.8294 84.5366
" />
<path d="M104.8294 84.5366
L104.7689 84.4156
" />
<path d="M104.7689 84.4156
L104.7085 84.1737
" />
<path d="M104.7085 84.1737
L104.7085 83.8713
" />
<path d="M104.7085 83.8713
L104.7689 83.6294
" />
<path d="M104.7689 83.6294
L104.8294 83.5085
" />
<path d="M104.8294 83.5085
L104.8899 83.4480
" />
<path d="M104.8899 83.4480
L105.0108 83.3875
" />
<path d="M106.9460 84.6575
L106.9460 83.8109
" />
<path d="M106.9460 83.9318
L107.0065 83.8713
" />
<path d="M107.0065 83.8713
L107.1275 83.8109
" />
<path d="M107.1275 83.8109
L107.3089 83.8109
" />
<path d="M107.3089 83.8109
L107.4298 83.8713
" />
<path d="M107.4298 83.8713
L107.4903 83.9923
" />
<path d="M107.4903 83.9923
L107.4903 84.6575
" />
<path d="M107.4903 83.9923
L107.5508 83.8713
" />
<path d="M107.5508 83.8713
L107.6717 83.8109
" />
<path d="M107.6717 83.8109
L107.8532 83.8109
" />
<path d="M107.8532 83.8109
L107.9741 83.8713
" />
<path d="M107.9741 83.8713
L108.0346 83.9923
" />
<path d="M108.0346 83.9923
L108.0346 84.6575
" />
<path d="M108.5789 84.2947
L109.1836 84.2947
" />
<path d="M108.4579 84.6575
L108.8812 83.3875
" />
<path d="M108.8812 83.3875
L109.3046 84.6575
" />
</g></g>
<g style="fill:none; 
stroke:#000000; stroke-width:0.1524; stroke-opacity:1; 
stroke-linecap:round; stroke-linejoin:round;">
<text x="81.7880" y="98.6830"
textLength="2.5013" font-size="1.6933" lengthAdjust="spacingAndGlyphs"
text-anchor="middle" opacity="0" stroke-opacity="0">0V</text>
<g class="stroked-text"><desc>0V</desc>
<path d="M81.1832 97.3575
L81.3042 97.3575
" />
<path d="M81.3042 97.3575
L81.4251 97.4180
" />
<path d="M81.4251 97.4180
L81.4856 97.4785
" />
<path d="M81.4856 97.4785
L81.5461 97.5994
" />
<path d="M81.5461 97.5994
L81.6066 97.8413
" />
<path d="M81.6066 97.8413
L81.6066 98.1437
" />
<path d="M81.6066 98.1437
L81.5461 98.3856
" />
<path d="M81.5461 98.3856
L81.4856 98.5066
" />
<path d="M81.4856 98.5066
L81.4251 98.5671
" />
<path d="M81.4251 98.5671
L81.3042 98.6275
" />
<path d="M81.3042 98.6275
L81.1832 98.6275
" />
<path d="M81.1832 98.6275
L81.0623 98.5671
" />
<path d="M81.0623 98.5671
L81.0018 98.5066
" />
<path d="M81.0018 98.5066
L80.9413 98.3856
" />
<path d="M80.9413 98.3856
L80.8809 98.1437
" />
<path d="M80.8809 98.1437
L80.8809 97.8413
" />
<path d="M80.8809 97.8413
L80.9413 97.5994
" />
<path d="M80.9413 97.5994
L81.0018 97.4785
" />
<path d="M81.0018 97.4785
L81.0623 97.4180
" />
<path d="M81.0623 97.4180
L81.1832 97.3575
" />
<path d="M81.9694 97.3575
L82.3927 98.6275
" />
<path d="M82.3927 98.6275
L82.8161 97.3575
" />
</g></g>
<g style="fill:none; 
stroke:#000000; stroke-width:0.1524; stroke-opacity:1; 
stroke-linecap:round; stroke-linejoin:round;">
<text x="81.7880" y="90.0470"
textLength="3.7108" font-size="1.6933" lengthAdjust="spacingAndGlyphs"
text-anchor="middle" opacity="0" stroke-opacity="0">12V</text>
<g class="stroked-text"><desc>12V</desc>
<path d="M81.0018 89.9915
L80.2761 89.9915
" />
<path d="M80.6389 89.9915
L80.6389 88.7215
" />
<path d="M80.6389 88.7215
L80.5180 88.9030
" />
<path d="M80.5180 88.9030
L80.3970 89.0239
" />
<path d="M80.3970 89.0239
L80.2761 89.0844
" />
<path d="M81.4856 88.8425
L81.5460 88.7820
" />
<path d="M81.5460 88.7820
L81.6670 88.7215
" />
<path d="M81.6670 88.7215
L81.9694 88.7215
" />
<path d="M81.9694 88.7215
L82.0903 88.7820
" />
<path d="M82.0903 88.7820
L82.1508 88.8425
" />
<path d="M82.1508 88.8425
L82.2113 88.9634
" />
<path d="M82.2113 88.9634
L82.2113 89.0844
" />
<path d="M82.2113 89.0844
L82.1508 89.2658
" />
<path d="M82.1508 89.2658
L81.4251 89.9915
" />
<path d="M81.4251 89.9915
L82.2113 89.9915
" />
<path d="M82.5741 88.7215
L82.9974 89.9915
" />
<path d="M82.9974 89.9915
L83.4208 88.7215
" />
</g></g>
<g style="fill:none; 
stroke:#000000; stroke-width:0.1524; stroke-opacity:1; 
stroke-linecap:round; stroke-linejoin:round;">
<text x="153.9240" y="101.4770"
textLength="2.5013" font-size="1.6933" lengthAdjust="spacingAndGlyphs"
text-anchor="middle" opacity="0" stroke-opacity="0">0V</text>
<g class="stroked-text"><desc>0V</desc>
<path d="M153.3192 100.1515
L153.4402 100.1515
" />
<path d="M153.4402 100.1515
L153.5611 100.2120
" />
<path d="M153.5611 100.2120
L153.6216 100.2725
" />
<path d="M153.6216 100.2725
L153.6821 100.3934
" />
<path d="M153.6821 100.3934
L153.7426 100.6353
" />
<path d="M153.7426 100.6353
L153.7426 100.9377
" />
<path d="M153.7426 100.9377
L153.6821 101.1796
" />
<path d="M153.6821 101.1796
L153.6216 101.3006
" />
<path d="M153.6216 101.3006
L153.5611 101.3611
" />
<path d="M153.5611 101.3611
L153.4402 101.4215
" />
<path d="M153.4402 101.4215
L153.3192 101.4215
" />
<path d="M153.3192 101.4215
L153.1983 101.3611
" />
<path d="M153.1983 101.3611
L153.1378 101.3006
" />
<path d="M153.1378 101.3006
L153.0773 101.1796
" />
<path d="M153.0773 101.1796
L153.0169 100.9377
" />
<path d="M153.0169 100.9377
L153.0169 100.6353
" />
<path d="M153.0169 100.6353
L153.0773 100.3934
" />
<path d="M153.0773 100.3934
L153.1378 100.2725
" />
<path d="M153.1378 100.2725
L153.1983 100.2120
" />
<path d="M153.1983 100.2120
L153.3192 100.1515
" />
<path d="M154.1054 100.1515
L154.5287 101.4215
" />
<path d="M154.5287 101.4215
L154.9521 100.1515
" />
</g></g>
<g style="fill:none; 
stroke:#000000; stroke-width:0.1524; stroke-opacity:1; 
stroke-linecap:round; stroke-linejoin:round;">
<text x="148.5900" y="84.4590"
textLength="9.7584" font-size="1.6933" lengthAdjust="spacingAndGlyphs"
text-anchor="middle" opacity="0" stroke-opacity="0">I=167 mA</text>
<g class="stroked-text"><desc>I=167 mA</desc>
<path d="M144.1147 84.4035
L144.1147 83.1335
" />
<path d="M144.7195 83.7383
L145.6872 83.7383
" />
<path d="M145.6872 84.1011
L144.7195 84.1011
" />
<path d="M146.9572 84.4035
L146.2315 84.4035
" />
<path d="M146.5943 84.4035
L146.5943 83.1335
" />
<path d="M146.5943 83.1335
L146.4734 83.3150
" />
<path d="M146.4734 83.3150
L146.3524 83.4359
" />
<path d="M146.3524 83.4359
L146.2315 83.4964
" />
<path d="M148.0457 83.1335
L147.8038 83.1335
" />
<path d="M147.8038 83.1335
L147.6829 83.1940
" />
<path d="M147.6829 83.1940
L147.6224 83.2545
" />
<path d="M147.6224 83.2545
L147.5014 83.4359
" />
<path d="M147.5014 83.4359
L147.4410 83.6778
" />
<path d="M147.4410 83.6778
L147.4410 84.1616
" />
<path d="M147.4410 84.1616
L147.5014 84.2826
" />
<path d="M147.5014 84.2826
L147.5619 84.3431
" />
<path d="M147.5619 84.3431
L147.6829 84.4035
" />
<path d="M147.6829 84.4035
L147.9248 84.4035
" />
<path d="M147.9248 84.4035
L148.0457 84.3431
" />
<path d="M148.0457 84.3431
L148.1062 84.2826
" />
<path d="M148.1062 84.2826
L148.1667 84.1616
" />
<path d="M148.1667 84.1616
L148.1667 83.8592
" />
<path d="M148.1667 83.8592
L148.1062 83.7383
" />
<path d="M148.1062 83.7383
L148.0457 83.6778
" />
<path d="M148.0457 83.6778
L147.9248 83.6173
" />
<path d="M147.9248 83.6173
L147.6829 83.6173
" />
<path d="M147.6829 83.6173
L147.5619 83.6778
" />
<path d="M147.5619 83.6778
L147.5014 83.7383
" />
<path d="M147.5014 83.7383
L147.4410 83.8592
" />
<path d="M148.5900 83.1335
L149.4366 83.1335
" />
<path d="M149.4366 83.1335
L148.8924 84.4035
" />
<path d="M150.8880 84.4035
L150.8880 83.5569
" />
<path d="M150.8880 83.6778
L150.9485 83.6173
" />
<path d="M150.9485 83.6173
L151.0695 83.5569
" />
<path d="M151.0695 83.5569
L151.2509 83.5569
" />
<path d="M151.2509 83.5569
L151.3718 83.6173
" />
<path d="M151.3718 83.6173
L151.4323 83.7383
" />
<path d="M151.4323 83.7383
L151.4323 84.4035
" />
<path d="M151.4323 83.7383
L151.4928 83.6173
" />
<path d="M151.4928 83.6173
L151.6137 83.5569
" />
<path d="M151.6137 83.5569
L151.7952 83.5569
" />
<path d="M151.7952 83.5569
L151.9161 83.6173
" />
<path d="M151.9161 83.6173
L151.9766 83.7383
" />
<path d="M151.9766 83.7383
L151.9766 84.4035
" />
<path d="M152.5209 84.0407
L153.1256 84.0407
" />
<path d="M152.3999 84.4035
L152.8232 83.1335
" />
<path d="M152.8232 83.1335
L153.2466 84.4035
" />
</g></g>
<g style="fill:none; 
stroke:#000000; stroke-width:0.1524; stroke-opacity:1; 
stroke-linecap:round; stroke-linejoin:round;">
<text x="124.9680" y="99.1910"
textLength="2.5013" font-size="1.6933" lengthAdjust="spacingAndGlyphs"
text-anchor="middle" opacity="0" stroke-opacity="0">0V</text>
<g class="stroked-text"><desc>0V</desc>
<path d="M124.3632 97.8655
L124.4842 97.8655
" />
<path d="M124.4842 97.8655
L124.6051 97.9260
" />
<path d="M124.6051 97.9260
L124.6656 97.9865
" />
<path d="M124.6656 97.9865
L124.7261 98.1074
" />
<path d="M124.7261 98.1074
L124.7866 98.3493
" />
<path d="M124.7866 98.3493
L124.7866 98.6517
" />
<path d="M124.7866 98.6517
L124.7261 98.8936
" />
<path d="M124.7261 98.8936
L124.6656 99.0146
" />
<path d="M124.6656 99.0146
L124.6051 99.0751
" />
<path d="M124.6051 99.0751
L124.4842 99.1355
" />
<path d="M124.4842 99.1355
L124.3632 99.1355
" />
<path d="M124.3632 99.1355
L124.2423 99.0751
" />
<path d="M124.2423 99.0751
L124.1818 99.0146
" />
<path d="M124.1818 99.0146
L124.1213 98.8936
" />
<path d="M124.1213 98.8936
L124.0609 98.6517
" />
<path d="M124.0609 98.6517
L124.0609 98.3493
" />
<path d="M124.0609 98.3493
L124.1213 98.1074
" />
<path d="M124.1213 98.1074
L124.1818 97.9865
" />
<path d="M124.1818 97.9865
L124.2423 97.9260
" />
<path d="M124.2423 97.9260
L124.3632 97.8655
" />
<path d="M125.1494 97.8655
L125.5727 99.1355
" />
<path d="M125.5727 99.1355
L125.9961 97.8655
" />
</g></g>
<g style="fill:#000000; fill-opacity:1.0000; stroke:none;">
<circle cx="127.0000" cy="101.6000" r="0.4572" /> 
</g>
<g style="fill:#000000; fill-opacity:1.0000; stroke:none;">
<circle cx="83.8200" cy="101.6000" r="0.4572" /> 
</g> 
</svg>
