<?xml version="1.0" standalone="no"?>
 <!DOCTYPE svg PUBLIC "-//W3C//DTD SVG 1.1//EN" 
 "http://www.w3.org/Graphics/SVG/1.1/DTD/svg11.dtd"> 
<svg
  xmlns:svg="http://www.w3.org/2000/svg"
  xmlns="http://www.w3.org/2000/svg"
  xmlns:xlink="http://www.w3.org/1999/xlink"
  xmlns:inkscape="http://www.inkscape.org/namespaces/inkscape"
  version="1.1"
  width="297.0022mm" height="210.0072mm" viewBox="0.0000 0.0000 297.0022 210.0072">
<title>SVG Image created as Schematic.svg date 2026-07-21T14:42:48 </title>
  <desc>Image generated by Eeschema-SVG </desc>
<g style="fill:#000000; fill-opacity:1.0000;stroke:#000000; stroke-opacity:1.0000;
stroke-linecap:round; stroke-linejoin:round;"
 transform="translate(0 0) scale(1 1)">
<path style="fill:none; 
stroke:#000000; stroke-width:0.1524; stroke-opacity:1; 
stroke-linecap:round; stroke-linejoin:round;fill:none"
d="M 106.6800,88.9000
106.6800,90.1700
107.9500,90.1700
106.6800,91.4400
105.4100,90.1700
106.6800,90.1700
" /> 
</g>
<g style="fill:none; 
stroke:#000000; stroke-width:0.1524; stroke-opacity:1; 
stroke-linecap:round; stroke-linejoin:round;">
<path d="M106.6800 88.9000
L106.6800 88.9000
" />
<text x="106.6800" y="94.6150"
textLength="4.0737" font-size="1.6933" lengthAdjust="spacingAndGlyphs"
text-anchor="middle" opacity="0" stroke-opacity="0">GND</text>
<g class="stroked-text"><desc>GND</desc>
<path d="M105.7124 93.3500
L105.5914 93.2895
" />
<path d="M105.5914 93.2895
L105.4100 93.2895
" />
<path d="M105.4100 93.2895
L105.2286 93.3500
" />
<path d="M105.2286 93.3500
L105.1076 93.4710
" />
<path d="M105.1076 93.4710
L105.0471 93.5919
" />
<path d="M105.0471 93.5919
L104.9867 93.8338
" />
<path d="M104.9867 93.8338
L104.9867 94.0152
" />
<path d="M104.9867 94.0152
L105.0471 94.2571
" />
<path d="M105.0471 94.2571
L105.1076 94.3781
" />
<path d="M105.1076 94.3781
L105.2286 94.4991
" />
<path d="M105.2286 94.4991
L105.4100 94.5595
" />
<path d="M105.4100 94.5595
L105.5309 94.5595
" />
<path d="M105.5309 94.5595
L105.7124 94.4991
" />
<path d="M105.7124 94.4991
L105.7728 94.4386
" />
<path d="M105.7728 94.4386
L105.7728 94.0152
" />
<path d="M105.7728 94.0152
L105.5309 94.0152
" />
<path d="M106.3171 94.5595
L106.3171 93.2895
" />
<path d="M106.3171 93.2895
L107.0428 94.5595
" />
<path d="M107.0428 94.5595
L107.0428 93.2895
" />
<path d="M107.6476 94.5595
L107.6476 93.2895
" />
<path d="M107.6476 93.2895
L107.9500 93.2895
" />
<path d="M107.9500 93.2895
L108.1314 93.3500
" />
<path d="M108.1314 93.3500
L108.2524 93.4710
" />
<path d="M108.2524 93.4710
L108.3129 93.5919
" />
<path d="M108.3129 93.5919
L108.3733 93.8338
" />
<path d="M108.3733 93.8338
L108.3733 94.0152
" />
<path d="M108.3733 94.0152
L108.3129 94.2571
" />
<path d="M108.3129 94.2571
L108.2524 94.3781
" />
<path d="M108.2524 94.3781
L108.1314 94.4991
" />
<path d="M108.1314 94.4991
L107.9500 94.5595
" />
<path d="M107.9500 94.5595
L107.6476 94.5595
" />
</g><circle cx="74.1680" cy="72.3900" r="0.5080" /> 
<path style="fill:none; 
stroke:#000000; stroke-width:0.1524; stroke-opacity:1; 
stroke-linecap:round; stroke-linejoin:round;fill:none"
d="M 74.6760,72.1360
78.5411,71.7500
" /> 
<circle cx="78.2320" cy="72.3900" r="0.5080" /> 
<path d="M73.6600 72.3900
L71.1200 72.3900
" />
<path d="M78.7400 72.3900
L81.2800 72.3900
" />
<text x="76.2000" y="69.2150"
textLength="2.6222" font-size="1.6933" lengthAdjust="spacingAndGlyphs"
text-anchor="middle" opacity="0" stroke-opacity="0">S1</text>
<g class="stroked-text"><desc>S1</desc>
<path d="M75.2324 69.0991
L75.4138 69.1595
" />
<path d="M75.4138 69.1595
L75.7162 69.1595
" />
<path d="M75.7162 69.1595
L75.8371 69.0991
" />
<path d="M75.8371 69.0991
L75.8976 69.0386
" />
<path d="M75.8976 69.0386
L75.9581 68.9176
" />
<path d="M75.9581 68.9176
L75.9581 68.7967
" />
<path d="M75.9581 68.7967
L75.8976 68.6757
" />
<path d="M75.8976 68.6757
L75.8371 68.6152
" />
<path d="M75.8371 68.6152
L75.7162 68.5548
" />
<path d="M75.7162 68.5548
L75.4743 68.4943
" />
<path d="M75.4743 68.4943
L75.3533 68.4338
" />
<path d="M75.3533 68.4338
L75.2928 68.3733
" />
<path d="M75.2928 68.3733
L75.2324 68.2524
" />
<path d="M75.2324 68.2524
L75.2324 68.1314
" />
<path d="M75.2324 68.1314
L75.2928 68.0105
" />
<path d="M75.2928 68.0105
L75.3533 67.9500
" />
<path d="M75.3533 67.9500
L75.4743 67.8895
" />
<path d="M75.4743 67.8895
L75.7766 67.8895
" />
<path d="M75.7766 67.8895
L75.9581 67.9500
" />
<path d="M77.1676 69.1595
L76.4419 69.1595
" />
<path d="M76.8047 69.1595
L76.8047 67.8895
" />
<path d="M76.8047 67.8895
L76.6838 68.0710
" />
<path d="M76.6838 68.0710
L76.5628 68.1919
" />
<path d="M76.5628 68.1919
L76.4419 68.2524
" />
</g><path style="fill:none; 
stroke:#000000; stroke-width:0.1524; stroke-opacity:1; 
stroke-linecap:round; stroke-linejoin:round;fill:none"
d="M 87.1220,79.5020
90.6780,83.0580
" /> 
<circle cx="88.9000" cy="81.2800" r="2.5400" /> 
<path style="fill:none; 
stroke:#000000; stroke-width:0.1524; stroke-opacity:1; 
stroke-linecap:round; stroke-linejoin:round;fill:none"
d="M 90.6780,79.5020
87.1220,83.0580
" /> 
<path d="M88.9000 83.8200
L88.9000 86.3600
" />
<path d="M88.9000 78.7400
L88.9000 76.2000
" />
<text x="84.7960" y="80.1370"
textLength="2.4408" font-size="1.6933" lengthAdjust="spacingAndGlyphs"
text-anchor="middle" opacity="0" stroke-opacity="0">L1</text>
<g class="stroked-text"><desc>L1</desc>
<path d="M84.5843 80.0815
L83.9795 80.0815
" />
<path d="M83.9795 80.0815
L83.9795 78.8115
" />
<path d="M85.6729 80.0815
L84.9472 80.0815
" />
<path d="M85.3100 80.0815
L85.3100 78.8115
" />
<path d="M85.3100 78.8115
L85.1891 78.9930
" />
<path d="M85.1891 78.9930
L85.0681 79.1139
" />
<path d="M85.0681 79.1139
L84.9472 79.1744
" />
</g><text x="84.7536" y="81.9150"
textLength="2.8641" font-size="1.6933" lengthAdjust="spacingAndGlyphs"
text-anchor="middle" opacity="0" stroke-opacity="0">6W</text>
<g class="stroked-text"><desc>6W</desc>
<path d="M84.2698 80.5895
L84.0279 80.5895
" />
<path d="M84.0279 80.5895
L83.9070 80.6500
" />
<path d="M83.9070 80.6500
L83.8465 80.7105
" />
<path d="M83.8465 80.7105
L83.7255 80.8919
" />
<path d="M83.7255 80.8919
L83.6651 81.1338
" />
<path d="M83.6651 81.1338
L83.6651 81.6176
" />
<path d="M83.6651 81.6176
L83.7255 81.7386
" />
<path d="M83.7255 81.7386
L83.7860 81.7991
" />
<path d="M83.7860 81.7991
L83.9070 81.8595
" />
<path d="M83.9070 81.8595
L84.1489 81.8595
" />
<path d="M84.1489 81.8595
L84.2698 81.7991
" />
<path d="M84.2698 81.7991
L84.3303 81.7386
" />
<path d="M84.3303 81.7386
L84.3908 81.6176
" />
<path d="M84.3908 81.6176
L84.3908 81.3152
" />
<path d="M84.3908 81.3152
L84.3303 81.1943
" />
<path d="M84.3303 81.1943
L84.2698 81.1338
" />
<path d="M84.2698 81.1338
L84.1489 81.0733
" />
<path d="M84.1489 81.0733
L83.9070 81.0733
" />
<path d="M83.9070 81.0733
L83.7860 81.1338
" />
<path d="M83.7860 81.1338
L83.7255 81.1943
" />
<path d="M83.7255 81.1943
L83.6651 81.3152
" />
<path d="M84.8141 80.5895
L85.1165 81.8595
" />
<path d="M85.1165 81.8595
L85.3584 80.9524
" />
<path d="M85.3584 80.9524
L85.6003 81.8595
" />
<path d="M85.6003 81.8595
L85.9027 80.5895
" />
</g><path style="fill:none; 
stroke:#000000; stroke-width:0.1524; stroke-opacity:1; 
stroke-linecap:round; stroke-linejoin:round;fill:none"
d="M 130.3020,79.5020
133.8580,83.0580
" /> 
<circle cx="132.0800" cy="81.2800" r="2.5400" /> 
<path style="fill:none; 
stroke:#000000; stroke-width:0.1524; stroke-opacity:1; 
stroke-linecap:round; stroke-linejoin:round;fill:none"
d="M 133.8580,79.5020
130.3020,83.0580
" /> 
<path d="M132.0800 83.8200
L132.0800 86.3600
" />
<path d="M132.0800 78.7400
L132.0800 76.2000
" />
<text x="127.9760" y="80.1370"
textLength="2.4408" font-size="1.6933" lengthAdjust="spacingAndGlyphs"
text-anchor="middle" opacity="0" stroke-opacity="0">L1</text>
<g class="stroked-text"><desc>L1</desc>
<path d="M127.7643 80.0815
L127.1595 80.0815
" />
<path d="M127.1595 80.0815
L127.1595 78.8115
" />
<path d="M128.8529 80.0815
L128.1272 80.0815
" />
<path d="M128.4900 80.0815
L128.4900 78.8115
" />
<path d="M128.4900 78.8115
L128.3691 78.9930
" />
<path d="M128.3691 78.9930
L128.2481 79.1139
" />
<path d="M128.2481 79.1139
L128.1272 79.1744
" />
</g><text x="127.9336" y="81.9150"
textLength="2.8641" font-size="1.6933" lengthAdjust="spacingAndGlyphs"
text-anchor="middle" opacity="0" stroke-opacity="0">6W</text>
<g class="stroked-text"><desc>6W</desc>
<path d="M127.4498 80.5895
L127.2079 80.5895
" />
<path d="M127.2079 80.5895
L127.0870 80.6500
" />
<path d="M127.0870 80.6500
L127.0265 80.7105
" />
<path d="M127.0265 80.7105
L126.9055 80.8919
" />
<path d="M126.9055 80.8919
L126.8451 81.1338
" />
<path d="M126.8451 81.1338
L126.8451 81.6176
" />
<path d="M126.8451 81.6176
L126.9055 81.7386
" />
<path d="M126.9055 81.7386
L126.9660 81.7991
" />
<path d="M126.9660 81.7991
L127.0870 81.8595
" />
<path d="M127.0870 81.8595
L127.3289 81.8595
" />
<path d="M127.3289 81.8595
L127.4498 81.7991
" />
<path d="M127.4498 81.7991
L127.5103 81.7386
" />
<path d="M127.5103 81.7386
L127.5708 81.6176
" />
<path d="M127.5708 81.6176
L127.5708 81.3152
" />
<path d="M127.5708 81.3152
L127.5103 81.1943
" />
<path d="M127.5103 81.1943
L127.4498 81.1338
" />
<path d="M127.4498 81.1338
L127.3289 81.0733
" />
<path d="M127.3289 81.0733
L127.0870 81.0733
" />
<path d="M127.0870 81.0733
L126.9660 81.1338
" />
<path d="M126.9660 81.1338
L126.9055 81.1943
" />
<path d="M126.9055 81.1943
L126.8451 81.3152
" />
<path d="M127.9941 80.5895
L128.2965 81.8595
" />
<path d="M128.2965 81.8595
L128.5384 80.9524
" />
<path d="M128.5384 80.9524
L128.7803 81.8595
" />
<path d="M128.7803 81.8595
L129.0827 80.5895
" />
</g></g>
<g style="fill:#000000; fill-opacity:1.0000; 
stroke:#000000; stroke-width:0.1524; stroke-opacity:1; 
stroke-linecap:round; stroke-linejoin:round;">
<rect x="61.214000" y="79.502000" width="4.572000" height="0.254000" rx="0.000000" />
<rect x="61.214000" y="82.550000" width="4.572000" height="0.254000" rx="0.000000" />
<rect x="61.976000" y="80.264000" width="3.048000" height="0.508000" rx="0.000000" />
<rect x="61.976000" y="83.312000" width="3.048000" height="0.508000" rx="0.000000" />
<path style="fill:none; 
stroke:#000000; stroke-width:0.1524; stroke-opacity:1; 
stroke-linecap:round; stroke-linejoin:round;fill:none"
d="M 63.5000,79.5020
63.5000,78.7400
" /> 
<path style="fill:none; 
stroke:#000000; stroke-width:0.1524; stroke-opacity:1; 
stroke-linecap:round; stroke-linejoin:round;fill:none"
d="M 63.5000,81.2800
63.5000,81.0260
" /> 
<path style="fill:none; 
stroke:#000000; stroke-width:0.1524; stroke-opacity:1; 
stroke-linecap:round; stroke-linejoin:round;fill:none"
d="M 63.5000,81.7880
63.5000,81.5340
" /> 
<path style="fill:none; 
stroke:#000000; stroke-width:0.1524; stroke-opacity:1; 
stroke-linecap:round; stroke-linejoin:round;fill:none"
d="M 63.5000,82.2960
63.5000,82.0420
" /> 
<path style="fill:none; 
stroke:#000000; stroke-width:0.2540; stroke-opacity:1; 
stroke-linecap:round; stroke-linejoin:round;fill:none"
d="M 64.2620,78.2320
65.2780,78.2320
" /> 
<path style="fill:none; 
stroke:#000000; stroke-width:0.2540; stroke-opacity:1; 
stroke-linecap:round; stroke-linejoin:round;fill:none"
d="M 64.7700,77.7240
64.7700,78.7400
" /> 
</g>
<g style="fill:none; 
stroke:#000000; stroke-width:0.1524; stroke-opacity:1; 
stroke-linecap:round; stroke-linejoin:round;">
<path d="M63.5000 78.7400
L63.5000 76.2000
" />
<path d="M63.5000 83.8200
L63.5000 86.3600
" />
<text x="69.1447" y="80.6450"
textLength="3.6503" font-size="1.6933" lengthAdjust="spacingAndGlyphs"
text-anchor="middle" opacity="0" stroke-opacity="0">BT1</text>
<g class="stroked-text"><desc>BT1</desc>
<path d="M68.1469 79.9243
L68.3283 79.9848
" />
<path d="M68.3283 79.9848
L68.3888 80.0452
" />
<path d="M68.3888 80.0452
L68.4492 80.1662
" />
<path d="M68.4492 80.1662
L68.4492 80.3476
" />
<path d="M68.4492 80.3476
L68.3888 80.4686
" />
<path d="M68.3888 80.4686
L68.3283 80.5291
" />
<path d="M68.3283 80.5291
L68.2073 80.5895
" />
<path d="M68.2073 80.5895
L67.7235 80.5895
" />
<path d="M67.7235 80.5895
L67.7235 79.3195
" />
<path d="M67.7235 79.3195
L68.1469 79.3195
" />
<path d="M68.1469 79.3195
L68.2678 79.3800
" />
<path d="M68.2678 79.3800
L68.3283 79.4405
" />
<path d="M68.3283 79.4405
L68.3888 79.5614
" />
<path d="M68.3888 79.5614
L68.3888 79.6824
" />
<path d="M68.3888 79.6824
L68.3283 79.8033
" />
<path d="M68.3283 79.8033
L68.2678 79.8638
" />
<path d="M68.2678 79.8638
L68.1469 79.9243
" />
<path d="M68.1469 79.9243
L67.7235 79.9243
" />
<path d="M68.8121 79.3195
L69.5378 79.3195
" />
<path d="M69.1750 80.5895
L69.1750 79.3195
" />
<path d="M70.6264 80.5895
L69.9007 80.5895
" />
<path d="M70.2635 80.5895
L70.2635 79.3195
" />
<path d="M70.2635 79.3195
L70.1426 79.5010
" />
<path d="M70.1426 79.5010
L70.0216 79.6219
" />
<path d="M70.0216 79.6219
L69.9007 79.6824
" />
</g><text x="69.1750" y="82.6134"
textLength="3.7108" font-size="1.6933" lengthAdjust="spacingAndGlyphs"
text-anchor="middle" opacity="0" stroke-opacity="0">12V</text>
<g class="stroked-text"><desc>12V</desc>
<path d="M68.3888 82.5579
L67.6631 82.5579
" />
<path d="M68.0259 82.5579
L68.0259 81.2879
" />
<path d="M68.0259 81.2879
L67.9050 81.4694
" />
<path d="M67.9050 81.4694
L67.7840 81.5903
" />
<path d="M67.7840 81.5903
L67.6631 81.6508
" />
<path d="M68.8726 81.4089
L68.9330 81.3484
" />
<path d="M68.9330 81.3484
L69.0540 81.2879
" />
<path d="M69.0540 81.2879
L69.3564 81.2879
" />
<path d="M69.3564 81.2879
L69.4773 81.3484
" />
<path d="M69.4773 81.3484
L69.5378 81.4089
" />
<path d="M69.5378 81.4089
L69.5983 81.5298
" />
<path d="M69.5983 81.5298
L69.5983 81.6508
" />
<path d="M69.5983 81.6508
L69.5378 81.8322
" />
<path d="M69.5378 81.8322
L68.8121 82.5579
" />
<path d="M68.8121 82.5579
L69.5983 82.5579
" />
<path d="M69.9611 81.2879
L70.3844 82.5579
" />
<path d="M70.3844 82.5579
L70.8078 81.2879
" />
</g><path style="fill:none; 
stroke:#000000; stroke-width:0.1524; stroke-opacity:1; 
stroke-linecap:round; stroke-linejoin:round;fill:none"
d="M 63.5000,88.9000
63.5000,90.1700
64.7700,90.1700
63.5000,91.4400
62.2300,90.1700
63.5000,90.1700
" /> 
<path d="M63.5000 88.9000
L63.5000 88.9000
" />
<text x="63.5000" y="94.6150"
textLength="4.0737" font-size="1.6933" lengthAdjust="spacingAndGlyphs"
text-anchor="middle" opacity="0" stroke-opacity="0">GND</text>
<g class="stroked-text"><desc>GND</desc>
<path d="M62.5324 93.3500
L62.4114 93.2895
" />
<path d="M62.4114 93.2895
L62.2300 93.2895
" />
<path d="M62.2300 93.2895
L62.0486 93.3500
" />
<path d="M62.0486 93.3500
L61.9276 93.4710
" />
<path d="M61.9276 93.4710
L61.8671 93.5919
" />
<path d="M61.8671 93.5919
L61.8067 93.8338
" />
<path d="M61.8067 93.8338
L61.8067 94.0152
" />
<path d="M61.8067 94.0152
L61.8671 94.2571
" />
<path d="M61.8671 94.2571
L61.9276 94.3781
" />
<path d="M61.9276 94.3781
L62.0486 94.4991
" />
<path d="M62.0486 94.4991
L62.2300 94.5595
" />
<path d="M62.2300 94.5595
L62.3509 94.5595
" />
<path d="M62.3509 94.5595
L62.5324 94.4991
" />
<path d="M62.5324 94.4991
L62.5928 94.4386
" />
<path d="M62.5928 94.4386
L62.5928 94.0152
" />
<path d="M62.5928 94.0152
L62.3509 94.0152
" />
<path d="M63.1371 94.5595
L63.1371 93.2895
" />
<path d="M63.1371 93.2895
L63.8628 94.5595
" />
<path d="M63.8628 94.5595
L63.8628 93.2895
" />
<path d="M64.4676 94.5595
L64.4676 93.2895
" />
<path d="M64.4676 93.2895
L64.7700 93.2895
" />
<path d="M64.7700 93.2895
L64.9514 93.3500
" />
<path d="M64.9514 93.3500
L65.0724 93.4710
" />
<path d="M65.0724 93.4710
L65.1329 93.5919
" />
<path d="M65.1329 93.5919
L65.1933 93.8338
" />
<path d="M65.1933 93.8338
L65.1933 94.0152
" />
<path d="M65.1933 94.0152
L65.1329 94.2571
" />
<path d="M65.1329 94.2571
L65.0724 94.3781
" />
<path d="M65.0724 94.3781
L64.9514 94.4991
" />
<path d="M64.9514 94.4991
L64.7700 94.5595
" />
<path d="M64.7700 94.5595
L64.4676 94.5595
" />
</g><circle cx="117.3480" cy="72.3900" r="0.5080" /> 
<path style="fill:none; 
stroke:#000000; stroke-width:0.1524; stroke-opacity:1; 
stroke-linecap:round; stroke-linejoin:round;fill:none"
d="M 117.8560,72.1360
121.7211,71.7500
" /> 
<circle cx="121.4120" cy="72.3900" r="0.5080" /> 
<path d="M116.8400 72.3900
L114.3000 72.3900
" />
<path d="M121.9200 72.3900
L124.4600 72.3900
" />
<text x="119.3800" y="69.2150"
textLength="2.6222" font-size="1.6933" lengthAdjust="spacingAndGlyphs"
text-anchor="middle" opacity="0" stroke-opacity="0">S1</text>
<g class="stroked-text"><desc>S1</desc>
<path d="M118.4124 69.0991
L118.5938 69.1595
" />
<path d="M118.5938 69.1595
L118.8962 69.1595
" />
<path d="M118.8962 69.1595
L119.0171 69.0991
" />
<path d="M119.0171 69.0991
L119.0776 69.0386
" />
<path d="M119.0776 69.0386
L119.1381 68.9176
" />
<path d="M119.1381 68.9176
L119.1381 68.7967
" />
<path d="M119.1381 68.7967
L119.0776 68.6757
" />
<path d="M119.0776 68.6757
L119.0171 68.6152
" />
<path d="M119.0171 68.6152
L118.8962 68.5548
" />
<path d="M118.8962 68.5548
L118.6543 68.4943
" />
<path d="M118.6543 68.4943
L118.5333 68.4338
" />
<path d="M118.5333 68.4338
L118.4728 68.3733
" />
<path d="M118.4728 68.3733
L118.4124 68.2524
" />
<path d="M118.4124 68.2524
L118.4124 68.1314
" />
<path d="M118.4124 68.1314
L118.4728 68.0105
" />
<path d="M118.4728 68.0105
L118.5333 67.9500
" />
<path d="M118.5333 67.9500
L118.6543 67.8895
" />
<path d="M118.6543 67.8895
L118.9566 67.8895
" />
<path d="M118.9566 67.8895
L119.1381 67.9500
" />
<path d="M120.3476 69.1595
L119.6219 69.1595
" />
<path d="M119.9847 69.1595
L119.9847 67.8895
" />
<path d="M119.9847 67.8895
L119.8638 68.0710
" />
<path d="M119.8638 68.0710
L119.7428 68.1919
" />
<path d="M119.7428 68.1919
L119.6219 68.2524
" />
</g></g>
<g style="fill:#000000; fill-opacity:1.0000; 
stroke:#000000; stroke-width:0.1524; stroke-opacity:1; 
stroke-linecap:round; stroke-linejoin:round;">
<rect x="104.394000" y="79.502000" width="4.572000" height="0.254000" rx="0.000000" />
<rect x="104.394000" y="82.550000" width="4.572000" height="0.254000" rx="0.000000" />
<rect x="105.156000" y="80.264000" width="3.048000" height="0.508000" rx="0.000000" />
<rect x="105.156000" y="83.312000" width="3.048000" height="0.508000" rx="0.000000" />
<path style="fill:none; 
stroke:#000000; stroke-width:0.1524; stroke-opacity:1; 
stroke-linecap:round; stroke-linejoin:round;fill:none"
d="M 106.6800,79.5020
106.6800,78.7400
" /> 
<path style="fill:none; 
stroke:#000000; stroke-width:0.1524; stroke-opacity:1; 
stroke-linecap:round; stroke-linejoin:round;fill:none"
d="M 106.6800,81.2800
106.6800,81.0260
" /> 
<path style="fill:none; 
stroke:#000000; stroke-width:0.1524; stroke-opacity:1; 
stroke-linecap:round; stroke-linejoin:round;fill:none"
d="M 106.6800,81.7880
106.6800,81.5340
" /> 
<path style="fill:none; 
stroke:#000000; stroke-width:0.1524; stroke-opacity:1; 
stroke-linecap:round; stroke-linejoin:round;fill:none"
d="M 106.6800,82.2960
106.6800,82.0420
" /> 
<path style="fill:none; 
stroke:#000000; stroke-width:0.2540; stroke-opacity:1; 
stroke-linecap:round; stroke-linejoin:round;fill:none"
d="M 107.4420,78.2320
108.4580,78.2320
" /> 
<path style="fill:none; 
stroke:#000000; stroke-width:0.2540; stroke-opacity:1; 
stroke-linecap:round; stroke-linejoin:round;fill:none"
d="M 107.9500,77.7240
107.9500,78.7400
" /> 
</g>
<g style="fill:none; 
stroke:#000000; stroke-width:0.1524; stroke-opacity:1; 
stroke-linecap:round; stroke-linejoin:round;">
<path d="M106.6800 78.7400
L106.6800 76.2000
" />
<path d="M106.6800 83.8200
L106.6800 86.3600
" />
<text x="112.3247" y="81.3434"
textLength="3.6503" font-size="1.6933" lengthAdjust="spacingAndGlyphs"
text-anchor="middle" opacity="0" stroke-opacity="0">BT1</text>
<g class="stroked-text"><desc>BT1</desc>
<path d="M111.3269 80.6227
L111.5083 80.6832
" />
<path d="M111.5083 80.6832
L111.5688 80.7436
" />
<path d="M111.5688 80.7436
L111.6292 80.8646
" />
<path d="M111.6292 80.8646
L111.6292 81.0460
" />
<path d="M111.6292 81.0460
L111.5688 81.1670
" />
<path d="M111.5688 81.1670
L111.5083 81.2275
" />
<path d="M111.5083 81.2275
L111.3873 81.2879
" />
<path d="M111.3873 81.2879
L110.9035 81.2879
" />
<path d="M110.9035 81.2879
L110.9035 80.0179
" />
<path d="M110.9035 80.0179
L111.3269 80.0179
" />
<path d="M111.3269 80.0179
L111.4478 80.0784
" />
<path d="M111.4478 80.0784
L111.5083 80.1389
" />
<path d="M111.5083 80.1389
L111.5688 80.2598
" />
<path d="M111.5688 80.2598
L111.5688 80.3808
" />
<path d="M111.5688 80.3808
L111.5083 80.5017
" />
<path d="M111.5083 80.5017
L111.4478 80.5622
" />
<path d="M111.4478 80.5622
L111.3269 80.6227
" />
<path d="M111.3269 80.6227
L110.9035 80.6227
" />
<path d="M111.9921 80.0179
L112.7178 80.0179
" />
<path d="M112.3550 81.2879
L112.3550 80.0179
" />
<path d="M113.8064 81.2879
L113.0807 81.2879
" />
<path d="M113.4435 81.2879
L113.4435 80.0179
" />
<path d="M113.4435 80.0179
L113.3226 80.1994
" />
<path d="M113.3226 80.1994
L113.2016 80.3203
" />
<path d="M113.2016 80.3203
L113.0807 80.3808
" />
</g><text x="112.3550" y="83.1850"
textLength="3.7108" font-size="1.6933" lengthAdjust="spacingAndGlyphs"
text-anchor="middle" opacity="0" stroke-opacity="0">12V</text>
<g class="stroked-text"><desc>12V</desc>
<path d="M111.5688 83.1295
L110.8431 83.1295
" />
<path d="M111.2059 83.1295
L111.2059 81.8595
" />
<path d="M111.2059 81.8595
L111.0850 82.0410
" />
<path d="M111.0850 82.0410
L110.9640 82.1619
" />
<path d="M110.9640 82.1619
L110.8431 82.2224
" />
<path d="M112.0526 81.9805
L112.1130 81.9200
" />
<path d="M112.1130 81.9200
L112.2340 81.8595
" />
<path d="M112.2340 81.8595
L112.5364 81.8595
" />
<path d="M112.5364 81.8595
L112.6573 81.9200
" />
<path d="M112.6573 81.9200
L112.7178 81.9805
" />
<path d="M112.7178 81.9805
L112.7783 82.1014
" />
<path d="M112.7783 82.1014
L112.7783 82.2224
" />
<path d="M112.7783 82.2224
L112.7178 82.4038
" />
<path d="M112.7178 82.4038
L111.9921 83.1295
" />
<path d="M111.9921 83.1295
L112.7783 83.1295
" />
<path d="M113.1411 81.8595
L113.5644 83.1295
" />
<path d="M113.5644 83.1295
L113.9878 81.8595
" />
</g><path d="M132.0800 72.3900
L132.0800 76.2000
" />
<path d="M124.4600 72.3900
L132.0800 72.3900
" />
<path d="M106.6800 88.9000
L132.0800 88.9000
" />
<path d="M88.9000 86.3600
L88.9000 88.9000
" />
<path d="M63.5000 86.3600
L63.5000 88.9000
" />
<path d="M63.5000 88.9000
L88.9000 88.9000
" />
<path d="M132.0800 86.3600
L132.0800 88.9000
" />
<path d="M106.6800 86.3600
L106.6800 88.9000
" />
<path d="M106.6800 72.3900
L114.3000 72.3900
" />
<path d="M88.9000 72.3900
L88.9000 76.2000
" />
<path d="M106.6800 76.2000
L106.6800 72.3900
" />
<path d="M63.5000 72.3900
L71.1200 72.3900
" />
<path d="M63.5000 76.2000
L63.5000 72.3900
" />
<path d="M81.2800 72.3900
L88.9000 72.3900
" />
</g>
<g style="fill:none; 
stroke:#000000; stroke-width:0.1524; stroke-opacity:1; 
stroke-linecap:round; stroke-linejoin:round;">
<text x="60.7060" y="87.5070"
textLength="4.3156" font-size="1.6933" lengthAdjust="spacingAndGlyphs"
text-anchor="middle" opacity="0" stroke-opacity="0">0.5A</text>
<g class="stroked-text"><desc>0.5A</desc>
<path d="M59.1940 86.1815
L59.3150 86.1815
" />
<path d="M59.3150 86.1815
L59.4359 86.2420
" />
<path d="M59.4359 86.2420
L59.4964 86.3025
" />
<path d="M59.4964 86.3025
L59.5569 86.4234
" />
<path d="M59.5569 86.4234
L59.6174 86.6653
" />
<path d="M59.6174 86.6653
L59.6174 86.9677
" />
<path d="M59.6174 86.9677
L59.5569 87.2096
" />
<path d="M59.5569 87.2096
L59.4964 87.3306
" />
<path d="M59.4964 87.3306
L59.4359 87.3911
" />
<path d="M59.4359 87.3911
L59.3150 87.4515
" />
<path d="M59.3150 87.4515
L59.1940 87.4515
" />
<path d="M59.1940 87.4515
L59.0731 87.3911
" />
<path d="M59.0731 87.3911
L59.0126 87.3306
" />
<path d="M59.0126 87.3306
L58.9521 87.2096
" />
<path d="M58.9521 87.2096
L58.8917 86.9677
" />
<path d="M58.8917 86.9677
L58.8917 86.6653
" />
<path d="M58.8917 86.6653
L58.9521 86.4234
" />
<path d="M58.9521 86.4234
L59.0126 86.3025
" />
<path d="M59.0126 86.3025
L59.0731 86.2420
" />
<path d="M59.0731 86.2420
L59.1940 86.1815
" />
<path d="M60.1616 87.3306
L60.2221 87.3911
" />
<path d="M60.2221 87.3911
L60.1616 87.4515
" />
<path d="M60.1616 87.4515
L60.1012 87.3911
" />
<path d="M60.1012 87.3911
L60.1616 87.3306
" />
<path d="M60.1616 87.3306
L60.1616 87.4515
" />
<path d="M61.3712 86.1815
L60.7664 86.1815
" />
<path d="M60.7664 86.1815
L60.7060 86.7863
" />
<path d="M60.7060 86.7863
L60.7664 86.7258
" />
<path d="M60.7664 86.7258
L60.8874 86.6653
" />
<path d="M60.8874 86.6653
L61.1898 86.6653
" />
<path d="M61.1898 86.6653
L61.3107 86.7258
" />
<path d="M61.3107 86.7258
L61.3712 86.7863
" />
<path d="M61.3712 86.7863
L61.4317 86.9072
" />
<path d="M61.4317 86.9072
L61.4317 87.2096
" />
<path d="M61.4317 87.2096
L61.3712 87.3306
" />
<path d="M61.3712 87.3306
L61.3107 87.3911
" />
<path d="M61.3107 87.3911
L61.1898 87.4515
" />
<path d="M61.1898 87.4515
L60.8874 87.4515
" />
<path d="M60.8874 87.4515
L60.7664 87.3911
" />
<path d="M60.7664 87.3911
L60.7060 87.3306
" />
<path d="M61.9155 87.0887
L62.5202 87.0887
" />
<path d="M61.7945 87.4515
L62.2178 86.1815
" />
<path d="M62.2178 86.1815
L62.6412 87.4515
" />
</g></g>
<g style="fill:none; 
stroke:#000000; stroke-width:0.1524; stroke-opacity:1; 
stroke-linecap:round; stroke-linejoin:round;">
<text x="136.6520" y="81.9190"
textLength="2.5013" font-size="1.6933" lengthAdjust="spacingAndGlyphs"
text-anchor="middle" opacity="0" stroke-opacity="0">6V</text>
<g class="stroked-text"><desc>6V</desc>
<path d="M136.3496 80.5935
L136.1077 80.5935
" />
<path d="M136.1077 80.5935
L135.9868 80.6540
" />
<path d="M135.9868 80.6540
L135.9263 80.7145
" />
<path d="M135.9263 80.7145
L135.8053 80.8959
" />
<path d="M135.8053 80.8959
L135.7449 81.1378
" />
<path d="M135.7449 81.1378
L135.7449 81.6216
" />
<path d="M135.7449 81.6216
L135.8053 81.7426
" />
<path d="M135.8053 81.7426
L135.8658 81.8031
" />
<path d="M135.8658 81.8031
L135.9868 81.8635
" />
<path d="M135.9868 81.8635
L136.2287 81.8635
" />
<path d="M136.2287 81.8635
L136.3496 81.8031
" />
<path d="M136.3496 81.8031
L136.4101 81.7426
" />
<path d="M136.4101 81.7426
L136.4706 81.6216
" />
<path d="M136.4706 81.6216
L136.4706 81.3192
" />
<path d="M136.4706 81.3192
L136.4101 81.1983
" />
<path d="M136.4101 81.1983
L136.3496 81.1378
" />
<path d="M136.3496 81.1378
L136.2287 81.0773
" />
<path d="M136.2287 81.0773
L135.9868 81.0773
" />
<path d="M135.9868 81.0773
L135.8658 81.1378
" />
<path d="M135.8658 81.1378
L135.8053 81.1983
" />
<path d="M135.8053 81.1983
L135.7449 81.3192
" />
<path d="M136.8334 80.5935
L137.2567 81.8635
" />
<path d="M137.2567 81.8635
L137.6801 80.5935
" />
</g></g>
<g style="fill:none; 
stroke:#000000; stroke-width:0.1524; stroke-opacity:1; 
stroke-linecap:round; stroke-linejoin:round;">
<text x="104.6480" y="86.4910"
textLength="2.5013" font-size="1.6933" lengthAdjust="spacingAndGlyphs"
text-anchor="middle" opacity="0" stroke-opacity="0">0V</text>
<g class="stroked-text"><desc>0V</desc>
<path d="M104.0432 85.1655
L104.1642 85.1655
" />
<path d="M104.1642 85.1655
L104.2851 85.2260
" />
<path d="M104.2851 85.2260
L104.3456 85.2865
" />
<path d="M104.3456 85.2865
L104.4061 85.4074
" />
<path d="M104.4061 85.4074
L104.4666 85.6493
" />
<path d="M104.4666 85.6493
L104.4666 85.9517
" />
<path d="M104.4666 85.9517
L104.4061 86.1936
" />
<path d="M104.4061 86.1936
L104.3456 86.3146
" />
<path d="M104.3456 86.3146
L104.2851 86.3751
" />
<path d="M104.2851 86.3751
L104.1642 86.4355
" />
<path d="M104.1642 86.4355
L104.0432 86.4355
" />
<path d="M104.0432 86.4355
L103.9223 86.3751
" />
<path d="M103.9223 86.3751
L103.8618 86.3146
" />
<path d="M103.8618 86.3146
L103.8013 86.1936
" />
<path d="M103.8013 86.1936
L103.7409 85.9517
" />
<path d="M103.7409 85.9517
L103.7409 85.6493
" />
<path d="M103.7409 85.6493
L103.8013 85.4074
" />
<path d="M103.8013 85.4074
L103.8618 85.2865
" />
<path d="M103.8618 85.2865
L103.9223 85.2260
" />
<path d="M103.9223 85.2260
L104.0432 85.1655
" />
<path d="M104.8294 85.1655
L105.2527 86.4355
" />
<path d="M105.2527 86.4355
L105.6761 85.1655
" />
</g></g>
<g style="fill:none; 
stroke:#000000; stroke-width:0.1524; stroke-opacity:1; 
stroke-linecap:round; stroke-linejoin:round;">
<text x="109.2200" y="88.5230"
textLength="2.5013" font-size="1.6933" lengthAdjust="spacingAndGlyphs"
text-anchor="middle" opacity="0" stroke-opacity="0">0V</text>
<g class="stroked-text"><desc>0V</desc>
<path d="M108.6152 87.1975
L108.7362 87.1975
" />
<path d="M108.7362 87.1975
L108.8571 87.2580
" />
<path d="M108.8571 87.2580
L108.9176 87.3185
" />
<path d="M108.9176 87.3185
L108.9781 87.4394
" />
<path d="M108.9781 87.4394
L109.0386 87.6813
" />
<path d="M109.0386 87.6813
L109.0386 87.9837
" />
<path d="M109.0386 87.9837
L108.9781 88.2256
" />
<path d="M108.9781 88.2256
L108.9176 88.3466
" />
<path d="M108.9176 88.3466
L108.8571 88.4071
" />
<path d="M108.8571 88.4071
L108.7362 88.4675
" />
<path d="M108.7362 88.4675
L108.6152 88.4675
" />
<path d="M108.6152 88.4675
L108.4943 88.4071
" />
<path d="M108.4943 88.4071
L108.4338 88.3466
" />
<path d="M108.4338 88.3466
L108.3733 88.2256
" />
<path d="M108.3733 88.2256
L108.3129 87.9837
" />
<path d="M108.3129 87.9837
L108.3129 87.6813
" />
<path d="M108.3129 87.6813
L108.3733 87.4394
" />
<path d="M108.3733 87.4394
L108.4338 87.3185
" />
<path d="M108.4338 87.3185
L108.4943 87.2580
" />
<path d="M108.4943 87.2580
L108.6152 87.1975
" />
<path d="M109.4014 87.1975
L109.8247 88.4675
" />
<path d="M109.8247 88.4675
L110.2481 87.1975
" />
</g></g>
<g style="fill:none; 
stroke:#000000; stroke-width:0.1524; stroke-opacity:1; 
stroke-linecap:round; stroke-linejoin:round;">
<text x="126.7460" y="88.5230"
textLength="2.5013" font-size="1.6933" lengthAdjust="spacingAndGlyphs"
text-anchor="middle" opacity="0" stroke-opacity="0">0V</text>
<g class="stroked-text"><desc>0V</desc>
<path d="M126.1412 87.1975
L126.2622 87.1975
" />
<path d="M126.2622 87.1975
L126.3831 87.2580
" />
<path d="M126.3831 87.2580
L126.4436 87.3185
" />
<path d="M126.4436 87.3185
L126.5041 87.4394
" />
<path d="M126.5041 87.4394
L126.5646 87.6813
" />
<path d="M126.5646 87.6813
L126.5646 87.9837
" />
<path d="M126.5646 87.9837
L126.5041 88.2256
" />
<path d="M126.5041 88.2256
L126.4436 88.3466
" />
<path d="M126.4436 88.3466
L126.3831 88.4071
" />
<path d="M126.3831 88.4071
L126.2622 88.4675
" />
<path d="M126.2622 88.4675
L126.1412 88.4675
" />
<path d="M126.1412 88.4675
L126.0203 88.4071
" />
<path d="M126.0203 88.4071
L125.9598 88.3466
" />
<path d="M125.9598 88.3466
L125.8993 88.2256
" />
<path d="M125.8993 88.2256
L125.8389 87.9837
" />
<path d="M125.8389 87.9837
L125.8389 87.6813
" />
<path d="M125.8389 87.6813
L125.8993 87.4394
" />
<path d="M125.8993 87.4394
L125.9598 87.3185
" />
<path d="M125.9598 87.3185
L126.0203 87.2580
" />
<path d="M126.0203 87.2580
L126.1412 87.1975
" />
<path d="M126.9274 87.1975
L127.3507 88.4675
" />
<path d="M127.3507 88.4675
L127.7741 87.1975
" />
</g></g>
<g style="fill:none; 
stroke:#000000; stroke-width:0.1524; stroke-opacity:1; 
stroke-linecap:round; stroke-linejoin:round;">
<text x="104.6480" y="77.8550"
textLength="3.7108" font-size="1.6933" lengthAdjust="spacingAndGlyphs"
text-anchor="middle" opacity="0" stroke-opacity="0">12V</text>
<g class="stroked-text"><desc>12V</desc>
<path d="M103.8618 77.7995
L103.1361 77.7995
" />
<path d="M103.4989 77.7995
L103.4989 76.5295
" />
<path d="M103.4989 76.5295
L103.3780 76.7110
" />
<path d="M103.3780 76.7110
L103.2570 76.8319
" />
<path d="M103.2570 76.8319
L103.1361 76.8924
" />
<path d="M104.3456 76.6505
L104.4060 76.5900
" />
<path d="M104.4060 76.5900
L104.5270 76.5295
" />
<path d="M104.5270 76.5295
L104.8294 76.5295
" />
<path d="M104.8294 76.5295
L104.9503 76.5900
" />
<path d="M104.9503 76.5900
L105.0108 76.6505
" />
<path d="M105.0108 76.6505
L105.0713 76.7714
" />
<path d="M105.0713 76.7714
L105.0713 76.8924
" />
<path d="M105.0713 76.8924
L105.0108 77.0738
" />
<path d="M105.0108 77.0738
L104.2851 77.7995
" />
<path d="M104.2851 77.7995
L105.0713 77.7995
" />
<path d="M105.4341 76.5295
L105.8574 77.7995
" />
<path d="M105.8574 77.7995
L106.2808 76.5295
" />
</g></g>
<g style="fill:none; 
stroke:#000000; stroke-width:0.1524; stroke-opacity:1; 
stroke-linecap:round; stroke-linejoin:round;">
<text x="60.7060" y="75.5690"
textLength="4.3156" font-size="1.6933" lengthAdjust="spacingAndGlyphs"
text-anchor="middle" opacity="0" stroke-opacity="0">0.5A</text>
<g class="stroked-text"><desc>0.5A</desc>
<path d="M59.1940 74.2435
L59.3150 74.2435
" />
<path d="M59.3150 74.2435
L59.4359 74.3040
" />
<path d="M59.4359 74.3040
L59.4964 74.3645
" />
<path d="M59.4964 74.3645
L59.5569 74.4854
" />
<path d="M59.5569 74.4854
L59.6174 74.7273
" />
<path d="M59.6174 74.7273
L59.6174 75.0297
" />
<path d="M59.6174 75.0297
L59.5569 75.2716
" />
<path d="M59.5569 75.2716
L59.4964 75.3926
" />
<path d="M59.4964 75.3926
L59.4359 75.4531
" />
<path d="M59.4359 75.4531
L59.3150 75.5135
" />
<path d="M59.3150 75.5135
L59.1940 75.5135
" />
<path d="M59.1940 75.5135
L59.0731 75.4531
" />
<path d="M59.0731 75.4531
L59.0126 75.3926
" />
<path d="M59.0126 75.3926
L58.9521 75.2716
" />
<path d="M58.9521 75.2716
L58.8917 75.0297
" />
<path d="M58.8917 75.0297
L58.8917 74.7273
" />
<path d="M58.8917 74.7273
L58.9521 74.4854
" />
<path d="M58.9521 74.4854
L59.0126 74.3645
" />
<path d="M59.0126 74.3645
L59.0731 74.3040
" />
<path d="M59.0731 74.3040
L59.1940 74.2435
" />
<path d="M60.1616 75.3926
L60.2221 75.4531
" />
<path d="M60.2221 75.4531
L60.1616 75.5135
" />
<path d="M60.1616 75.5135
L60.1012 75.4531
" />
<path d="M60.1012 75.4531
L60.1616 75.3926
" />
<path d="M60.1616 75.3926
L60.1616 75.5135
" />
<path d="M61.3712 74.2435
L60.7664 74.2435
" />
<path d="M60.7664 74.2435
L60.7060 74.8483
" />
<path d="M60.7060 74.8483
L60.7664 74.7878
" />
<path d="M60.7664 74.7878
L60.8874 74.7273
" />
<path d="M60.8874 74.7273
L61.1898 74.7273
" />
<path d="M61.1898 74.7273
L61.3107 74.7878
" />
<path d="M61.3107 74.7878
L61.3712 74.8483
" />
<path d="M61.3712 74.8483
L61.4317 74.9692
" />
<path d="M61.4317 74.9692
L61.4317 75.2716
" />
<path d="M61.4317 75.2716
L61.3712 75.3926
" />
<path d="M61.3712 75.3926
L61.3107 75.4531
" />
<path d="M61.3107 75.4531
L61.1898 75.5135
" />
<path d="M61.1898 75.5135
L60.8874 75.5135
" />
<path d="M60.8874 75.5135
L60.7664 75.4531
" />
<path d="M60.7664 75.4531
L60.7060 75.3926
" />
<path d="M61.9155 75.1507
L62.5202 75.1507
" />
<path d="M61.7945 75.5135
L62.2178 74.2435
" />
<path d="M62.2178 74.2435
L62.6412 75.5135
" />
</g></g>
<g style="fill:none; 
stroke:#000000; stroke-width:0.1524; stroke-opacity:1; 
stroke-linecap:round; stroke-linejoin:round;">
<text x="136.6520" y="80.1410"
textLength="2.5013" font-size="1.6933" lengthAdjust="spacingAndGlyphs"
text-anchor="middle" opacity="0" stroke-opacity="0">9V</text>
<g class="stroked-text"><desc>9V</desc>
<path d="M135.8658 80.0855
L136.1077 80.0855
" />
<path d="M136.1077 80.0855
L136.2287 80.0251
" />
<path d="M136.2287 80.0251
L136.2891 79.9646
" />
<path d="M136.2891 79.9646
L136.4101 79.7831
" />
<path d="M136.4101 79.7831
L136.4706 79.5412
" />
<path d="M136.4706 79.5412
L136.4706 79.0574
" />
<path d="M136.4706 79.0574
L136.4101 78.9365
" />
<path d="M136.4101 78.9365
L136.3496 78.8760
" />
<path d="M136.3496 78.8760
L136.2287 78.8155
" />
<path d="M136.2287 78.8155
L135.9868 78.8155
" />
<path d="M135.9868 78.8155
L135.8658 78.8760
" />
<path d="M135.8658 78.8760
L135.8053 78.9365
" />
<path d="M135.8053 78.9365
L135.7449 79.0574
" />
<path d="M135.7449 79.0574
L135.7449 79.3598
" />
<path d="M135.7449 79.3598
L135.8053 79.4808
" />
<path d="M135.8053 79.4808
L135.8658 79.5412
" />
<path d="M135.8658 79.5412
L135.9868 79.6017
" />
<path d="M135.9868 79.6017
L136.2287 79.6017
" />
<path d="M136.2287 79.6017
L136.3496 79.5412
" />
<path d="M136.3496 79.5412
L136.4101 79.4808
" />
<path d="M136.4101 79.4808
L136.4706 79.3598
" />
<path d="M136.8334 78.8155
L137.2567 80.0855
" />
<path d="M137.2567 80.0855
L137.6801 78.8155
" />
</g></g>
<g style="fill:none; 
stroke:#000000; stroke-width:0.1524; stroke-opacity:1; 
stroke-linecap:round; stroke-linejoin:round;">
<text x="134.3660" y="75.0610"
textLength="3.7108" font-size="1.6933" lengthAdjust="spacingAndGlyphs"
text-anchor="middle" opacity="0" stroke-opacity="0">12V</text>
<g class="stroked-text"><desc>12V</desc>
<path d="M133.5798 75.0055
L132.8541 75.0055
" />
<path d="M133.2169 75.0055
L133.2169 73.7355
" />
<path d="M133.2169 73.7355
L133.0960 73.9170
" />
<path d="M133.0960 73.9170
L132.9750 74.0379
" />
<path d="M132.9750 74.0379
L132.8541 74.0984
" />
<path d="M134.0636 73.8565
L134.1240 73.7960
" />
<path d="M134.1240 73.7960
L134.2450 73.7355
" />
<path d="M134.2450 73.7355
L134.5474 73.7355
" />
<path d="M134.5474 73.7355
L134.6683 73.7960
" />
<path d="M134.6683 73.7960
L134.7288 73.8565
" />
<path d="M134.7288 73.8565
L134.7893 73.9774
" />
<path d="M134.7893 73.9774
L134.7893 74.0984
" />
<path d="M134.7893 74.0984
L134.7288 74.2798
" />
<path d="M134.7288 74.2798
L134.0031 75.0055
" />
<path d="M134.0031 75.0055
L134.7893 75.0055
" />
<path d="M135.1521 73.7355
L135.5754 75.0055
" />
<path d="M135.5754 75.0055
L135.9988 73.7355
" />
</g></g>
<g style="fill:none; 
stroke:#000000; stroke-width:0.1524; stroke-opacity:1; 
stroke-linecap:round; stroke-linejoin:round;">
<text x="127.5080" y="72.0130"
textLength="3.7108" font-size="1.6933" lengthAdjust="spacingAndGlyphs"
text-anchor="middle" opacity="0" stroke-opacity="0">12V</text>
<g class="stroked-text"><desc>12V</desc>
<path d="M126.7218 71.9575
L125.9961 71.9575
" />
<path d="M126.3589 71.9575
L126.3589 70.6875
" />
<path d="M126.3589 70.6875
L126.2380 70.8690
" />
<path d="M126.2380 70.8690
L126.1170 70.9899
" />
<path d="M126.1170 70.9899
L125.9961 71.0504
" />
<path d="M127.2056 70.8085
L127.2660 70.7480
" />
<path d="M127.2660 70.7480
L127.3870 70.6875
" />
<path d="M127.3870 70.6875
L127.6894 70.6875
" />
<path d="M127.6894 70.6875
L127.8103 70.7480
" />
<path d="M127.8103 70.7480
L127.8708 70.8085
" />
<path d="M127.8708 70.8085
L127.9313 70.9294
" />
<path d="M127.9313 70.9294
L127.9313 71.0504
" />
<path d="M127.9313 71.0504
L127.8708 71.2318
" />
<path d="M127.8708 71.2318
L127.1451 71.9575
" />
<path d="M127.1451 71.9575
L127.9313 71.9575
" />
<path d="M128.2941 70.6875
L128.7174 71.9575
" />
<path d="M128.7174 71.9575
L129.1408 70.6875
" />
</g></g>
<g style="fill:none; 
stroke:#000000; stroke-width:0.1524; stroke-opacity:1; 
stroke-linecap:round; stroke-linejoin:round;">
<text x="111.2520" y="72.0130"
textLength="3.7108" font-size="1.6933" lengthAdjust="spacingAndGlyphs"
text-anchor="middle" opacity="0" stroke-opacity="0">12V</text>
<g class="stroked-text"><desc>12V</desc>
<path d="M110.4658 71.9575
L109.7401 71.9575
" />
<path d="M110.1029 71.9575
L110.1029 70.6875
" />
<path d="M110.1029 70.6875
L109.9820 70.8690
" />
<path d="M109.9820 70.8690
L109.8610 70.9899
" />
<path d="M109.8610 70.9899
L109.7401 71.0504
" />
<path d="M110.9496 70.8085
L111.0100 70.7480
" />
<path d="M111.0100 70.7480
L111.1310 70.6875
" />
<path d="M111.1310 70.6875
L111.4334 70.6875
" />
<path d="M111.4334 70.6875
L111.5543 70.7480
" />
<path d="M111.5543 70.7480
L111.6148 70.8085
" />
<path d="M111.6148 70.8085
L111.6753 70.9294
" />
<path d="M111.6753 70.9294
L111.6753 71.0504
" />
<path d="M111.6753 71.0504
L111.6148 71.2318
" />
<path d="M111.6148 71.2318
L110.8891 71.9575
" />
<path d="M110.8891 71.9575
L111.6753 71.9575
" />
<path d="M112.0381 70.6875
L112.4614 71.9575
" />
<path d="M112.4614 71.9575
L112.8848 70.6875
" />
</g></g>
<g style="fill:none; 
stroke:#000000; stroke-width:0.1524; stroke-opacity:1; 
stroke-linecap:round; stroke-linejoin:round;">
<text x="133.6040" y="88.7770"
textLength="2.5013" font-size="1.6933" lengthAdjust="spacingAndGlyphs"
text-anchor="middle" opacity="0" stroke-opacity="0">0V</text>
<g class="stroked-text"><desc>0V</desc>
<path d="M132.9992 87.4515
L133.1202 87.4515
" />
<path d="M133.1202 87.4515
L133.2411 87.5120
" />
<path d="M133.2411 87.5120
L133.3016 87.5725
" />
<path d="M133.3016 87.5725
L133.3621 87.6934
" />
<path d="M133.3621 87.6934
L133.4226 87.9353
" />
<path d="M133.4226 87.9353
L133.4226 88.2377
" />
<path d="M133.4226 88.2377
L133.3621 88.4796
" />
<path d="M133.3621 88.4796
L133.3016 88.6006
" />
<path d="M133.3016 88.6006
L133.2411 88.6611
" />
<path d="M133.2411 88.6611
L133.1202 88.7215
" />
<path d="M133.1202 88.7215
L132.9992 88.7215
" />
<path d="M132.9992 88.7215
L132.8783 88.6611
" />
<path d="M132.8783 88.6611
L132.8178 88.6006
" />
<path d="M132.8178 88.6006
L132.7573 88.4796
" />
<path d="M132.7573 88.4796
L132.6969 88.2377
" />
<path d="M132.6969 88.2377
L132.6969 87.9353
" />
<path d="M132.6969 87.9353
L132.7573 87.6934
" />
<path d="M132.7573 87.6934
L132.8178 87.5725
" />
<path d="M132.8178 87.5725
L132.8783 87.5120
" />
<path d="M132.8783 87.5120
L132.9992 87.4515
" />
<path d="M133.7854 87.4515
L134.2087 88.7215
" />
<path d="M134.2087 88.7215
L134.6321 87.4515
" />
</g></g>
<g style="fill:none; 
stroke:#000000; stroke-width:0.1524; stroke-opacity:1; 
stroke-linecap:round; stroke-linejoin:round;">
<text x="67.0560" y="72.0130"
textLength="4.3156" font-size="1.6933" lengthAdjust="spacingAndGlyphs"
text-anchor="middle" opacity="0" stroke-opacity="0">0.5A</text>
<g class="stroked-text"><desc>0.5A</desc>
<path d="M65.5440 70.6875
L65.6650 70.6875
" />
<path d="M65.6650 70.6875
L65.7859 70.7480
" />
<path d="M65.7859 70.7480
L65.8464 70.8085
" />
<path d="M65.8464 70.8085
L65.9069 70.9294
" />
<path d="M65.9069 70.9294
L65.9674 71.1713
" />
<path d="M65.9674 71.1713
L65.9674 71.4737
" />
<path d="M65.9674 71.4737
L65.9069 71.7156
" />
<path d="M65.9069 71.7156
L65.8464 71.8366
" />
<path d="M65.8464 71.8366
L65.7859 71.8971
" />
<path d="M65.7859 71.8971
L65.6650 71.9575
" />
<path d="M65.6650 71.9575
L65.5440 71.9575
" />
<path d="M65.5440 71.9575
L65.4231 71.8971
" />
<path d="M65.4231 71.8971
L65.3626 71.8366
" />
<path d="M65.3626 71.8366
L65.3021 71.7156
" />
<path d="M65.3021 71.7156
L65.2417 71.4737
" />
<path d="M65.2417 71.4737
L65.2417 71.1713
" />
<path d="M65.2417 71.1713
L65.3021 70.9294
" />
<path d="M65.3021 70.9294
L65.3626 70.8085
" />
<path d="M65.3626 70.8085
L65.4231 70.7480
" />
<path d="M65.4231 70.7480
L65.5440 70.6875
" />
<path d="M66.5116 71.8366
L66.5721 71.8971
" />
<path d="M66.5721 71.8971
L66.5116 71.9575
" />
<path d="M66.5116 71.9575
L66.4512 71.8971
" />
<path d="M66.4512 71.8971
L66.5116 71.8366
" />
<path d="M66.5116 71.8366
L66.5116 71.9575
" />
<path d="M67.7212 70.6875
L67.1164 70.6875
" />
<path d="M67.1164 70.6875
L67.0560 71.2923
" />
<path d="M67.0560 71.2923
L67.1164 71.2318
" />
<path d="M67.1164 71.2318
L67.2374 71.1713
" />
<path d="M67.2374 71.1713
L67.5398 71.1713
" />
<path d="M67.5398 71.1713
L67.6607 71.2318
" />
<path d="M67.6607 71.2318
L67.7212 71.2923
" />
<path d="M67.7212 71.2923
L67.7817 71.4132
" />
<path d="M67.7817 71.4132
L67.7817 71.7156
" />
<path d="M67.7817 71.7156
L67.7212 71.8366
" />
<path d="M67.7212 71.8366
L67.6607 71.8971
" />
<path d="M67.6607 71.8971
L67.5398 71.9575
" />
<path d="M67.5398 71.9575
L67.2374 71.9575
" />
<path d="M67.2374 71.9575
L67.1164 71.8971
" />
<path d="M67.1164 71.8971
L67.0560 71.8366
" />
<path d="M68.2655 71.5947
L68.8702 71.5947
" />
<path d="M68.1445 71.9575
L68.5678 70.6875
" />
<path d="M68.5678 70.6875
L68.9912 71.9575
" />
</g></g>
<g style="fill:none; 
stroke:#000000; stroke-width:0.1524; stroke-opacity:1; 
stroke-linecap:round; stroke-linejoin:round;">
<text x="84.3280" y="72.0130"
textLength="4.3156" font-size="1.6933" lengthAdjust="spacingAndGlyphs"
text-anchor="middle" opacity="0" stroke-opacity="0">0.5A</text>
<g class="stroked-text"><desc>0.5A</desc>
<path d="M82.8160 70.6875
L82.9370 70.6875
" />
<path d="M82.9370 70.6875
L83.0579 70.7480
" />
<path d="M83.0579 70.7480
L83.1184 70.8085
" />
<path d="M83.1184 70.8085
L83.1789 70.9294
" />
<path d="M83.1789 70.9294
L83.2394 71.1713
" />
<path d="M83.2394 71.1713
L83.2394 71.4737
" />
<path d="M83.2394 71.4737
L83.1789 71.7156
" />
<path d="M83.1789 71.7156
L83.1184 71.8366
" />
<path d="M83.1184 71.8366
L83.0579 71.8971
" />
<path d="M83.0579 71.8971
L82.9370 71.9575
" />
<path d="M82.9370 71.9575
L82.8160 71.9575
" />
<path d="M82.8160 71.9575
L82.6951 71.8971
" />
<path d="M82.6951 71.8971
L82.6346 71.8366
" />
<path d="M82.6346 71.8366
L82.5741 71.7156
" />
<path d="M82.5741 71.7156
L82.5137 71.4737
" />
<path d="M82.5137 71.4737
L82.5137 71.1713
" />
<path d="M82.5137 71.1713
L82.5741 70.9294
" />
<path d="M82.5741 70.9294
L82.6346 70.8085
" />
<path d="M82.6346 70.8085
L82.6951 70.7480
" />
<path d="M82.6951 70.7480
L82.8160 70.6875
" />
<path d="M83.7836 71.8366
L83.8441 71.8971
" />
<path d="M83.8441 71.8971
L83.7836 71.9575
" />
<path d="M83.7836 71.9575
L83.7232 71.8971
" />
<path d="M83.7232 71.8971
L83.7836 71.8366
" />
<path d="M83.7836 71.8366
L83.7836 71.9575
" />
<path d="M84.9932 70.6875
L84.3884 70.6875
" />
<path d="M84.3884 70.6875
L84.3280 71.2923
" />
<path d="M84.3280 71.2923
L84.3884 71.2318
" />
<path d="M84.3884 71.2318
L84.5094 71.1713
" />
<path d="M84.5094 71.1713
L84.8118 71.1713
" />
<path d="M84.8118 71.1713
L84.9327 71.2318
" />
<path d="M84.9327 71.2318
L84.9932 71.2923
" />
<path d="M84.9932 71.2923
L85.0537 71.4132
" />
<path d="M85.0537 71.4132
L85.0537 71.7156
" />
<path d="M85.0537 71.7156
L84.9932 71.8366
" />
<path d="M84.9932 71.8366
L84.9327 71.8971
" />
<path d="M84.9327 71.8971
L84.8118 71.9575
" />
<path d="M84.8118 71.9575
L84.5094 71.9575
" />
<path d="M84.5094 71.9575
L84.3884 71.8971
" />
<path d="M84.3884 71.8971
L84.3280 71.8366
" />
<path d="M85.5375 71.5947
L86.1422 71.5947
" />
<path d="M85.4165 71.9575
L85.8398 70.6875
" />
<path d="M85.8398 70.6875
L86.2632 71.9575
" />
</g></g>
<g style="fill:none; 
stroke:#000000; stroke-width:0.1524; stroke-opacity:1; 
stroke-linecap:round; stroke-linejoin:round;">
<text x="136.6520" y="78.3630"
textLength="3.7108" font-size="1.6933" lengthAdjust="spacingAndGlyphs"
text-anchor="middle" opacity="0" stroke-opacity="0">12V</text>
<g class="stroked-text"><desc>12V</desc>
<path d="M135.8658 78.3075
L135.1401 78.3075
" />
<path d="M135.5029 78.3075
L135.5029 77.0375
" />
<path d="M135.5029 77.0375
L135.3820 77.2190
" />
<path d="M135.3820 77.2190
L135.2610 77.3399
" />
<path d="M135.2610 77.3399
L135.1401 77.4004
" />
<path d="M136.3496 77.1585
L136.4100 77.0980
" />
<path d="M136.4100 77.0980
L136.5310 77.0375
" />
<path d="M136.5310 77.0375
L136.8334 77.0375
" />
<path d="M136.8334 77.0375
L136.9543 77.0980
" />
<path d="M136.9543 77.0980
L137.0148 77.1585
" />
<path d="M137.0148 77.1585
L137.0753 77.2794
" />
<path d="M137.0753 77.2794
L137.0753 77.4004
" />
<path d="M137.0753 77.4004
L137.0148 77.5818
" />
<path d="M137.0148 77.5818
L136.2891 78.3075
" />
<path d="M136.2891 78.3075
L137.0753 78.3075
" />
<path d="M137.4381 77.0375
L137.8614 78.3075
" />
<path d="M137.8614 78.3075
L138.2848 77.0375
" />
</g></g>
<g style="fill:none; 
stroke:#000000; stroke-width:0.1524; stroke-opacity:1; 
stroke-linecap:round; stroke-linejoin:round;">
<text x="91.4400" y="87.7610"
textLength="4.3156" font-size="1.6933" lengthAdjust="spacingAndGlyphs"
text-anchor="middle" opacity="0" stroke-opacity="0">0.5A</text>
<g class="stroked-text"><desc>0.5A</desc>
<path d="M89.9280 86.4355
L90.0490 86.4355
" />
<path d="M90.0490 86.4355
L90.1699 86.4960
" />
<path d="M90.1699 86.4960
L90.2304 86.5565
" />
<path d="M90.2304 86.5565
L90.2909 86.6774
" />
<path d="M90.2909 86.6774
L90.3514 86.9193
" />
<path d="M90.3514 86.9193
L90.3514 87.2217
" />
<path d="M90.3514 87.2217
L90.2909 87.4636
" />
<path d="M90.2909 87.4636
L90.2304 87.5846
" />
<path d="M90.2304 87.5846
L90.1699 87.6451
" />
<path d="M90.1699 87.6451
L90.0490 87.7055
" />
<path d="M90.0490 87.7055
L89.9280 87.7055
" />
<path d="M89.9280 87.7055
L89.8071 87.6451
" />
<path d="M89.8071 87.6451
L89.7466 87.5846
" />
<path d="M89.7466 87.5846
L89.6861 87.4636
" />
<path d="M89.6861 87.4636
L89.6257 87.2217
" />
<path d="M89.6257 87.2217
L89.6257 86.9193
" />
<path d="M89.6257 86.9193
L89.6861 86.6774
" />
<path d="M89.6861 86.6774
L89.7466 86.5565
" />
<path d="M89.7466 86.5565
L89.8071 86.4960
" />
<path d="M89.8071 86.4960
L89.9280 86.4355
" />
<path d="M90.8956 87.5846
L90.9561 87.6451
" />
<path d="M90.9561 87.6451
L90.8956 87.7055
" />
<path d="M90.8956 87.7055
L90.8352 87.6451
" />
<path d="M90.8352 87.6451
L90.8956 87.5846
" />
<path d="M90.8956 87.5846
L90.8956 87.7055
" />
<path d="M92.1052 86.4355
L91.5004 86.4355
" />
<path d="M91.5004 86.4355
L91.4400 87.0403
" />
<path d="M91.4400 87.0403
L91.5004 86.9798
" />
<path d="M91.5004 86.9798
L91.6214 86.9193
" />
<path d="M91.6214 86.9193
L91.9238 86.9193
" />
<path d="M91.9238 86.9193
L92.0447 86.9798
" />
<path d="M92.0447 86.9798
L92.1052 87.0403
" />
<path d="M92.1052 87.0403
L92.1657 87.1612
" />
<path d="M92.1657 87.1612
L92.1657 87.4636
" />
<path d="M92.1657 87.4636
L92.1052 87.5846
" />
<path d="M92.1052 87.5846
L92.0447 87.6451
" />
<path d="M92.0447 87.6451
L91.9238 87.7055
" />
<path d="M91.9238 87.7055
L91.6214 87.7055
" />
<path d="M91.6214 87.7055
L91.5004 87.6451
" />
<path d="M91.5004 87.6451
L91.4400 87.5846
" />
<path d="M92.6495 87.3427
L93.2542 87.3427
" />
<path d="M92.5285 87.7055
L92.9518 86.4355
" />
<path d="M92.9518 86.4355
L93.3752 87.7055
" />
</g></g>
<g style="fill:none; 
stroke:#000000; stroke-width:0.1524; stroke-opacity:1; 
stroke-linecap:round; stroke-linejoin:round;">
<text x="68.3260" y="88.5230"
textLength="4.3156" font-size="1.6933" lengthAdjust="spacingAndGlyphs"
text-anchor="middle" opacity="0" stroke-opacity="0">0.5A</text>
<g class="stroked-text"><desc>0.5A</desc>
<path d="M66.8140 87.1975
L66.9350 87.1975
" />
<path d="M66.9350 87.1975
L67.0559 87.2580
" />
<path d="M67.0559 87.2580
L67.1164 87.3185
" />
<path d="M67.1164 87.3185
L67.1769 87.4394
" />
<path d="M67.1769 87.4394
L67.2374 87.6813
" />
<path d="M67.2374 87.6813
L67.2374 87.9837
" />
<path d="M67.2374 87.9837
L67.1769 88.2256
" />
<path d="M67.1769 88.2256
L67.1164 88.3466
" />
<path d="M67.1164 88.3466
L67.0559 88.4071
" />
<path d="M67.0559 88.4071
L66.9350 88.4675
" />
<path d="M66.9350 88.4675
L66.8140 88.4675
" />
<path d="M66.8140 88.4675
L66.6931 88.4071
" />
<path d="M66.6931 88.4071
L66.6326 88.3466
" />
<path d="M66.6326 88.3466
L66.5721 88.2256
" />
<path d="M66.5721 88.2256
L66.5117 87.9837
" />
<path d="M66.5117 87.9837
L66.5117 87.6813
" />
<path d="M66.5117 87.6813
L66.5721 87.4394
" />
<path d="M66.5721 87.4394
L66.6326 87.3185
" />
<path d="M66.6326 87.3185
L66.6931 87.2580
" />
<path d="M66.6931 87.2580
L66.8140 87.1975
" />
<path d="M67.7816 88.3466
L67.8421 88.4071
" />
<path d="M67.8421 88.4071
L67.7816 88.4675
" />
<path d="M67.7816 88.4675
L67.7212 88.4071
" />
<path d="M67.7212 88.4071
L67.7816 88.3466
" />
<path d="M67.7816 88.3466
L67.7816 88.4675
" />
<path d="M68.9912 87.1975
L68.3864 87.1975
" />
<path d="M68.3864 87.1975
L68.3260 87.8023
" />
<path d="M68.3260 87.8023
L68.3864 87.7418
" />
<path d="M68.3864 87.7418
L68.5074 87.6813
" />
<path d="M68.5074 87.6813
L68.8098 87.6813
" />
<path d="M68.8098 87.6813
L68.9307 87.7418
" />
<path d="M68.9307 87.7418
L68.9912 87.8023
" />
<path d="M68.9912 87.8023
L69.0517 87.9232
" />
<path d="M69.0517 87.9232
L69.0517 88.2256
" />
<path d="M69.0517 88.2256
L68.9912 88.3466
" />
<path d="M68.9912 88.3466
L68.9307 88.4071
" />
<path d="M68.9307 88.4071
L68.8098 88.4675
" />
<path d="M68.8098 88.4675
L68.5074 88.4675
" />
<path d="M68.5074 88.4675
L68.3864 88.4071
" />
<path d="M68.3864 88.4071
L68.3260 88.3466
" />
<path d="M69.5355 88.1047
L70.1402 88.1047
" />
<path d="M69.4145 88.4675
L69.8378 87.1975
" />
<path d="M69.8378 87.1975
L70.2612 88.4675
" />
</g></g>
<g style="fill:none; 
stroke:#000000; stroke-width:0.1524; stroke-opacity:1; 
stroke-linecap:round; stroke-linejoin:round;">
<text x="83.3120" y="88.5230"
textLength="4.3156" font-size="1.6933" lengthAdjust="spacingAndGlyphs"
text-anchor="middle" opacity="0" stroke-opacity="0">0.5A</text>
<g class="stroked-text"><desc>0.5A</desc>
<path d="M81.8000 87.1975
L81.9210 87.1975
" />
<path d="M81.9210 87.1975
L82.0419 87.2580
" />
<path d="M82.0419 87.2580
L82.1024 87.3185
" />
<path d="M82.1024 87.3185
L82.1629 87.4394
" />
<path d="M82.1629 87.4394
L82.2234 87.6813
" />
<path d="M82.2234 87.6813
L82.2234 87.9837
" />
<path d="M82.2234 87.9837
L82.1629 88.2256
" />
<path d="M82.1629 88.2256
L82.1024 88.3466
" />
<path d="M82.1024 88.3466
L82.0419 88.4071
" />
<path d="M82.0419 88.4071
L81.9210 88.4675
" />
<path d="M81.9210 88.4675
L81.8000 88.4675
" />
<path d="M81.8000 88.4675
L81.6791 88.4071
" />
<path d="M81.6791 88.4071
L81.6186 88.3466
" />
<path d="M81.6186 88.3466
L81.5581 88.2256
" />
<path d="M81.5581 88.2256
L81.4977 87.9837
" />
<path d="M81.4977 87.9837
L81.4977 87.6813
" />
<path d="M81.4977 87.6813
L81.5581 87.4394
" />
<path d="M81.5581 87.4394
L81.6186 87.3185
" />
<path d="M81.6186 87.3185
L81.6791 87.2580
" />
<path d="M81.6791 87.2580
L81.8000 87.1975
" />
<path d="M82.7676 88.3466
L82.8281 88.4071
" />
<path d="M82.8281 88.4071
L82.7676 88.4675
" />
<path d="M82.7676 88.4675
L82.7072 88.4071
" />
<path d="M82.7072 88.4071
L82.7676 88.3466
" />
<path d="M82.7676 88.3466
L82.7676 88.4675
" />
<path d="M83.9772 87.1975
L83.3724 87.1975
" />
<path d="M83.3724 87.1975
L83.3120 87.8023
" />
<path d="M83.3120 87.8023
L83.3724 87.7418
" />
<path d="M83.3724 87.7418
L83.4934 87.6813
" />
<path d="M83.4934 87.6813
L83.7958 87.6813
" />
<path d="M83.7958 87.6813
L83.9167 87.7418
" />
<path d="M83.9167 87.7418
L83.9772 87.8023
" />
<path d="M83.9772 87.8023
L84.0377 87.9232
" />
<path d="M84.0377 87.9232
L84.0377 88.2256
" />
<path d="M84.0377 88.2256
L83.9772 88.3466
" />
<path d="M83.9772 88.3466
L83.9167 88.4071
" />
<path d="M83.9167 88.4071
L83.7958 88.4675
" />
<path d="M83.7958 88.4675
L83.4934 88.4675
" />
<path d="M83.4934 88.4675
L83.3724 88.4071
" />
<path d="M83.3724 88.4071
L83.3120 88.3466
" />
<path d="M84.5215 88.1047
L85.1262 88.1047
" />
<path d="M84.4005 88.4675
L84.8238 87.1975
" />
<path d="M84.8238 87.1975
L85.2472 88.4675
" />
</g></g>
<g style="fill:none; 
stroke:#000000; stroke-width:0.1524; stroke-opacity:1; 
stroke-linecap:round; stroke-linejoin:round;">
<text x="91.4400" y="75.5690"
textLength="4.3156" font-size="1.6933" lengthAdjust="spacingAndGlyphs"
text-anchor="middle" opacity="0" stroke-opacity="0">0.5A</text>
<g class="stroked-text"><desc>0.5A</desc>
<path d="M89.9280 74.2435
L90.0490 74.2435
" />
<path d="M90.0490 74.2435
L90.1699 74.3040
" />
<path d="M90.1699 74.3040
L90.2304 74.3645
" />
<path d="M90.2304 74.3645
L90.2909 74.4854
" />
<path d="M90.2909 74.4854
L90.3514 74.7273
" />
<path d="M90.3514 74.7273
L90.3514 75.0297
" />
<path d="M90.3514 75.0297
L90.2909 75.2716
" />
<path d="M90.2909 75.2716
L90.2304 75.3926
" />
<path d="M90.2304 75.3926
L90.1699 75.4531
" />
<path d="M90.1699 75.4531
L90.0490 75.5135
" />
<path d="M90.0490 75.5135
L89.9280 75.5135
" />
<path d="M89.9280 75.5135
L89.8071 75.4531
" />
<path d="M89.8071 75.4531
L89.7466 75.3926
" />
<path d="M89.7466 75.3926
L89.6861 75.2716
" />
<path d="M89.6861 75.2716
L89.6257 75.0297
" />
<path d="M89.6257 75.0297
L89.6257 74.7273
" />
<path d="M89.6257 74.7273
L89.6861 74.4854
" />
<path d="M89.6861 74.4854
L89.7466 74.3645
" />
<path d="M89.7466 74.3645
L89.8071 74.3040
" />
<path d="M89.8071 74.3040
L89.9280 74.2435
" />
<path d="M90.8956 75.3926
L90.9561 75.4531
" />
<path d="M90.9561 75.4531
L90.8956 75.5135
" />
<path d="M90.8956 75.5135
L90.8352 75.4531
" />
<path d="M90.8352 75.4531
L90.8956 75.3926
" />
<path d="M90.8956 75.3926
L90.8956 75.5135
" />
<path d="M92.1052 74.2435
L91.5004 74.2435
" />
<path d="M91.5004 74.2435
L91.4400 74.8483
" />
<path d="M91.4400 74.8483
L91.5004 74.7878
" />
<path d="M91.5004 74.7878
L91.6214 74.7273
" />
<path d="M91.6214 74.7273
L91.9238 74.7273
" />
<path d="M91.9238 74.7273
L92.0447 74.7878
" />
<path d="M92.0447 74.7878
L92.1052 74.8483
" />
<path d="M92.1052 74.8483
L92.1657 74.9692
" />
<path d="M92.1657 74.9692
L92.1657 75.2716
" />
<path d="M92.1657 75.2716
L92.1052 75.3926
" />
<path d="M92.1052 75.3926
L92.0447 75.4531
" />
<path d="M92.0447 75.4531
L91.9238 75.5135
" />
<path d="M91.9238 75.5135
L91.6214 75.5135
" />
<path d="M91.6214 75.5135
L91.5004 75.4531
" />
<path d="M91.5004 75.4531
L91.4400 75.3926
" />
<path d="M92.6495 75.1507
L93.2542 75.1507
" />
<path d="M92.5285 75.5135
L92.9518 74.2435
" />
<path d="M92.9518 74.2435
L93.3752 75.5135
" />
</g></g>
<g style="fill:none; 
stroke:#000000; stroke-width:0.1524; stroke-opacity:1; 
stroke-linecap:round; stroke-linejoin:round;">
<text x="136.6520" y="85.4750"
textLength="2.5013" font-size="1.6933" lengthAdjust="spacingAndGlyphs"
text-anchor="middle" opacity="0" stroke-opacity="0">0V</text>
<g class="stroked-text"><desc>0V</desc>
<path d="M136.0472 84.1495
L136.1682 84.1495
" />
<path d="M136.1682 84.1495
L136.2891 84.2100
" />
<path d="M136.2891 84.2100
L136.3496 84.2705
" />
<path d="M136.3496 84.2705
L136.4101 84.3914
" />
<path d="M136.4101 84.3914
L136.4706 84.6333
" />
<path d="M136.4706 84.6333
L136.4706 84.9357
" />
<path d="M136.4706 84.9357
L136.4101 85.1776
" />
<path d="M136.4101 85.1776
L136.3496 85.2986
" />
<path d="M136.3496 85.2986
L136.2891 85.3591
" />
<path d="M136.2891 85.3591
L136.1682 85.4195
" />
<path d="M136.1682 85.4195
L136.0472 85.4195
" />
<path d="M136.0472 85.4195
L135.9263 85.3591
" />
<path d="M135.9263 85.3591
L135.8658 85.2986
" />
<path d="M135.8658 85.2986
L135.8053 85.1776
" />
<path d="M135.8053 85.1776
L135.7449 84.9357
" />
<path d="M135.7449 84.9357
L135.7449 84.6333
" />
<path d="M135.7449 84.6333
L135.8053 84.3914
" />
<path d="M135.8053 84.3914
L135.8658 84.2705
" />
<path d="M135.8658 84.2705
L135.9263 84.2100
" />
<path d="M135.9263 84.2100
L136.0472 84.1495
" />
<path d="M136.8334 84.1495
L137.2567 85.4195
" />
<path d="M137.2567 85.4195
L137.6801 84.1495
" />
</g></g>
<g style="fill:none; 
stroke:#000000; stroke-width:0.1524; stroke-opacity:1; 
stroke-linecap:round; stroke-linejoin:round;">
<text x="136.6520" y="83.6970"
textLength="2.5013" font-size="1.6933" lengthAdjust="spacingAndGlyphs"
text-anchor="middle" opacity="0" stroke-opacity="0">3V</text>
<g class="stroked-text"><desc>3V</desc>
<path d="M135.6844 82.3715
L136.4706 82.3715
" />
<path d="M136.4706 82.3715
L136.0472 82.8553
" />
<path d="M136.0472 82.8553
L136.2287 82.8553
" />
<path d="M136.2287 82.8553
L136.3496 82.9158
" />
<path d="M136.3496 82.9158
L136.4101 82.9763
" />
<path d="M136.4101 82.9763
L136.4706 83.0972
" />
<path d="M136.4706 83.0972
L136.4706 83.3996
" />
<path d="M136.4706 83.3996
L136.4101 83.5206
" />
<path d="M136.4101 83.5206
L136.3496 83.5811
" />
<path d="M136.3496 83.5811
L136.2287 83.6415
" />
<path d="M136.2287 83.6415
L135.8658 83.6415
" />
<path d="M135.8658 83.6415
L135.7449 83.5811
" />
<path d="M135.7449 83.5811
L135.6844 83.5206
" />
<path d="M136.8334 82.3715
L137.2567 83.6415
" />
<path d="M137.2567 83.6415
L137.6801 82.3715
" />
</g></g>
<g style="fill:#000000; fill-opacity:1.0000; stroke:none;">
<circle cx="63.5000" cy="88.9000" r="0.4572" /> 
</g>
<g style="fill:#000000; fill-opacity:1.0000; stroke:none;">
<circle cx="106.6800" cy="88.9000" r="0.4572" /> 
</g> 
</svg>
