<?xml version="1.0" standalone="no"?>
 <!DOCTYPE svg PUBLIC "-//W3C//DTD SVG 1.1//EN" 
 "http://www.w3.org/Graphics/SVG/1.1/DTD/svg11.dtd"> 
<svg
  xmlns:svg="http://www.w3.org/2000/svg"
  xmlns="http://www.w3.org/2000/svg"
  xmlns:xlink="http://www.w3.org/1999/xlink"
  xmlns:inkscape="http://www.inkscape.org/namespaces/inkscape"
  version="1.1"
  width="297.0022mm" height="210.0072mm" viewBox="0.0000 0.0000 297.0022 210.0072">
<title>SVG Image created as Schematic.svg date 2026-07-20T21:57:53 </title>
  <desc>Image generated by Eeschema-SVG </desc>
<g style="fill:#000000; fill-opacity:1.0000;stroke:#000000; stroke-opacity:1.0000;
stroke-linecap:round; stroke-linejoin:round;"
 transform="translate(0 0) scale(1 1)">
<path style="fill:none; 
stroke:#000000; stroke-width:0.1524; stroke-opacity:1; 
stroke-linecap:round; stroke-linejoin:round;fill:none"
d="M 173.4820,94.7420
177.0380,98.2980
" /> 
</g>
<g style="fill:none; 
stroke:#000000; stroke-width:0.1524; stroke-opacity:1; 
stroke-linecap:round; stroke-linejoin:round;">
<circle cx="175.2600" cy="96.5200" r="2.5400" /> 
<path style="fill:none; 
stroke:#000000; stroke-width:0.1524; stroke-opacity:1; 
stroke-linecap:round; stroke-linejoin:round;fill:none"
d="M 177.0380,94.7420
173.4820,98.2980
" /> 
<path d="M175.2600 99.0600
L175.2600 101.6000
" />
<path d="M175.2600 93.9800
L175.2600 91.4400
" />
<text x="180.3000" y="95.8849"
textLength="2.4408" font-size="1.6933" lengthAdjust="spacingAndGlyphs"
text-anchor="middle" opacity="0" stroke-opacity="0">L2</text>
<g class="stroked-text"><desc>L2</desc>
<path d="M180.0883 95.8294
L179.4835 95.8294
" />
<path d="M179.4835 95.8294
L179.4835 94.5594
" />
<path d="M180.4512 94.6804
L180.5116 94.6199
" />
<path d="M180.5116 94.6199
L180.6326 94.5594
" />
<path d="M180.6326 94.5594
L180.9350 94.5594
" />
<path d="M180.9350 94.5594
L181.0559 94.6199
" />
<path d="M181.0559 94.6199
L181.1164 94.6804
" />
<path d="M181.1164 94.6804
L181.1769 94.8013
" />
<path d="M181.1769 94.8013
L181.1769 94.9223
" />
<path d="M181.1769 94.9223
L181.1164 95.1037
" />
<path d="M181.1164 95.1037
L180.3907 95.8294
" />
<path d="M180.3907 95.8294
L181.1769 95.8294
" />
</g></g>
<g style="fill:#000000; fill-opacity:1.0000; 
stroke:#000000; stroke-width:0.1524; stroke-opacity:1; 
stroke-linecap:round; stroke-linejoin:round;">
<rect x="147.574000" y="94.742000" width="4.572000" height="0.254000" rx="0.000000" />
<rect x="147.574000" y="97.790000" width="4.572000" height="0.254000" rx="0.000000" />
<rect x="148.336000" y="95.504000" width="3.048000" height="0.508000" rx="0.000000" />
<rect x="148.336000" y="98.552000" width="3.048000" height="0.508000" rx="0.000000" />
<path style="fill:none; 
stroke:#000000; stroke-width:0.1524; stroke-opacity:1; 
stroke-linecap:round; stroke-linejoin:round;fill:none"
d="M 149.8600,94.7420
149.8600,93.9800
" /> 
<path style="fill:none; 
stroke:#000000; stroke-width:0.1524; stroke-opacity:1; 
stroke-linecap:round; stroke-linejoin:round;fill:none"
d="M 149.8600,96.5200
149.8600,96.2660
" /> 
<path style="fill:none; 
stroke:#000000; stroke-width:0.1524; stroke-opacity:1; 
stroke-linecap:round; stroke-linejoin:round;fill:none"
d="M 149.8600,97.0280
149.8600,96.7740
" /> 
<path style="fill:none; 
stroke:#000000; stroke-width:0.1524; stroke-opacity:1; 
stroke-linecap:round; stroke-linejoin:round;fill:none"
d="M 149.8600,97.5360
149.8600,97.2820
" /> 
<path style="fill:none; 
stroke:#000000; stroke-width:0.2540; stroke-opacity:1; 
stroke-linecap:round; stroke-linejoin:round;fill:none"
d="M 150.6220,93.4720
151.6380,93.4720
" /> 
<path style="fill:none; 
stroke:#000000; stroke-width:0.2540; stroke-opacity:1; 
stroke-linecap:round; stroke-linejoin:round;fill:none"
d="M 151.1300,92.9640
151.1300,93.9800
" /> 
</g>
<g style="fill:none; 
stroke:#000000; stroke-width:0.1524; stroke-opacity:1; 
stroke-linecap:round; stroke-linejoin:round;">
<path d="M149.8600 93.9800
L149.8600 91.4400
" />
<path d="M149.8600 99.0600
L149.8600 101.6000
" />
<text x="155.5047" y="96.5834"
textLength="3.6503" font-size="1.6933" lengthAdjust="spacingAndGlyphs"
text-anchor="middle" opacity="0" stroke-opacity="0">BT2</text>
<g class="stroked-text"><desc>BT2</desc>
<path d="M154.5069 95.8627
L154.6883 95.9232
" />
<path d="M154.6883 95.9232
L154.7488 95.9836
" />
<path d="M154.7488 95.9836
L154.8092 96.1046
" />
<path d="M154.8092 96.1046
L154.8092 96.2860
" />
<path d="M154.8092 96.2860
L154.7488 96.4070
" />
<path d="M154.7488 96.4070
L154.6883 96.4675
" />
<path d="M154.6883 96.4675
L154.5673 96.5279
" />
<path d="M154.5673 96.5279
L154.0835 96.5279
" />
<path d="M154.0835 96.5279
L154.0835 95.2579
" />
<path d="M154.0835 95.2579
L154.5069 95.2579
" />
<path d="M154.5069 95.2579
L154.6278 95.3184
" />
<path d="M154.6278 95.3184
L154.6883 95.3789
" />
<path d="M154.6883 95.3789
L154.7488 95.4998
" />
<path d="M154.7488 95.4998
L154.7488 95.6208
" />
<path d="M154.7488 95.6208
L154.6883 95.7417
" />
<path d="M154.6883 95.7417
L154.6278 95.8022
" />
<path d="M154.6278 95.8022
L154.5069 95.8627
" />
<path d="M154.5069 95.8627
L154.0835 95.8627
" />
<path d="M155.1721 95.2579
L155.8978 95.2579
" />
<path d="M155.5350 96.5279
L155.5350 95.2579
" />
<path d="M156.2607 95.3789
L156.3211 95.3184
" />
<path d="M156.3211 95.3184
L156.4421 95.2579
" />
<path d="M156.4421 95.2579
L156.7445 95.2579
" />
<path d="M156.7445 95.2579
L156.8654 95.3184
" />
<path d="M156.8654 95.3184
L156.9259 95.3789
" />
<path d="M156.9259 95.3789
L156.9864 95.4998
" />
<path d="M156.9864 95.4998
L156.9864 95.6208
" />
<path d="M156.9864 95.6208
L156.9259 95.8022
" />
<path d="M156.9259 95.8022
L156.2002 96.5279
" />
<path d="M156.2002 96.5279
L156.9864 96.5279
" />
</g><circle cx="160.5280" cy="87.6300" r="0.5080" /> 
<path style="fill:none; 
stroke:#000000; stroke-width:0.1524; stroke-opacity:1; 
stroke-linecap:round; stroke-linejoin:round;fill:none"
d="M 161.0360,87.3760
164.9011,86.9900
" /> 
<circle cx="164.5920" cy="87.6300" r="0.5080" /> 
<path d="M160.0200 87.6300
L157.4800 87.6300
" />
<path d="M165.1000 87.6300
L167.6400 87.6300
" />
<text x="162.5600" y="84.4550"
textLength="2.6222" font-size="1.6933" lengthAdjust="spacingAndGlyphs"
text-anchor="middle" opacity="0" stroke-opacity="0">S2</text>
<g class="stroked-text"><desc>S2</desc>
<path d="M161.5924 84.3391
L161.7738 84.3995
" />
<path d="M161.7738 84.3995
L162.0762 84.3995
" />
<path d="M162.0762 84.3995
L162.1971 84.3391
" />
<path d="M162.1971 84.3391
L162.2576 84.2786
" />
<path d="M162.2576 84.2786
L162.3181 84.1576
" />
<path d="M162.3181 84.1576
L162.3181 84.0367
" />
<path d="M162.3181 84.0367
L162.2576 83.9157
" />
<path d="M162.2576 83.9157
L162.1971 83.8552
" />
<path d="M162.1971 83.8552
L162.0762 83.7948
" />
<path d="M162.0762 83.7948
L161.8343 83.7343
" />
<path d="M161.8343 83.7343
L161.7133 83.6738
" />
<path d="M161.7133 83.6738
L161.6528 83.6133
" />
<path d="M161.6528 83.6133
L161.5924 83.4924
" />
<path d="M161.5924 83.4924
L161.5924 83.3714
" />
<path d="M161.5924 83.3714
L161.6528 83.2505
" />
<path d="M161.6528 83.2505
L161.7133 83.1900
" />
<path d="M161.7133 83.1900
L161.8343 83.1295
" />
<path d="M161.8343 83.1295
L162.1366 83.1295
" />
<path d="M162.1366 83.1295
L162.3181 83.1900
" />
<path d="M162.8019 83.2505
L162.8623 83.1900
" />
<path d="M162.8623 83.1900
L162.9833 83.1295
" />
<path d="M162.9833 83.1295
L163.2857 83.1295
" />
<path d="M163.2857 83.1295
L163.4066 83.1900
" />
<path d="M163.4066 83.1900
L163.4671 83.2505
" />
<path d="M163.4671 83.2505
L163.5276 83.3714
" />
<path d="M163.5276 83.3714
L163.5276 83.4924
" />
<path d="M163.5276 83.4924
L163.4671 83.6738
" />
<path d="M163.4671 83.6738
L162.7414 84.3995
" />
<path d="M162.7414 84.3995
L163.5276 84.3995
" />
</g></g>
<g style="fill:#000000; fill-opacity:1.0000; 
stroke:#000000; stroke-width:0.1524; stroke-opacity:1; 
stroke-linecap:round; stroke-linejoin:round;">
<rect x="99.314000" y="94.742000" width="4.572000" height="0.254000" rx="0.000000" />
<rect x="99.314000" y="97.790000" width="4.572000" height="0.254000" rx="0.000000" />
<rect x="100.076000" y="95.504000" width="3.048000" height="0.508000" rx="0.000000" />
<rect x="100.076000" y="98.552000" width="3.048000" height="0.508000" rx="0.000000" />
<path style="fill:none; 
stroke:#000000; stroke-width:0.1524; stroke-opacity:1; 
stroke-linecap:round; stroke-linejoin:round;fill:none"
d="M 101.6000,94.7420
101.6000,93.9800
" /> 
<path style="fill:none; 
stroke:#000000; stroke-width:0.1524; stroke-opacity:1; 
stroke-linecap:round; stroke-linejoin:round;fill:none"
d="M 101.6000,96.5200
101.6000,96.2660
" /> 
<path style="fill:none; 
stroke:#000000; stroke-width:0.1524; stroke-opacity:1; 
stroke-linecap:round; stroke-linejoin:round;fill:none"
d="M 101.6000,97.0280
101.6000,96.7740
" /> 
<path style="fill:none; 
stroke:#000000; stroke-width:0.1524; stroke-opacity:1; 
stroke-linecap:round; stroke-linejoin:round;fill:none"
d="M 101.6000,97.5360
101.6000,97.2820
" /> 
<path style="fill:none; 
stroke:#000000; stroke-width:0.2540; stroke-opacity:1; 
stroke-linecap:round; stroke-linejoin:round;fill:none"
d="M 102.3620,93.4720
103.3780,93.4720
" /> 
<path style="fill:none; 
stroke:#000000; stroke-width:0.2540; stroke-opacity:1; 
stroke-linecap:round; stroke-linejoin:round;fill:none"
d="M 102.8700,92.9640
102.8700,93.9800
" /> 
</g>
<g style="fill:none; 
stroke:#000000; stroke-width:0.1524; stroke-opacity:1; 
stroke-linecap:round; stroke-linejoin:round;">
<path d="M101.6000 93.9800
L101.6000 91.4400
" />
<path d="M101.6000 99.0600
L101.6000 101.6000
" />
<text x="107.2447" y="95.3134"
textLength="3.6503" font-size="1.6933" lengthAdjust="spacingAndGlyphs"
text-anchor="middle" opacity="0" stroke-opacity="0">BT1</text>
<g class="stroked-text"><desc>BT1</desc>
<path d="M106.2469 94.5927
L106.4283 94.6532
" />
<path d="M106.4283 94.6532
L106.4888 94.7136
" />
<path d="M106.4888 94.7136
L106.5492 94.8346
" />
<path d="M106.5492 94.8346
L106.5492 95.0160
" />
<path d="M106.5492 95.0160
L106.4888 95.1370
" />
<path d="M106.4888 95.1370
L106.4283 95.1975
" />
<path d="M106.4283 95.1975
L106.3073 95.2579
" />
<path d="M106.3073 95.2579
L105.8235 95.2579
" />
<path d="M105.8235 95.2579
L105.8235 93.9879
" />
<path d="M105.8235 93.9879
L106.2469 93.9879
" />
<path d="M106.2469 93.9879
L106.3678 94.0484
" />
<path d="M106.3678 94.0484
L106.4283 94.1089
" />
<path d="M106.4283 94.1089
L106.4888 94.2298
" />
<path d="M106.4888 94.2298
L106.4888 94.3508
" />
<path d="M106.4888 94.3508
L106.4283 94.4717
" />
<path d="M106.4283 94.4717
L106.3678 94.5322
" />
<path d="M106.3678 94.5322
L106.2469 94.5927
" />
<path d="M106.2469 94.5927
L105.8235 94.5927
" />
<path d="M106.9121 93.9879
L107.6378 93.9879
" />
<path d="M107.2750 95.2579
L107.2750 93.9879
" />
<path d="M108.7264 95.2579
L108.0007 95.2579
" />
<path d="M108.3635 95.2579
L108.3635 93.9879
" />
<path d="M108.3635 93.9879
L108.2426 94.1694
" />
<path d="M108.2426 94.1694
L108.1216 94.2903
" />
<path d="M108.1216 94.2903
L108.0007 94.3508
" />
</g><path style="fill:none; 
stroke:#000000; stroke-width:0.1524; stroke-opacity:1; 
stroke-linecap:round; stroke-linejoin:round;fill:none"
d="M 125.2220,94.7420
128.7780,98.2980
" /> 
<circle cx="127.0000" cy="96.5200" r="2.5400" /> 
<path style="fill:none; 
stroke:#000000; stroke-width:0.1524; stroke-opacity:1; 
stroke-linecap:round; stroke-linejoin:round;fill:none"
d="M 128.7780,94.7420
125.2220,98.2980
" /> 
<path d="M127.0000 99.0600
L127.0000 101.6000
" />
<path d="M127.0000 93.9800
L127.0000 91.4400
" />
<text x="132.0400" y="95.8849"
textLength="2.4408" font-size="1.6933" lengthAdjust="spacingAndGlyphs"
text-anchor="middle" opacity="0" stroke-opacity="0">L1</text>
<g class="stroked-text"><desc>L1</desc>
<path d="M131.8283 95.8294
L131.2235 95.8294
" />
<path d="M131.2235 95.8294
L131.2235 94.5594
" />
<path d="M132.9169 95.8294
L132.1912 95.8294
" />
<path d="M132.5540 95.8294
L132.5540 94.5594
" />
<path d="M132.5540 94.5594
L132.4331 94.7409
" />
<path d="M132.4331 94.7409
L132.3121 94.8618
" />
<path d="M132.3121 94.8618
L132.1912 94.9223
" />
</g><circle cx="112.2680" cy="87.6300" r="0.5080" /> 
<path style="fill:none; 
stroke:#000000; stroke-width:0.1524; stroke-opacity:1; 
stroke-linecap:round; stroke-linejoin:round;fill:none"
d="M 112.7760,87.3760
115.8240,85.8520
" /> 
<circle cx="116.3320" cy="87.6300" r="0.5080" /> 
<path d="M111.7600 87.6300
L109.2200 87.6300
" />
<path d="M116.8400 87.6300
L119.3800 87.6300
" />
<text x="114.3000" y="84.4550"
textLength="2.6222" font-size="1.6933" lengthAdjust="spacingAndGlyphs"
text-anchor="middle" opacity="0" stroke-opacity="0">S1</text>
<g class="stroked-text"><desc>S1</desc>
<path d="M113.3324 84.3391
L113.5138 84.3995
" />
<path d="M113.5138 84.3995
L113.8162 84.3995
" />
<path d="M113.8162 84.3995
L113.9371 84.3391
" />
<path d="M113.9371 84.3391
L113.9976 84.2786
" />
<path d="M113.9976 84.2786
L114.0581 84.1576
" />
<path d="M114.0581 84.1576
L114.0581 84.0367
" />
<path d="M114.0581 84.0367
L113.9976 83.9157
" />
<path d="M113.9976 83.9157
L113.9371 83.8552
" />
<path d="M113.9371 83.8552
L113.8162 83.7948
" />
<path d="M113.8162 83.7948
L113.5743 83.7343
" />
<path d="M113.5743 83.7343
L113.4533 83.6738
" />
<path d="M113.4533 83.6738
L113.3928 83.6133
" />
<path d="M113.3928 83.6133
L113.3324 83.4924
" />
<path d="M113.3324 83.4924
L113.3324 83.3714
" />
<path d="M113.3324 83.3714
L113.3928 83.2505
" />
<path d="M113.3928 83.2505
L113.4533 83.1900
" />
<path d="M113.4533 83.1900
L113.5743 83.1295
" />
<path d="M113.5743 83.1295
L113.8766 83.1295
" />
<path d="M113.8766 83.1295
L114.0581 83.1900
" />
<path d="M115.2676 84.3995
L114.5419 84.3995
" />
<path d="M114.9047 84.3995
L114.9047 83.1295
" />
<path d="M114.9047 83.1295
L114.7838 83.3110
" />
<path d="M114.7838 83.3110
L114.6628 83.4319
" />
<path d="M114.6628 83.4319
L114.5419 83.4924
" />
</g><path d="M127.0000 101.6000
L127.0000 104.1400
" />
<path d="M127.0000 87.6300
L127.0000 91.4400
" />
<path d="M101.6000 91.4400
L101.6000 87.6300
" />
<path d="M101.6000 87.6300
L109.2200 87.6300
" />
<path d="M101.6000 101.6000
L101.6000 104.1400
" />
<path d="M101.6000 104.1400
L127.0000 104.1400
" />
<path d="M175.2600 101.6000
L175.2600 104.1400
" />
<path d="M175.2600 87.6300
L175.2600 91.4400
" />
<path d="M167.6400 87.6300
L175.2600 87.6300
" />
<path d="M149.8600 104.1400
L175.2600 104.1400
" />
<path d="M119.3800 87.6300
L127.0000 87.6300
" />
<path d="M149.8600 91.4400
L149.8600 87.6300
" />
<path d="M149.8600 101.6000
L149.8600 104.1400
" />
<path d="M149.8600 87.6300
L157.4800 87.6300
" />
</g> 
</svg>
